SplineFontDB: 3.2
FontName: CelticDublinFont
FullName: CelticDublinFont
FamilyName: CelticDublinFont
Weight: Book
Copyright: This is free and unencumbered software released into the public domain. Anyone is free to copy, modify, publish, use, compile, sell, or distribute this software, either in source code form or as a compiled binary, for any purpose, commercial or non-commercial, and by any means. In jurisdictions that recognize copyright laws, the author or authors of this software dedicate any and all copyright interest in the software to the public domain. We make this dedication for the benefit of the public at large and to the detriment of our heirs and successors. We intend this dedication to be an overt act of relinquishment in perpetuity of all present and future rights to this software under copyright law. THE SOFTWARE IS PROVIDED "AS IS", WITHOUT WARRANTY OF ANY KIND, EXPRESS OR IMPLIED, INCLUDING BUT NOT LIMITED TO THE WARRANTIES OF MERCHANTABILITY, FITNESS FOR A PARTICULAR PURPOSE AND NONINFRINGEMENT. IN NO EVENT SHALL THE AUTHORS BE LIABLE FOR ANY CLAIM, DAMAGES OR OTHER LIABILITY, WHETHER IN AN ACTION OF CONTRACT, TORT OR OTHERWISE, ARISING FROM, OUT OF OR IN CONNECTION WITH THE SOFTWARE OR THE USE OR OTHER DEALINGS IN THE SOFTWARE. For more information, please refer to <https://unlicense.org>
Version: 001.000
ItalicAngle: 0
UnderlinePosition: -100
UnderlineWidth: 50
Ascent: 800
Descent: 200
InvalidEm: 0
sfntRevision: 0x00010000
LayerCount: 2
Layer: 0 1 "Back" 1
Layer: 1 1 "Fore" 0
XUID: [1021 544 -109929713 5566031]
StyleMap: 0x0000
FSType: 0
OS2Version: 4
OS2_WeightWidthSlopeOnly: 0
OS2_UseTypoMetrics: 1
CreationTime: 1718931969
ModificationTime: 1745718561
PfmFamily: 17
TTFWeight: 400
TTFWidth: 5
LineGap: 90
VLineGap: 0
Panose: 2 0 5 3 0 0 0 0 0 0
OS2TypoAscent: 800
OS2TypoAOffset: 0
OS2TypoDescent: -200
OS2TypoDOffset: 0
OS2TypoLinegap: 90
OS2WinAscent: 1015
OS2WinAOffset: 0
OS2WinDescent: 317
OS2WinDOffset: 0
HheadAscent: 1015
HheadAOffset: 0

StartChar: .notdef
Encoding: 65536 -1 0
Width: 364
GlyphClass: 1
Flags: W
LayerCount: 2
Fore
SplineSet
33 0 m 1,0,-1
 33 666 l 1,1,-1
 298 666 l 1,2,-1
 298 0 l 1,3,-1
 33 0 l 1,0,-1
66 33 m 1,4,-1
 265 33 l 1,5,-1
 265 633 l 1,6,-1
 66 633 l 1,7,-1
 66 33 l 1,4,-1
EndSplineSet
Validated: 1
EndChar

StartChar: A
Encoding: 65 65 3
Width: 507
GlyphClass: 1
Flags: W
LayerCount: 2
Fore
SplineSet
3.0634765625 45.3349609375 m 1,0,-1
 74.22265625 146.654296875 l 2,1,2
 75.4130859375 146.53125 75.4130859375 146.53125 77.5205078125 147.401367188 c 128,-1,3
 79.6279296875 148.2734375 79.6279296875 148.2734375 85.697265625 157.627929688 c 128,-1,4
 91.76953125 166.985351562 91.76953125 166.985351562 97.318359375 184.202148438 c 2,5,-1
 160.361328125 323.071289062 l 1,6,-1
 199.685546875 412.470703125 l 2,7,8
 204.7890625 422.891601562 204.7890625 422.891601562 212.215820312 439.180664062 c 128,-1,9
 219.641601562 455.470703125 219.641601562 455.470703125 231.060546875 489.067382812 c 128,-1,10
 242.478515625 522.6640625 242.478515625 522.6640625 240.258789062 536.4375 c 1,11,-1
 258.985351562 618.686523438 l 2,12,13
 259.415039062 619.98046875 259.415039062 619.98046875 260.243164062 622.022460938 c 128,-1,14
 261.073242188 624.064453125 261.073242188 624.064453125 263.427734375 629.34375 c 128,-1,15
 265.784179688 634.622070312 265.784179688 634.622070312 268.596679688 637.892578125 c 128,-1,16
 271.409179688 641.1640625 271.409179688 641.1640625 274.829101562 643.59765625 c 128,-1,17
 278.249023438 646.03125 278.249023438 646.03125 282.24609375 643.788085938 c 128,-1,18
 286.244140625 641.546875 286.244140625 641.546875 289.995117188 634.481445312 c 0,19,20
 292.154296875 632.141601562 292.154296875 632.141601562 293.2578125 626.715820312 c 128,-1,21
 294.361328125 621.2890625 294.361328125 621.2890625 294.384765625 617.034179688 c 2,22,-1
 294.41015625 612.779296875 l 1,23,-1
 293.0859375 581.170898438 l 2,24,25
 292.553710938 576.28515625 292.553710938 576.28515625 292.024414062 568.326171875 c 128,-1,26
 291.49609375 560.3671875 291.49609375 560.3671875 290.944335938 536.469726562 c 128,-1,27
 290.39453125 512.571289062 290.39453125 512.571289062 293.004882812 495.612304688 c 2,28,-1
 308.609375 396.081054688 l 1,29,30
 307.702148438 368.2734375 307.702148438 368.2734375 322.653320312 321.282226562 c 2,31,-1
 346.685546875 255.424804688 l 2,32,33
 378.55078125 179.08984375 378.55078125 179.08984375 393.8125 154.998046875 c 0,34,35
 400.608398438 144.271484375 400.608398438 144.271484375 410.830078125 130.711914062 c 128,-1,36
 421.051757812 117.153320312 421.051757812 117.153320312 427.875 108.958984375 c 2,37,-1
 434.697265625 100.762695312 l 2,38,39
 465.65625 67.37890625 465.65625 67.37890625 496.494140625 63.21484375 c 0,40,41
 502.041015625 59.1103515625 502.041015625 59.1103515625 503.756835938 48.380859375 c 128,-1,42
 505.473632812 37.65234375 505.473632812 37.65234375 504.415039062 28.978515625 c 2,43,-1
 503.358398438 20.302734375 l 2,44,45
 502.874023438 19.189453125 502.874023438 19.189453125 501.821289062 17.55859375 c 128,-1,46
 500.768554688 15.927734375 500.768554688 15.927734375 496.748046875 11.509765625 c 128,-1,47
 492.7265625 7.09375 492.7265625 7.09375 487.450195312 5.4345703125 c 128,-1,48
 482.170898438 3.7744140625 482.170898438 3.7744140625 473.23828125 2.6044921875 c 128,-1,49
 464.302734375 1.43359375 464.302734375 1.43359375 453.422851562 6.296875 c 0,50,51
 436.638671875 12.3896484375 436.638671875 12.3896484375 421.11328125 24.384765625 c 128,-1,52
 405.5859375 36.37890625 405.5859375 36.37890625 398.451171875 45.326171875 c 2,53,-1
 391.315429688 54.2744140625 l 1,54,-1
 347.309570312 120.728515625 l 1,55,56
 347.309570312 120.728515625 347.309570312 120.728515625 342.234375 123.483398438 c 0,57,58
 333.171875 123.524414062 333.171875 123.524414062 318.596679688 102.848632812 c 0,59,60
 307.776367188 90.3994140625 307.776367188 90.3994140625 292.25 76.3193359375 c 128,-1,61
 276.723632812 62.2392578125 276.723632812 62.2392578125 266.60546875 54.3837890625 c 2,62,-1
 256.48828125 46.52734375 l 2,63,64
 255.083984375 45.5751953125 255.083984375 45.5751953125 252.580078125 43.978515625 c 128,-1,65
 250.07421875 42.3828125 250.07421875 42.3828125 242.28125 38.05859375 c 128,-1,66
 234.487304688 33.7333984375 234.487304688 33.7333984375 226.715820312 30.1396484375 c 128,-1,67
 218.946289062 26.546875 218.946289062 26.546875 208.064453125 22.8544921875 c 128,-1,68
 197.18359375 19.1611328125 197.18359375 19.1611328125 187.379882812 17.490234375 c 128,-1,69
 177.575195312 15.8212890625 177.575195312 15.8212890625 166.837890625 16.677734375 c 128,-1,70
 156.1015625 17.53515625 156.1015625 17.53515625 147.56640625 21.79296875 c 0,71,72
 140.21484375 30.4013671875 140.21484375 30.4013671875 132.177734375 47.759765625 c 128,-1,73
 124.141601562 65.119140625 124.141601562 65.119140625 119.780273438 78.173828125 c 2,74,-1
 115.419921875 91.2275390625 l 1,75,76
 115.419921875 91.2275390625 115.419921875 91.2275390625 112.697265625 99.3056640625 c 1,77,78
 105.981445312 104.975585938 105.981445312 104.975585938 87.44140625 75.6103515625 c 0,79,80
 85.86328125 73.111328125 85.86328125 73.111328125 84.208984375 70.3671875 c 0,81,82
 70.4775390625 47.5859375 70.4775390625 47.5859375 58.4619140625 32.015625 c 128,-1,83
 46.4462890625 16.4462890625 46.4462890625 16.4462890625 41.2958984375 12.2646484375 c 2,84,-1
 36.1474609375 8.0849609375 l 2,85,86
 34.3603515625 7.0517578125 34.3603515625 7.0517578125 31.41796875 5.955078125 c 128,-1,87
 28.4765625 4.857421875 28.4765625 4.857421875 19.5478515625 3.361328125 c 128,-1,88
 10.6181640625 1.8642578125 10.6181640625 1.8642578125 4 6 c 0,89,90
 2.251953125 7.0849609375 2.251953125 7.0849609375 1.4814453125 11.197265625 c 128,-1,91
 0.7099609375 15.3095703125 0.7099609375 15.3095703125 0.857421875 20.404296875 c 128,-1,92
 1.0048828125 25.5 1.0048828125 25.5 1.4013671875 30.439453125 c 128,-1,93
 1.798828125 35.380859375 1.798828125 35.380859375 2.275390625 38.7177734375 c 2,94,-1
 2.751953125 42.0576171875 l 1,95,-1
 3.0634765625 45.3349609375 l 1,0,-1
259.921875 387.438476562 m 1,96,-1
 259.375 388.407226562 l 2,97,98
 258.903320312 389.3828125 258.903320312 389.3828125 257.346679688 393.771484375 c 0,99,100
 255.086914062 398.311523438 255.086914062 398.311523438 252.138671875 397.135742188 c 128,-1,101
 249.19140625 395.959960938 249.19140625 395.959960938 246.63671875 392.21875 c 2,102,-1
 244.08203125 388.48046875 l 1,103,-1
 239.323242188 378.499023438 l 1,104,-1
 232.14453125 362.407226562 l 1,105,-1
 217.1640625 329.329101562 l 2,106,107
 166.435546875 214.419921875 166.435546875 214.419921875 160.361328125 199.846679688 c 0,108,109
 157.657226562 193.359375 157.657226562 193.359375 156.408203125 187.80859375 c 128,-1,110
 155.161132812 182.255859375 155.161132812 182.255859375 155.263671875 179.952148438 c 2,111,-1
 155.3671875 177.647460938 l 1,112,113
 165.336914062 127.86328125 165.336914062 127.86328125 180.314453125 100.5234375 c 0,114,115
 186.86328125 85.7734375 186.86328125 85.7734375 196.637695312 80.04296875 c 128,-1,116
 206.413085938 74.3134765625 206.413085938 74.3134765625 215.68359375 76.671875 c 128,-1,117
 224.955078125 79.0302734375 224.955078125 79.0302734375 233.2890625 83.49609375 c 128,-1,118
 241.625976562 87.9609375 241.625976562 87.9609375 246.720703125 92.767578125 c 2,119,-1
 251.81640625 97.57421875 l 1,120,-1
 293.306640625 147.724609375 l 1,121,-1
 318.463867188 176.381835938 l 1,122,-1
 311.844726562 199.981445312 l 2,123,124
 299.02734375 241.323242188 299.02734375 241.323242188 291.099609375 261.090820312 c 0,125,126
 286.979492188 268.208984375 286.979492188 268.208984375 279.185546875 299.794921875 c 128,-1,127
 271.390625 331.3828125 271.390625 331.3828125 265.65625 359.411132812 c 2,128,-1
 259.921875 387.438476562 l 1,96,-1
EndSplineSet
Validated: 33
EndChar

StartChar: B
Encoding: 66 66 4
Width: 558
GlyphClass: 1
Flags: W
LayerCount: 2
Fore
SplineSet
24.7841796875 653.545898438 m 1,0,1
 27.7490234375 653.545898438 27.7490234375 653.545898438 32.19921875 651.749023438 c 128,-1,2
 36.6474609375 649.954101562 36.6474609375 649.954101562 48.51171875 644.563476562 c 128,-1,3
 60.3759765625 639.174804688 60.3759765625 639.174804688 70.2607421875 632.887695312 c 128,-1,4
 80.1474609375 626.600585938 80.1474609375 626.600585938 91.0224609375 616.271484375 c 128,-1,5
 101.896484375 605.943359375 101.896484375 605.943359375 107.830078125 594.266601562 c 1,6,7
 127.6015625 575.404296875 127.6015625 575.404296875 139.959960938 548.009765625 c 128,-1,8
 152.317382812 520.616210938 152.317382812 520.616210938 155.77734375 495.466796875 c 128,-1,9
 159.23828125 470.318359375 159.23828125 470.318359375 159.733398438 448.3125 c 128,-1,10
 160.227539062 426.307617188 160.227539062 426.307617188 158.25 412.833984375 c 2,11,-1
 157.26171875 399.362304688 l 1,12,-1
 151.329101562 322.119140625 l 2,13,14
 149.352539062 316.728515625 149.352539062 316.728515625 145.892578125 308.645507812 c 128,-1,15
 142.432617188 300.5625 142.432617188 300.5625 137.48828125 285.29296875 c 128,-1,16
 132.545898438 270.024414062 132.545898438 270.024414062 134.522460938 264.634765625 c 0,17,18
 122.659179688 208.948242188 122.659179688 208.948242188 125.129882812 172.572265625 c 128,-1,19
 127.6015625 136.1953125 127.6015625 136.1953125 136.5 118.232421875 c 2,20,-1
 146.385742188 100.268554688 l 2,21,22
 180.989257812 34.701171875 180.989257812 34.701171875 202.73828125 20.3310546875 c 0,23,24
 209.659179688 13.1455078125 209.659179688 13.1455078125 224.489257812 9.103515625 c 128,-1,25
 239.318359375 5.0615234375 239.318359375 5.0615234375 251.181640625 4.1630859375 c 2,26,-1
 262.056640625 3.265625 l 1,27,-1
 304.568359375 5.9599609375 l 2,28,29
 314.455078125 5.9599609375 314.455078125 5.9599609375 325.329101562 12.2470703125 c 0,30,31
 379.705078125 47.2763671875 379.705078125 47.2763671875 379.705078125 47.2763671875 c 1,32,33
 439.0234375 91.2861328125 439.0234375 91.2861328125 443.965820312 110.1484375 c 1,34,35
 466.705078125 125.416992188 466.705078125 125.416992188 479.557617188 142.483398438 c 128,-1,36
 492.409179688 159.547851562 492.409179688 159.547851562 494.38671875 169.427734375 c 2,37,-1
 496.36328125 178.41015625 l 1,38,-1
 496.36328125 204.45703125 l 2,39,40
 496.36328125 219.7265625 496.36328125 219.7265625 507.23828125 232.30078125 c 0,41,42
 518.114257812 248.466796875 518.114257812 248.466796875 521.57421875 269.57421875 c 128,-1,43
 525.034179688 290.682617188 525.034179688 290.682617188 523.056640625 303.256835938 c 2,44,-1
 521.080078125 315.831054688 l 2,45,46
 524.045898438 320.322265625 524.045898438 320.322265625 499.329101562 337.387695312 c 0,47,48
 475.602539062 353.5546875 475.602539062 353.5546875 435.068359375 373.762695312 c 128,-1,49
 394.534179688 393.971679688 394.534179688 393.971679688 366.852539062 400.259765625 c 0,50,51
 332.25 404.75 332.25 404.75 309.017578125 401.158203125 c 128,-1,52
 285.784179688 397.564453125 285.784179688 397.564453125 273.920898438 390.380859375 c 2,53,-1
 262.056640625 383.194335938 l 1,54,-1
 251.181640625 370.619140625 l 1,55,-1
 241.296875 363.434570312 l 2,56,57
 236.352539062 359.840820312 236.352539062 359.840820312 227.454101562 351.309570312 c 128,-1,58
 218.556640625 342.776367188 218.556640625 342.776367188 212.625 336.489257812 c 2,59,-1
 206.693359375 329.303710938 l 2,60,61
 203.727539062 323.016601562 203.727539062 323.016601562 199.7734375 329.303710938 c 0,62,63
 197.795898438 332.896484375 197.795898438 332.896484375 197.795898438 336.9375 c 128,-1,64
 197.795898438 340.98046875 197.795898438 340.98046875 198.78515625 343.674804688 c 2,65,-1
 199.7734375 346.370117188 l 1,66,-1
 210.647460938 378.703125 l 2,67,68
 211.63671875 380.5 211.63671875 380.5 212.625 384.092773438 c 128,-1,69
 213.61328125 387.684570312 213.61328125 387.684570312 216.084960938 397.116210938 c 128,-1,70
 218.556640625 406.546875 218.556640625 406.546875 217.568359375 413.732421875 c 128,-1,71
 216.580078125 420.91796875 216.580078125 420.91796875 217.568359375 430.348632812 c 128,-1,72
 218.556640625 439.779296875 218.556640625 439.779296875 219.544921875 445.168945312 c 2,73,-1
 220.534179688 450.557617188 l 1,74,-1
 220.534179688 536.783203125 l 1,75,-1
 219.544921875 566.422851562 l 2,76,77
 218.556640625 567.3203125 218.556640625 567.3203125 218.0625 568.668945312 c 128,-1,78
 217.568359375 570.015625 217.568359375 570.015625 216.084960938 579.446289062 c 128,-1,79
 214.602539062 588.876953125 214.602539062 588.876953125 215.590820312 605.043945312 c 1,80,81
 199.7734375 634.684570312 199.7734375 634.684570312 183.459960938 656.689453125 c 128,-1,82
 167.1484375 678.694335938 167.1484375 678.694335938 158.25 686.778320312 c 2,83,-1
 149.352539062 693.96484375 l 1,84,-1
 115.73828125 715.520507812 l 1,85,86
 89.044921875 717.31640625 89.044921875 717.31640625 59.38671875 722.705078125 c 1,87,88
 35.66015625 717.31640625 35.66015625 717.31640625 22.3125 710.130859375 c 128,-1,89
 8.9658203125 702.946289062 8.9658203125 702.946289062 6.98828125 697.555664062 c 2,90,-1
 5.01171875 693.06640625 l 2,91,92
 0.068359375 690.37109375 0.068359375 690.37109375 6 676 c 1,93,94
 24.7841796875 652.647460938 24.7841796875 652.647460938 24.7841796875 653.545898438 c 1,0,1
241.296875 318.525390625 m 2,95,96
 242.284179688 318.525390625 242.284179688 318.525390625 243.766601562 319.873046875 c 128,-1,97
 245.25 321.220703125 245.25 321.220703125 251.676757812 323.016601562 c 128,-1,98
 258.102539062 324.813476562 258.102539062 324.813476562 266.01171875 325.7109375 c 128,-1,99
 273.920898438 326.608398438 273.920898438 326.608398438 288.255859375 324.813476562 c 128,-1,100
 302.590820312 323.016601562 302.590820312 323.016601562 318.409179688 318.525390625 c 0,101,102
 378.716796875 296.071289062 378.716796875 296.071289062 413.318359375 279.455078125 c 128,-1,103
 447.919921875 262.838867188 447.919921875 262.838867188 452.86328125 257.450195312 c 2,104,-1
 456.817382812 252.060546875 l 2,105,106
 457.806640625 251.163085938 457.806640625 251.163085938 458.794921875 248.916992188 c 128,-1,107
 459.784179688 246.671875 459.784179688 246.671875 461.76171875 240.833007812 c 128,-1,108
 463.739257812 234.99609375 463.739257812 234.99609375 464.7265625 229.606445312 c 128,-1,109
 465.715820312 224.216796875 465.715820312 224.216796875 465.221679688 217.48046875 c 128,-1,110
 464.7265625 210.745117188 464.7265625 210.745117188 461.76171875 205.354492188 c 0,111,112
 428.147460938 129.908203125 428.147460938 129.908203125 428.147460938 129.908203125 c 2,113,114
 424.193359375 122.723632812 424.193359375 122.723632812 369.818359375 92.1845703125 c 1,115,116
 277.874023438 82.3046875 277.874023438 82.3046875 269.965820312 92.1845703125 c 0,117,118
 267 93.98046875 267 93.98046875 260.57421875 98.47265625 c 128,-1,119
 254.1484375 102.962890625 254.1484375 102.962890625 239.8125 118.681640625 c 128,-1,120
 225.4765625 134.399414062 225.4765625 134.399414062 217.568359375 153.260742188 c 0,121,122
 188.897460938 219.7265625 188.897460938 219.7265625 188.897460938 219.7265625 c 1,123,124
 184.943359375 241.282226562 184.943359375 241.282226562 188.897460938 259.245117188 c 0,125,126
 190.875 267.329101562 190.875 267.329101562 197.30078125 277.209960938 c 128,-1,127
 203.727539062 287.08984375 203.727539062 287.08984375 209.659179688 293.375976562 c 2,128,-1
 214.602539062 298.765625 l 1,129,-1
 241.296875 318.525390625 l 2,95,96
EndSplineSet
Validated: 41
EndChar

StartChar: C
Encoding: 67 67 5
Width: 570
GlyphClass: 1
Flags: W
LayerCount: 2
Fore
SplineSet
6 260 m 1,0,-1
 25.0322265625 310.140625 l 1,1,2
 40.8916015625 319.950195312 40.8916015625 319.950195312 49.3505859375 352.650390625 c 1,3,4
 62.0380859375 374.450195312 62.0380859375 374.450195312 69.9677734375 387.530273438 c 128,-1,5
 77.8974609375 400.610351562 77.8974609375 400.610351562 80.0126953125 401.700195312 c 2,6,-1
 81.0693359375 403.879882812 l 1,7,-1
 136.048828125 448.5703125 l 1,8,-1
 183.626953125 488.900390625 l 1,9,-1
 300.987304688 567.379882812 l 1,10,-1
 340.107421875 583.73046875 l 1,11,12
 362.310546875 578.280273438 362.310546875 578.280273438 382.399414062 583.73046875 c 0,13,14
 444.780273438 594.629882812 444.780273438 594.629882812 444.780273438 594.629882812 c 1,15,-1
 482.84375 593.540039062 l 1,16,-1
 498.703125 593.540039062 l 1,17,18
 524.078125 582.640625 524.078125 582.640625 527.249023438 573.919921875 c 1,19,20
 544.166992188 570.650390625 544.166992188 570.650390625 543.109375 568.470703125 c 2,21,-1
 558.96875 555.390625 l 1,22,-1
 565.3125 544.490234375 l 2,23,24
 573.770507812 534.680664062 573.770507812 534.680664062 561.083007812 524.870117188 c 0,25,26
 561.083007812 523.780273438 561.083007812 523.780273438 554.739257812 519.419921875 c 128,-1,27
 548.395507812 515.060546875 548.395507812 515.060546875 545.751953125 512.879882812 c 128,-1,28
 543.109375 510.700195312 543.109375 510.700195312 534.650390625 505.794921875 c 128,-1,29
 526.192382812 500.890625 526.192382812 500.890625 517.734375 497.075195312 c 128,-1,30
 509.276367188 493.260742188 509.276367188 493.260742188 495.530273438 487.265625 c 128,-1,31
 481.78515625 481.270507812 481.78515625 481.270507812 465.926757812 475.8203125 c 1,32,33
 444.780273438 503.0703125 444.780273438 503.0703125 444.780273438 503.0703125 c 1,34,35
 428.920898438 497.620117188 428.920898438 497.620117188 386.62890625 525.959960938 c 1,36,37
 329.534179688 520.510742188 329.534179688 520.510742188 289.885742188 507.975585938 c 128,-1,38
 250.236328125 495.440429688 250.236328125 495.440429688 238.607421875 485.629882812 c 2,39,-1
 228.034179688 475.8203125 l 1,40,-1
 154.0234375 395.16015625 l 1,41,42
 120.189453125 349.379882812 120.189453125 349.379882812 108.55859375 295.970703125 c 1,43,44
 106.444335938 264.360351562 106.444335938 264.360351562 112.258789062 230.025390625 c 128,-1,45
 118.07421875 195.690429688 118.07421875 195.690429688 125.475585938 176.0703125 c 2,46,-1
 132.876953125 157.540039062 l 2,47,48
 133.934570312 153.180664062 133.934570312 153.180664062 137.10546875 147.185546875 c 128,-1,49
 140.278320312 141.190429688 140.278320312 141.190429688 151.37890625 125.385742188 c 128,-1,50
 162.481445312 109.580078125 162.481445312 109.580078125 176.225585938 98.1357421875 c 128,-1,51
 189.970703125 86.6904296875 189.970703125 86.6904296875 213.231445312 78.515625 c 128,-1,52
 236.4921875 70.3408203125 236.4921875 70.3408203125 262.924804688 72.5205078125 c 0,53,54
 352.794921875 81.240234375 352.794921875 81.240234375 346.451171875 83.419921875 c 1,55,-1
 426.806640625 112.850585938 l 2,56,57
 428.920898438 112.850585938 428.920898438 112.850585938 432.62109375 113.940429688 c 128,-1,58
 436.321289062 115.030273438 436.321289062 115.030273438 443.723632812 115.030273438 c 128,-1,59
 451.124023438 115.030273438 451.124023438 115.030273438 454.295898438 113.395507812 c 128,-1,60
 457.467773438 111.760742188 457.467773438 111.760742188 454.295898438 105.765625 c 128,-1,61
 451.124023438 99.7705078125 451.124023438 99.7705078125 438.436523438 88.8701171875 c 2,62,-1
 373.94140625 55.080078125 l 1,63,-1
 307.331054688 27.830078125 l 2,64,65
 305.216796875 25.650390625 305.216796875 25.650390625 299.401367188 24.015625 c 128,-1,66
 293.586914062 22.3798828125 293.586914062 22.3798828125 275.612304688 19.1103515625 c 128,-1,67
 257.637695312 15.8408203125 257.637695312 15.8408203125 238.607421875 15.8408203125 c 0,68,69
 232.263671875 14.75 232.263671875 14.75 219.046875 10.390625 c 128,-1,70
 205.831054688 6.0302734375 205.831054688 6.0302734375 197.372070312 4.3955078125 c 128,-1,71
 188.9140625 2.7607421875 188.9140625 2.7607421875 169.353515625 3.8505859375 c 128,-1,72
 149.793945312 4.9404296875 149.793945312 4.9404296875 123.361328125 11.48046875 c 0,73,74
 99.04296875 21.2900390625 99.04296875 21.2900390625 77.3681640625 41.455078125 c 128,-1,75
 55.6943359375 61.6201171875 55.6943359375 61.6201171875 45.12109375 76.8798828125 c 2,76,-1
 34.5478515625 92.140625 l 2,77,78
 31.3759765625 99.7705078125 31.3759765625 99.7705078125 26.0888671875 111.760742188 c 128,-1,79
 20.8037109375 123.75 20.8037109375 123.75 12.873046875 149.91015625 c 128,-1,80
 4.943359375 176.0703125 4.943359375 176.0703125 8.115234375 190.240234375 c 1,81,82
 3.8857421875 210.950195312 3.8857421875 210.950195312 3.8857421875 228.390625 c 128,-1,83
 3.8857421875 245.830078125 3.8857421875 245.830078125 4.943359375 253.459960938 c 2,84,-1
 6 260 l 1,0,-1
EndSplineSet
Validated: 33
EndChar

StartChar: D
Encoding: 68 68 6
Width: 600
GlyphClass: 1
Flags: W
LayerCount: 2
Fore
SplineSet
4.822265625 404.1328125 m 1,0,-1
 28.41796875 516.879882812 l 1,1,2
 40.2724609375 540.032226562 40.2724609375 540.032226562 42.0712890625 564.452148438 c 1,3,4
 48.6865234375 579.890625 48.6865234375 579.890625 54.3251953125 591.038085938 c 128,-1,5
 59.9609375 602.190429688 59.9609375 602.190429688 62.291015625 605.620117188 c 2,6,-1
 64.62109375 609.05078125 l 1,7,8
 77.048828125 614.575195312 77.048828125 614.575195312 91.0009765625 614.973632812 c 2,9,-1
 353.23046875 615.364257812 l 1,10,-1
 433.501953125 612.208984375 l 1,11,-1
 513.422851562 612.045898438 l 2,12,13
 533.217773438 611.145507812 533.217773438 611.145507812 545.310546875 580.23046875 c 1,14,15
 553.744140625 572.290039062 553.744140625 572.290039062 559.602539062 564.618164062 c 128,-1,16
 565.4609375 556.942382812 565.4609375 556.942382812 567.10546875 553.237304688 c 2,17,-1
 568.748046875 549.532226562 l 2,18,19
 572.310546875 542.478515625 572.310546875 542.478515625 577.303710938 529.703125 c 128,-1,20
 582.293945312 516.930664062 582.293945312 516.930664062 588.494140625 478.245117188 c 128,-1,21
 594.692382812 439.561523438 594.692382812 439.561523438 589.983398438 401.849609375 c 1,22,23
 595.064453125 260.967773438 595.064453125 260.967773438 588.62890625 239.241210938 c 0,24,25
 586.625 228.892578125 586.625 228.892578125 581.326171875 211.625 c 128,-1,26
 576.028320312 194.358398438 576.028320312 194.358398438 571.73046875 182.265625 c 2,27,-1
 567.435546875 170.173828125 l 1,28,29
 560.1953125 165.348632812 560.1953125 165.348632812 547.591796875 119.653320312 c 1,30,-1
 504.075195312 40.7197265625 l 2,31,32
 495.227539062 16.2392578125 495.227539062 16.2392578125 467.772460938 9.5390625 c 0,33,34
 467.052734375 9.5048828125 467.052734375 9.5048828125 438 7 c 128,-1,35
 408.947265625 4.4970703125 408.947265625 4.4970703125 393.73828125 4.642578125 c 128,-1,36
 378.52734375 4.7890625 378.52734375 4.7890625 354.897460938 10.5771484375 c 128,-1,37
 331.266601562 16.3642578125 331.266601562 16.3642578125 317.380859375 29.2744140625 c 0,38,39
 301.146484375 51.5517578125 301.146484375 51.5517578125 290.098632812 67.9306640625 c 128,-1,40
 279.05078125 84.3095703125 279.05078125 84.3095703125 276.118164062 89.5517578125 c 2,41,-1
 273.185546875 94.7890625 l 2,42,43
 272.279296875 96.0810546875 272.279296875 96.0810546875 271.215820312 99.2763671875 c 128,-1,44
 270.153320312 102.475585938 270.153320312 102.475585938 268.243164062 115.432617188 c 128,-1,45
 266.333984375 128.38671875 266.333984375 128.38671875 268.676757812 147.283203125 c 0,46,47
 266.774414062 169.3828125 266.774414062 169.3828125 266.153320312 188.822265625 c 128,-1,48
 265.533203125 208.259765625 265.533203125 208.259765625 265.864257812 216.646484375 c 2,49,-1
 266.198242188 225.030273438 l 2,50,51
 270.291992188 289.079101562 270.291992188 289.079101562 289.419921875 345.012695312 c 0,52,53
 295.633789062 370.274414062 295.633789062 370.274414062 308.260742188 405.893554688 c 128,-1,54
 320.88671875 441.510742188 320.88671875 441.510742188 330.408203125 464.500976562 c 2,55,-1
 339.927734375 487.493164062 l 1,56,57
 339.927734375 487.493164062 339.927734375 487.493164062 350.55859375 508.700195312 c 0,58,59
 359.736328125 538.749023438 359.736328125 538.749023438 319.946289062 533.434570312 c 0,60,61
 317.096679688 533.0546875 317.096679688 533.0546875 313.997070312 532.485351562 c 2,62,-1
 238.235351562 523.40625 l 2,63,64
 237.6484375 522.833984375 237.6484375 522.833984375 235.506835938 522.22265625 c 128,-1,65
 233.364257812 521.614257812 233.364257812 521.614257812 223.307617188 520.778320312 c 128,-1,66
 213.247070312 519.939453125 213.247070312 519.939453125 195.623046875 522.223632812 c 1,67,68
 176.681640625 505.383789062 176.681640625 505.383789062 159.432617188 497.490234375 c 128,-1,69
 142.184570312 489.598632812 142.184570312 489.598632812 134.40625 490.123046875 c 2,70,-1
 126.626953125 490.649414062 l 2,71,72
 72.9404296875 501.250976562 72.9404296875 501.250976562 61.689453125 473.67578125 c 2,73,-1
 45.23046875 426.318359375 l 1,74,-1
 37.111328125 401.451171875 l 1,75,-1
 22.23046875 380.928710938 l 1,76,77
 9.1435546875 382.921875 9.1435546875 382.921875 4.1923828125 392.376953125 c 1,78,-1
 4.822265625 404.1328125 l 1,0,-1
448.43359375 495.575195312 m 2,79,80
 447.087890625 497.912109375 447.087890625 497.912109375 435.950195312 500.418945312 c 0,81,82
 431.98046875 501.225585938 431.98046875 501.225585938 426.138671875 498.53515625 c 128,-1,83
 420.297851562 495.842773438 420.297851562 495.842773438 416.440429688 492.749023438 c 2,84,-1
 412.583007812 489.65234375 l 2,85,86
 396.76953125 481.337890625 396.76953125 481.337890625 381.690429688 466.3671875 c 0,87,88
 374.778320312 466.017578125 374.778320312 466.017578125 365.083007812 451.01953125 c 128,-1,89
 355.387695312 436.022460938 355.387695312 436.022460938 349.149414062 421.201171875 c 2,90,-1
 342.91015625 406.379882812 l 1,91,-1
 327.126953125 362.569335938 l 1,92,93
 314.491210938 307.259765625 314.491210938 307.259765625 310.44140625 280.083984375 c 0,94,95
 307.934570312 270.259765625 307.934570312 270.259765625 306.6953125 257.232421875 c 128,-1,96
 305.456054688 244.208007812 305.456054688 244.208007812 305.467773438 236.098632812 c 2,97,-1
 305.481445312 227.984375 l 2,98,99
 307.29296875 183.66015625 307.29296875 183.66015625 311.793945312 121.032226562 c 0,100,101
 312.155273438 120.053710938 312.155273438 120.053710938 315.1171875 110.849609375 c 128,-1,102
 318.078125 101.64453125 318.078125 101.64453125 319.970703125 98.1640625 c 128,-1,103
 321.86328125 94.6865234375 321.86328125 94.6865234375 328.364257812 86.5029296875 c 128,-1,104
 334.86328125 78.3203125 334.86328125 78.3203125 344.71484375 70.1181640625 c 0,105,106
 357.842773438 61.1708984375 357.842773438 61.1708984375 372.385742188 57.51953125 c 128,-1,107
 386.927734375 53.869140625 386.927734375 53.869140625 394.907226562 54.6904296875 c 2,108,-1
 402.88671875 55.5126953125 l 2,109,110
 418.75 55.9287109375 418.75 55.9287109375 459.255859375 67.7470703125 c 1,111,112
 475.290039062 61.9580078125 475.290039062 61.9580078125 488.368164062 68.076171875 c 128,-1,113
 501.444335938 74.193359375 501.444335938 74.193359375 506.506835938 83.2041015625 c 2,114,-1
 511.567382812 92.216796875 l 2,115,116
 529.416015625 119.524414062 529.416015625 119.524414062 547.192382812 157.732421875 c 0,117,118
 557.514648438 181.061523438 557.514648438 181.061523438 561.008789062 206.124023438 c 128,-1,119
 564.504882812 231.18359375 564.504882812 231.18359375 562.836914062 244.584960938 c 2,120,-1
 561.170898438 257.981445312 l 1,121,-1
 554.408203125 312.444335938 l 1,122,-1
 537.947265625 408.74609375 l 2,123,124
 531.362304688 436.424804688 531.362304688 436.424804688 506.83203125 462.815429688 c 1,125,-1
 448.43359375 495.575195312 l 2,79,80
EndSplineSet
Validated: 33
EndChar

StartChar: E
Encoding: 69 69 7
Width: 577
GlyphClass: 1
Flags: W
LayerCount: 2
Fore
SplineSet
193.278320312 570.505859375 m 5,0,1
 193.278320312 570.505859375 193.278320312 570.505859375 189.978515625 568.506835938 c 6,2,3
 180.487304688 566.038085938 180.487304688 566.038085938 171.963867188 556.063476562 c 6,4,5
 171.963867188 556.063476562 171.963867188 556.063476562 163.372070312 544.305664062 c 134,-1,6
 154.778320312 532.551757812 154.778320312 532.551757812 138.348632812 506.401367188 c 132,-1,7
 121.919921875 480.25 121.919921875 480.25 106.244140625 451.461914062 c 5,8,9
 97.7900390625 427.443359375 97.7900390625 427.443359375 97.4921875 411.28515625 c 132,-1,10
 97.1953125 395.126953125 97.1953125 395.126953125 101.580078125 388.911132812 c 132,-1,11
 105.963867188 382.694335938 105.963867188 382.694335938 113.780273438 380.47265625 c 132,-1,12
 121.596679688 378.252929688 121.596679688 378.252929688 125.115234375 378.6875 c 132,-1,13
 128.631835938 379.124023438 128.631835938 379.124023438 130.856445312 379.685546875 c 6,14,15
 130.856445312 379.685546875 130.856445312 379.685546875 170.440429688 381.873046875 c 5,16,-1
 194.975585938 382.188476562 l 6,17,18
 219.510742188 382.506835938 219.510742188 382.506835938 253.069335938 384.474609375 c 132,-1,19
 286.625976562 386.443359375 286.625976562 386.443359375 304.670898438 389.751953125 c 4,20,21
 314.26171875 395.265625 314.26171875 395.265625 317.205078125 407.364257812 c 132,-1,22
 320.149414062 419.463867188 320.149414062 419.463867188 318.353515625 431.118164062 c 132,-1,23
 316.557617188 442.771484375 316.557617188 442.771484375 311.84765625 456.663085938 c 132,-1,24
 307.13671875 470.5546875 307.13671875 470.5546875 304.7734375 475.688476562 c 132,-1,25
 302.409179688 480.823242188 302.409179688 480.823242188 300.864257812 483.84765625 c 6,26,27
 300.864257812 483.84765625 300.864257812 483.84765625 296.2265625 494.084960938 c 134,-1,28
 291.588867188 504.3203125 291.588867188 504.3203125 280.805664062 522.046875 c 132,-1,29
 270.021484375 539.772460938 270.021484375 539.772460938 257.728515625 554.75 c 4,30,31
 228.352539062 582.706054688 228.352539062 582.706054688 193.278320312 570.505859375 c 5,0,1
58.8740234375 458.87109375 m 5,32,-1
 168.4921875 631.310546875 l 5,33,34
 195.962890625 612.974609375 195.962890625 612.974609375 229.389648438 637.439453125 c 5,35,36
 246.53125 638.60546875 246.53125 638.60546875 260.233398438 635.978515625 c 132,-1,37
 273.935546875 633.353515625 273.935546875 633.353515625 279.067382812 630.143554688 c 6,38,-1
 284.197265625 626.93359375 l 6,39,40
 287.498046875 624.40234375 287.498046875 624.40234375 293.01171875 619.729492188 c 132,-1,41
 298.5234375 615.053710938 298.5234375 615.053710938 312.850585938 599.939453125 c 132,-1,42
 327.178710938 584.826171875 327.178710938 584.826171875 338.44921875 568.987304688 c 132,-1,43
 349.719726562 553.1484375 349.719726562 553.1484375 359.750976562 529.662109375 c 132,-1,44
 369.782226562 506.174804688 369.782226562 506.174804688 371.486328125 483.379882812 c 4,45,46
 373.966796875 465.484375 373.966796875 465.484375 374.85546875 449.94921875 c 132,-1,47
 375.743164062 434.411132812 375.743164062 434.411132812 375.391601562 427.821289062 c 6,48,-1
 375.038085938 421.232421875 l 6,49,50
 375.697265625 421.009765625 375.697265625 421.009765625 374.860351562 416.745117188 c 132,-1,51
 374.0234375 412.478515625 374.0234375 412.478515625 376.045898438 406.331054688 c 132,-1,52
 378.06640625 400.18359375 378.06640625 400.18359375 381.177734375 394.575195312 c 132,-1,53
 384.287109375 388.96484375 384.287109375 388.96484375 392.837890625 386.051757812 c 132,-1,54
 401.388671875 383.13671875 401.388671875 383.13671875 413.608398438 385.344726562 c 6,55,-1
 553.673828125 398.473632812 l 5,56,-1
 571.689453125 401.100585938 l 5,57,58
 575.732421875 393.649414062 575.732421875 393.649414062 567.123046875 387.534179688 c 6,59,-1
 539.46484375 365.211914062 l 6,60,61
 538.577148438 364.770507812 538.577148438 364.770507812 536.344726562 364.271484375 c 132,-1,62
 534.111328125 363.772460938 534.111328125 363.772460938 524.990234375 362.944335938 c 132,-1,63
 515.872070312 362.112304688 515.872070312 362.112304688 502.416992188 363.4609375 c 6,64,-1
 413.861328125 353.833984375 l 5,65,-1
 310.734375 347.149414062 l 5,66,-1
 249.729492188 344.672851562 l 5,67,-1
 196.62109375 341.579101562 l 6,68,69
 195.6875 339.432617188 195.6875 339.432617188 192.966796875 337.0625 c 132,-1,70
 190.244140625 334.692382812 190.244140625 334.692382812 178.38671875 331.034179688 c 132,-1,71
 166.528320312 327.375 166.528320312 327.375 147.459960938 334.771484375 c 5,72,-1
 75.689453125 313.106445312 l 6,73,74
 74.7724609375 312.999023438 74.7724609375 312.999023438 73.3193359375 312.237304688 c 132,-1,75
 71.8671875 311.475585938 71.8671875 311.475585938 68.62890625 305.62890625 c 132,-1,76
 65.3916015625 299.783203125 65.3916015625 299.783203125 63.5595703125 290.034179688 c 132,-1,77
 61.7275390625 280.284179688 61.7275390625 280.284179688 61.796875 259.361328125 c 132,-1,78
 61.8671875 238.4375 61.8671875 238.4375 65.283203125 210.360351562 c 4,79,80
 67.67578125 186.154296875 67.67578125 186.154296875 72.69921875 166.0390625 c 132,-1,81
 77.7216796875 145.921875 77.7216796875 145.921875 81.5498046875 137.912109375 c 6,82,-1
 85.37890625 129.899414062 l 6,83,84
 88.521484375 124.21484375 88.521484375 124.21484375 94.2080078125 115.859375 c 132,-1,85
 99.8955078125 107.500976562 99.8955078125 107.500976562 117.09765625 94.01171875 c 132,-1,86
 134.30078125 80.51953125 134.30078125 80.51953125 151.046875 81.62109375 c 6,87,-1
 197.697265625 87.19140625 l 5,88,-1
 231.966796875 93.0703125 l 5,89,90
 231.966796875 93.0703125 231.966796875 93.0703125 237.81640625 90.228515625 c 5,91,92
 243.1953125 78.8427734375 243.1953125 78.8427734375 220.483398438 33.0341796875 c 5,93,-1
 153.916992188 12.2978515625 l 6,94,95
 150.375 10.7412109375 150.375 10.7412109375 144.415039062 8.94140625 c 132,-1,96
 138.456054688 7.1396484375 138.456054688 7.1396484375 120 4 c 132,-1,97
 101.543945312 0.8603515625 101.543945312 0.8603515625 86.8134765625 5.1806640625 c 5,98,-1
 47.87890625 37.0546875 l 6,99,100
 31.365234375 50.4111328125 31.365234375 50.4111328125 27.6044921875 75.1220703125 c 4,101,102
 25.0419921875 81.87890625 25.0419921875 81.87890625 22.638671875 89.7861328125 c 132,-1,103
 20.236328125 97.6904296875 20.236328125 97.6904296875 18.638671875 104.146484375 c 132,-1,104
 17.0390625 110.599609375 17.0390625 110.599609375 15.806640625 116.087890625 c 132,-1,105
 14.5732421875 121.578125 14.5732421875 121.578125 14.001953125 124.653320312 c 6,106,-1
 13.4296875 127.733398438 l 6,107,108
 12.0234375 132.1484375 12.0234375 132.1484375 10.4326171875 140.614257812 c 132,-1,109
 8.8388671875 149.08203125 8.8388671875 149.08203125 6.2001953125 178.393554688 c 132,-1,110
 3.55859375 207.706054688 3.55859375 207.706054688 7.8671875 239.760742188 c 4,111,112
 7.88671875 244.0703125 7.88671875 244.0703125 7.76171875 256.40234375 c 132,-1,113
 7.6357421875 268.733398438 7.6357421875 268.733398438 7.845703125 272.520507812 c 132,-1,114
 8.0556640625 276.307617188 8.0556640625 276.307617188 9.1083984375 288.28125 c 132,-1,115
 10.1611328125 300.255859375 10.1611328125 300.255859375 12.41796875 311.251953125 c 132,-1,116
 14.671875 322.24609375 14.671875 322.24609375 18.76953125 341.1015625 c 132,-1,117
 22.8662109375 359.95703125 22.8662109375 359.95703125 29.0390625 384.90625 c 5,118,-1
 58.8740234375 458.87109375 l 5,32,-1
EndSplineSet
Validated: 33
EndChar

StartChar: F
Encoding: 70 70 8
Width: 484
GlyphClass: 1
Flags: W
LayerCount: 2
Fore
SplineSet
1.0615234375 625.063476562 m 1,0,1
 41.0517578125 652.26171875 41.0517578125 652.26171875 46.9345703125 663.59375 c 1,2,3
 55.16796875 669.258789062 55.16796875 669.258789062 68.1064453125 670.959960938 c 128,-1,4
 81.044921875 672.659179688 81.044921875 672.659179688 89.2783203125 671.526367188 c 2,5,-1
 97.51171875 670.393554688 l 1,6,7
 106.919921875 653.39453125 106.919921875 653.39453125 141.032226562 637.529296875 c 1,8,9
 152.793945312 626.19921875 152.793945312 626.19921875 162.204101562 605.801757812 c 128,-1,10
 171.61328125 585.403320312 171.61328125 585.403320312 175.142578125 569.538085938 c 2,11,-1
 178.670898438 554.807617188 l 1,12,-1
 178.670898438 487.948242188 l 2,13,14
 179.845703125 483.415039062 179.845703125 483.415039062 184.551757812 489.08203125 c 0,15,16
 185.728515625 492.481445312 185.728515625 492.481445312 188.079101562 494.747070312 c 128,-1,17
 190.432617188 497.012695312 190.432617188 497.012695312 191.609375 497.012695312 c 2,18,-1
 192.78515625 497.012695312 l 1,19,-1
 218.661132812 506.079101562 l 1,20,-1
 389.21484375 657.926757812 l 2,21,22
 399.799804688 668.125976562 399.799804688 668.125976562 411.5625 656.794921875 c 4,23,24
 417.443359375 653.39453125 417.443359375 653.39453125 422.735351562 648.295898438 c 128,-1,25
 428.028320312 643.196289062 428.028320312 643.196289062 431.557617188 639.795898438 c 2,26,-1
 433.91015625 636.397460938 l 1,27,-1
 443.319335938 613.732421875 l 1,28,-1
 456.2578125 591.069335938 l 1,29,-1
 462.139648438 583.135742188 l 1,30,-1
 465.66796875 572.936523438 l 1,31,-1
 477.4296875 548.0078125 l 1,32,-1
 480.958984375 533.275390625 l 1,33,-1
 460.962890625 519.677734375 l 2,34,35
 442.143554688 510.611328125 442.143554688 510.611328125 422.147460938 489.08203125 c 0,36,37
 416.266601562 484.548828125 416.266601562 484.548828125 410.38671875 483.415039062 c 128,-1,38
 404.504882812 482.28125 404.504882812 482.28125 400.975585938 483.415039062 c 2,39,-1
 397.447265625 484.548828125 l 1,40,-1
 392.7421875 503.8125 l 1,41,-1
 383.33203125 524.208984375 l 1,42,-1
 369.217773438 546.875 l 1,43,-1
 357.455078125 563.87109375 l 1,44,-1
 349.221679688 576.337890625 l 2,45,46
 349.221679688 577.471679688 349.221679688 577.471679688 348.633789062 578.604492188 c 128,-1,47
 348.045898438 579.737304688 348.045898438 579.737304688 345.694335938 581.435546875 c 128,-1,48
 343.340820312 583.135742188 343.340820312 583.135742188 340.98828125 583.135742188 c 128,-1,49
 338.63671875 583.135742188 338.63671875 583.135742188 335.107421875 579.737304688 c 128,-1,50
 331.579101562 576.337890625 331.579101562 576.337890625 328.049804688 569.538085938 c 0,51,52
 323.345703125 561.60546875 323.345703125 561.60546875 318.639648438 557.639648438 c 128,-1,53
 313.935546875 553.672851562 313.935546875 553.672851562 311.583007812 552.5390625 c 2,54,-1
 309.231445312 552.5390625 l 1,55,-1
 292.764648438 532.141601562 l 1,56,-1
 264.53515625 511.744140625 l 1,57,-1
 249.244140625 497.012695312 l 1,58,-1
 232.776367188 478.8828125 l 1,59,-1
 209.251953125 459.6171875 l 1,60,-1
 184.551757812 439.21875 l 1,61,62
 176.318359375 439.21875 176.318359375 439.21875 173.96484375 419.956054688 c 0,63,64
 171.61328125 364.4296875 171.61328125 364.4296875 171.61328125 364.4296875 c 1,65,-1
 166.907226562 280.573242188 l 1,66,-1
 162.204101562 214.846679688 l 1,67,-1
 155.146484375 166.119140625 l 1,68,-1
 159.850585938 116.2578125 l 1,69,-1
 159.850585938 62.9970703125 l 1,70,-1
 250.419921875 61.8642578125 l 2,71,72
 255.124023438 64.130859375 255.124023438 64.130859375 263.946289062 66.396484375 c 128,-1,73
 272.768554688 68.6650390625 272.768554688 68.6650390625 295.1171875 72.0625 c 128,-1,74
 317.463867188 75.4619140625 317.463867188 75.4619140625 332.754882812 73.1962890625 c 0,75,76
 412.737304688 82.2626953125 412.737304688 82.2626953125 412.737304688 82.2626953125 c 2,77,78
 413.9140625 81.1298828125 413.9140625 81.1298828125 415.677734375 80.5625 c 128,-1,79
 417.443359375 79.99609375 417.443359375 79.99609375 421.559570312 76.5966796875 c 128,-1,80
 425.676757812 73.1962890625 425.676757812 73.1962890625 427.44140625 69.2314453125 c 128,-1,81
 429.205078125 65.263671875 429.205078125 65.263671875 426.852539062 59.0322265625 c 128,-1,82
 424.5 52.7998046875 424.5 52.7998046875 416.266601562 44.8662109375 c 0,83,84
 373.923828125 10.87109375 373.923828125 10.87109375 373.923828125 10.87109375 c 2,85,86
 372.74609375 9.73828125 372.74609375 9.73828125 370.393554688 8.0380859375 c 128,-1,87
 368.041992188 6.337890625 368.041992188 6.337890625 358.6328125 4.0712890625 c 128,-1,88
 349.221679688 1.8046875 349.221679688 1.8046875 333.930664062 7.470703125 c 0,89,90
 316.2890625 10.87109375 316.2890625 10.87109375 316.2890625 10.87109375 c 1,91,-1
 296.291992188 9.73828125 l 1,92,-1
 271.592773438 10.87109375 l 1,93,-1
 238.657226562 9.73828125 l 1,94,95
 231.599609375 2.9375 231.599609375 2.9375 197.490234375 0.671875 c 1,96,97
 156.322265625 -11.79296875 156.322265625 -11.79296875 156.322265625 -11.79296875 c 1,98,-1
 152.793945312 -51.455078125 l 1,99,-1
 151.6171875 -85.4501953125 l 2,100,101
 146.913085938 -93.3828125 146.913085938 -93.3828125 146.913085938 -106.983398438 c 1,102,103
 141.032226562 -114.913085938 141.032226562 -114.913085938 141.032226562 -114.913085938 c 1,104,-1
 139.85546875 -125.11328125 l 1,105,-1
 119.859375 -145.509765625 l 1,106,-1
 106.919921875 -153.442382812 l 1,107,-1
 82.220703125 -167.041992188 l 1,108,-1
 64.5771484375 -171.57421875 l 2,109,110
 63.400390625 -171.57421875 63.400390625 -171.57421875 62.8125 -171.57421875 c 128,-1,111
 62.224609375 -171.57421875 62.224609375 -171.57421875 60.4599609375 -168.7421875 c 128,-1,112
 58.6962890625 -165.908203125 58.6962890625 -165.908203125 62.224609375 -160.2421875 c 0,113,114
 66.9296875 -128.512695312 66.9296875 -128.512695312 66.9296875 -128.512695312 c 1,115,-1
 70.45703125 -78.65234375 l 1,116,-1
 75.1630859375 -4.9951171875 l 1,117,-1
 76.33984375 81.1298828125 l 1,118,-1
 76.33984375 144.587890625 l 1,119,-1
 83.3974609375 208.046875 l 1,120,-1
 84.572265625 243.176757812 l 1,121,-1
 90.4541015625 364.4296875 l 1,122,-1
 90.4541015625 393.892578125 l 1,123,-1
 95.1591796875 453.952148438 l 1,124,-1
 96.3349609375 509.479492188 l 1,125,126
 86.92578125 542.340820312 86.92578125 542.340820312 98.6875 565.005859375 c 0,127,128
 97.51171875 571.803710938 97.51171875 571.803710938 95.1591796875 577.471679688 c 128,-1,129
 92.8056640625 583.135742188 92.8056640625 583.135742188 90.4541015625 585.403320312 c 2,130,-1
 89.2783203125 586.537109375 l 1,131,-1
 70.45703125 618.266601562 l 2,132,133
 70.45703125 619.399414062 70.45703125 619.399414062 68.693359375 619.965820312 c 128,-1,134
 66.9296875 620.532226562 66.9296875 620.532226562 61.63671875 622.232421875 c 128,-1,135
 56.3427734375 623.931640625 56.3427734375 623.931640625 50.462890625 619.399414062 c 1,136,137
 28.1142578125 620.532226562 28.1142578125 620.532226562 28.1142578125 620.532226562 c 1,138,-1
 14 616 l 1,139,-1
 3.4140625 617.1328125 l 1,140,141
 3.4140625 617.1328125 3.4140625 617.1328125 1.0615234375 622.799804688 c 0,142,143
 1.0615234375 625.063476562 1.0615234375 625.063476562 1.0615234375 625.063476562 c 1,0,1
EndSplineSet
Validated: 33
EndChar

StartChar: G
Encoding: 71 71 9
Width: 700
GlyphClass: 1
Flags: W
LayerCount: 2
Fore
SplineSet
26.2275390625 493.993164062 m 1,0,-1
 184.971679688 517.131835938 l 1,1,-1
 312.951171875 527.416015625 l 1,2,-1
 402.783203125 535.12890625 l 1,3,-1
 448.314453125 528.702148438 l 1,4,-1
 477.84765625 526.130859375 l 1,5,-1
 520.916992188 528.702148438 l 1,6,-1
 635.360351562 537.69921875 l 1,7,-1
 666.124023438 535.12890625 l 1,8,-1
 685.814453125 531.272460938 l 1,9,-1
 696.888671875 524.844726562 l 1,10,-1
 698.119140625 502.991210938 l 1,11,-1
 675.969726562 465.711914062 l 1,12,13
 675.969726562 465.711914062 675.969726562 465.711914062 659.971679688 464.426757812 c 1,14,15
 646.435546875 470.854492188 646.435546875 470.854492188 646.435546875 470.854492188 c 1,16,-1
 636.591796875 472.139648438 l 1,17,-1
 616.901367188 466.998046875 l 1,18,-1
 608.2890625 464.426757812 l 1,19,-1
 592.290039062 449 l 1,20,-1
 571.37109375 437.430664062 l 1,21,-1
 563.987304688 434.859375 l 1,22,-1
 535.68359375 434.859375 l 1,23,-1
 504.919921875 438.716796875 l 1,24,-1
 474.15625 436.14453125 l 2,25,26
 469.233398438 437.430664062 469.233398438 437.430664062 460.00390625 436.14453125 c 128,-1,27
 450.774414062 434.859375 450.774414062 434.859375 421.241210938 422.004882812 c 128,-1,28
 391.708007812 409.149414062 391.708007812 409.149414062 360.943359375 382.154296875 c 0,29,30
 335.1015625 359.014648438 335.1015625 359.014648438 317.873046875 341.017578125 c 128,-1,31
 300.646484375 323.021484375 300.646484375 323.021484375 296.953125 317.879882812 c 2,32,-1
 293.26171875 311.452148438 l 2,33,34
 293.26171875 310.166015625 293.26171875 310.166015625 292.032226562 308.23828125 c 128,-1,35
 290.799804688 306.309570312 290.799804688 306.309570312 290.185546875 301.810546875 c 128,-1,36
 289.5703125 297.311523438 289.5703125 297.311523438 290.799804688 293.454101562 c 128,-1,37
 292.032226562 289.598632812 292.032226562 289.598632812 296.337890625 285.098632812 c 128,-1,38
 300.646484375 280.599609375 300.646484375 280.599609375 309.259765625 278.028320312 c 0,39,40
 326.487304688 274.170898438 326.487304688 274.170898438 356.635742188 273.529296875 c 128,-1,41
 386.786132812 272.88671875 386.786132812 272.88671875 407.704101562 275.45703125 c 2,42,-1
 428.625 276.744140625 l 1,43,-1
 507.380859375 281.884765625 l 1,44,-1
 528.301757812 281.884765625 l 2,45,46
 563.987304688 283.170898438 563.987304688 283.170898438 577.524414062 254.889648438 c 1,47,48
 591.060546875 243.319335938 591.060546875 243.319335938 602.135742188 229.822265625 c 128,-1,49
 613.209960938 216.32421875 613.209960938 216.32421875 618.1328125 208.610351562 c 2,50,-1
 623.0546875 200.899414062 l 1,51,-1
 645.206054688 167.475585938 l 2,52,53
 646.435546875 166.189453125 646.435546875 166.189453125 648.282226562 162.333984375 c 128,-1,54
 650.126953125 158.4765625 650.126953125 158.4765625 651.973632812 148.8359375 c 128,-1,55
 653.819335938 139.194335938 653.819335938 139.194335938 651.358398438 130.196289062 c 0,56,57
 653.819335938 121.197265625 653.819335938 121.197265625 652.587890625 114.768554688 c 128,-1,58
 651.358398438 108.340820312 651.358398438 108.340820312 650.126953125 105.771484375 c 2,59,-1
 648.896484375 103.200195312 l 1,60,-1
 647.666015625 85.2041015625 l 2,61,62
 646.435546875 83.91796875 646.435546875 83.91796875 645.206054688 81.345703125 c 128,-1,63
 643.973632812 78.7763671875 643.973632812 78.7763671875 642.12890625 68.4921875 c 128,-1,64
 640.283203125 58.208984375 640.283203125 58.208984375 641.512695312 47.923828125 c 0,65,66
 636.591796875 35.068359375 636.591796875 35.068359375 631.668945312 26.0703125 c 128,-1,67
 626.747070312 17.072265625 626.747070312 17.072265625 624.28515625 13.2158203125 c 2,68,-1
 621.825195312 10.6435546875 l 1,69,-1
 602.135742188 -38.2041015625 l 1,70,71
 587.368164062 -51.060546875 587.368164062 -51.060546875 581.215820312 -70.341796875 c 0,72,73
 575.0625 -79.341796875 575.0625 -79.341796875 568.294921875 -87.0537109375 c 128,-1,74
 561.525390625 -94.7666015625 561.525390625 -94.7666015625 557.833984375 -98.6240234375 c 2,75,-1
 554.143554688 -101.194335938 l 1,76,-1
 538.145507812 -117.90625 l 1,77,-1
 527.0703125 -133.33203125 l 1,78,-1
 497.537109375 -150.043945312 l 1,79,-1
 464.311523438 -164.18359375 l 1,80,-1
 420.010742188 -183.467773438 l 1,81,-1
 360.943359375 -187.323242188 l 1,82,-1
 320.334960938 -196.322265625 l 1,83,-1
 268.651367188 -196.322265625 l 1,84,-1
 240.34765625 -191.178710938 l 1,85,-1
 218.197265625 -179.610351562 l 1,86,-1
 168.975585938 -166.754882812 l 1,87,-1
 148.0546875 -157.756835938 l 1,88,-1
 125.904296875 -120.4765625 l 1,89,-1
 116.060546875 -103.766601562 l 1,90,-1
 103.754882812 -93.4814453125 l 2,91,92
 101.293945312 -88.3388671875 101.293945312 -88.3388671875 107.446289062 -74.19921875 c 0,93,94
 113.598632812 -65.201171875 113.598632812 -65.201171875 118.520507812 -59.416015625 c 128,-1,95
 123.443359375 -53.630859375 123.443359375 -53.630859375 124.673828125 -53.630859375 c 2,96,-1
 127.134765625 -53.630859375 l 1,97,-1
 135.749023438 -34.349609375 l 1,98,-1
 150.515625 -21.4931640625 l 1,99,-1
 164.051757812 -12.4951171875 l 1,100,-1
 188.663085938 -6.0673828125 l 1,101,-1
 202.200195312 -2.2119140625 l 1,102,-1
 220.659179688 -0.92578125 l 1,103,-1
 239.1171875 -0.92578125 l 2,104,105
 240.34765625 -2.2119140625 240.34765625 -2.2119140625 241.578125 -2.853515625 c 128,-1,106
 242.809570312 -3.4951171875 242.809570312 -3.4951171875 245.26953125 -6.0673828125 c 128,-1,107
 247.73046875 -8.638671875 247.73046875 -8.638671875 246.500976562 -12.4951171875 c 0,108,109
 220.659179688 -57.4873046875 220.659179688 -57.4873046875 220.659179688 -57.4873046875 c 1,110,-1
 208.352539062 -67.771484375 l 1,111,-1
 204.66015625 -71.62890625 l 1,112,-1
 205.892578125 -88.3388671875 l 1,113,114
 205.892578125 -88.3388671875 205.892578125 -88.3388671875 218.197265625 -90.9111328125 c 0,115,116
 225.580078125 -90.9111328125 225.580078125 -90.9111328125 236.655273438 -94.125 c 128,-1,117
 247.73046875 -97.337890625 247.73046875 -97.337890625 255.115234375 -101.194335938 c 2,118,-1
 263.728515625 -103.766601562 l 1,119,-1
 285.87890625 -112.764648438 l 1,120,-1
 295.723632812 -116.62109375 l 1,121,-1
 305.567382812 -120.4765625 l 1,122,-1
 322.795898438 -120.4765625 l 1,123,-1
 399.090820312 -117.90625 l 1,124,-1
 444.62109375 -112.764648438 l 1,125,-1
 475.385742188 -102.479492188 l 1,126,-1
 507.380859375 -88.3388671875 l 1,127,-1
 529.53125 -71.62890625 l 1,128,-1
 543.067382812 -52.345703125 l 1,129,-1
 563.987304688 -20.2080078125 l 1,130,-1
 573.83203125 1.646484375 l 1,131,-1
 584.907226562 29.9267578125 l 1,132,-1
 588.598632812 82.6318359375 l 2,133,134
 588.598632812 85.2041015625 588.598632812 85.2041015625 587.984375 91.630859375 c 128,-1,135
 587.368164062 98.0576171875 587.368164062 98.0576171875 581.830078125 115.413085938 c 128,-1,136
 576.29296875 132.766601562 576.29296875 132.766601562 567.063476562 148.193359375 c 128,-1,137
 557.833984375 163.618164062 557.833984375 163.618164062 539.991210938 180.331054688 c 128,-1,138
 522.1484375 197.041992188 522.1484375 197.041992188 497.537109375 206.041015625 c 0,139,140
 485.231445312 215.038085938 485.231445312 215.038085938 471.080078125 216.966796875 c 128,-1,141
 456.927734375 218.896484375 456.927734375 218.896484375 448.314453125 216.32421875 c 2,142,-1
 439.700195312 213.752929688 l 1,143,-1
 378.171875 206.041015625 l 1,144,-1
 322.795898438 203.46875 l 1,145,-1
 282.1875 206.041015625 l 2,146,147
 279.725585938 206.041015625 279.725585938 206.041015625 276.034179688 206.041015625 c 128,-1,148
 272.341796875 206.041015625 272.341796875 206.041015625 261.8828125 208.610351562 c 128,-1,149
 251.423828125 211.182617188 251.423828125 211.182617188 243.423828125 215.038085938 c 128,-1,150
 235.424804688 218.896484375 235.424804688 218.896484375 226.811523438 225.965820312 c 128,-1,151
 218.197265625 233.036132812 218.197265625 233.036132812 214.506835938 242.034179688 c 128,-1,152
 210.813476562 251.034179688 210.813476562 251.034179688 212.66015625 265.815429688 c 128,-1,153
 214.506835938 280.599609375 214.506835938 280.599609375 225.580078125 298.595703125 c 0,154,155
 257.576171875 342.303710938 257.576171875 342.303710938 286.494140625 373.797851562 c 128,-1,156
 315.412109375 405.293945312 315.412109375 405.293945312 328.94921875 414.291992188 c 2,157,-1
 342.484375 424.576171875 l 2,158,159
 343.715820312 425.861328125 343.715820312 425.861328125 346.791992188 427.790039062 c 128,-1,160
 349.868164062 429.717773438 349.868164062 429.717773438 358.481445312 436.788085938 c 128,-1,161
 367.095703125 443.858398438 367.095703125 443.858398438 370.787109375 448.358398438 c 128,-1,162
 374.48046875 452.856445312 374.48046875 452.856445312 378.171875 459.927734375 c 128,-1,163
 381.86328125 466.998046875 381.86328125 466.998046875 375.709960938 468.92578125 c 128,-1,164
 369.557617188 470.854492188 369.557617188 470.854492188 357.8671875 472.783203125 c 128,-1,165
 346.176757812 474.709960938 346.176757812 474.709960938 319.104492188 469.568359375 c 0,166,167
 145.592773438 454.141601562 145.592773438 454.141601562 145.592773438 454.141601562 c 1,168,-1
 44.6865234375 442.572265625 l 2,169,170
 42.2265625 442.572265625 42.2265625 442.572265625 37.9189453125 442.572265625 c 128,-1,171
 33.6123046875 442.572265625 33.6123046875 442.572265625 23.1513671875 443.858398438 c 128,-1,172
 12.6923828125 445.14453125 12.6923828125 445.14453125 9 449 c 128,-1,173
 5.30859375 452.856445312 5.30859375 452.856445312 2.232421875 459.927734375 c 128,-1,174
 -0.84375 466.998046875 -0.84375 466.998046875 11.4619140625 479.8515625 c 0,175,176
 15.154296875 486.279296875 15.154296875 486.279296875 18.8447265625 489.493164062 c 128,-1,177
 22.5361328125 492.70703125 22.5361328125 492.70703125 23.767578125 492.70703125 c 2,178,-1
 26.2275390625 493.993164062 l 1,0,-1
EndSplineSet
Validated: 33
EndChar

StartChar: H
Encoding: 72 72 10
Width: 455
GlyphClass: 1
Flags: W
LayerCount: 2
Fore
SplineSet
38.6171875 628.540039062 m 1,0,-1
 114.899414062 676.240234375 l 1,1,2
 155.583984375 678.360351562 155.583984375 678.360351562 167.026367188 660.33984375 c 0,3,4
 174.655273438 638.080078125 174.655273438 638.080078125 175.291015625 613.700195312 c 128,-1,5
 175.926757812 589.3203125 175.926757812 589.3203125 174.655273438 576.600585938 c 2,6,-1
 172.112304688 562.8203125 l 1,7,-1
 169.569335938 504.520507812 l 1,8,-1
 158.125976562 448.33984375 l 1,9,-1
 140.327148438 386.860351562 l 1,10,-1
 132.69921875 351.879882812 l 1,11,-1
 132.69921875 313.720703125 l 1,12,13
 144.141601562 310.540039062 144.141601562 310.540039062 156.854492188 326.440429688 c 0,14,15
 172.112304688 340.220703125 172.112304688 340.220703125 188.638671875 350.290039062 c 128,-1,16
 205.166992188 360.360351562 205.166992188 360.360351562 214.06640625 363.540039062 c 2,17,-1
 222.966796875 366.720703125 l 1,18,-1
 271.279296875 381.560546875 l 1,19,-1
 308.1484375 385.799804688 l 1,20,-1
 329.762695312 385.799804688 l 1,21,-1
 357.732421875 376.260742188 l 1,22,-1
 380.6171875 359.299804688 l 2,23,24
 422.573242188 328.560546875 422.573242188 328.560546875 431.47265625 301 c 0,25,26
 440.372070312 286.16015625 440.372070312 286.16015625 444.185546875 271.3203125 c 128,-1,27
 448 256.48046875 448 256.48046875 448 248 c 2,28,-1
 448 239.520507812 l 1,29,-1
 451.814453125 211.959960938 l 1,30,-1
 446.729492188 181.220703125 l 1,31,32
 434.015625 156.83984375 434.015625 156.83984375 430.201171875 122.919921875 c 1,33,34
 421.301757812 113.379882812 421.301757812 113.379882812 417.487304688 105.959960938 c 128,-1,35
 413.673828125 98.5400390625 413.673828125 98.5400390625 413.673828125 96.419921875 c 2,36,-1
 413.673828125 93.240234375 l 1,37,-1
 397.145507812 76.2802734375 l 1,38,-1
 383.16015625 49.7802734375 l 1,39,-1
 352.647460938 27.5205078125 l 1,40,-1
 328.491210938 11.6201171875 l 2,41,42
 323.405273438 8.4404296875 323.405273438 8.4404296875 316.412109375 5.2607421875 c 128,-1,43
 309.419921875 2.080078125 309.419921875 2.080078125 298.61328125 2.6103515625 c 128,-1,44
 287.806640625 3.140625 287.806640625 3.140625 305.60546875 26.4599609375 c 0,45,46
 341.205078125 68.8603515625 341.205078125 68.8603515625 343.748046875 66.740234375 c 1,47,-1
 359.004882812 109.140625 l 1,48,-1
 365.361328125 135.640625 l 2,49,50
 381.889648438 187.580078125 381.889648438 187.580078125 364.08984375 225.740234375 c 0,51,52
 362.818359375 236.33984375 362.818359375 236.33984375 357.096679688 246.41015625 c 128,-1,53
 351.375976562 256.48046875 351.375976562 256.48046875 347.561523438 260.720703125 c 2,54,-1
 343.748046875 266.020507812 l 1,55,-1
 311.963867188 294.640625 l 1,56,-1
 281.450195312 314.780273438 l 2,57,58
 278.907226562 319.020507812 278.907226562 319.020507812 271.915039062 322.73046875 c 128,-1,59
 264.922851562 326.440429688 264.922851562 326.440429688 225.509765625 317.430664062 c 128,-1,60
 186.09765625 308.419921875 186.09765625 308.419921875 126.341796875 273.440429688 c 0,61,62
 122.528320312 268.140625 122.528320312 268.140625 121.893554688 262.83984375 c 128,-1,63
 121.256835938 257.540039062 121.256835938 257.540039062 121.256835938 255.419921875 c 2,64,-1
 121.256835938 253.299804688 l 1,65,66
 130.15625 245.879882812 130.15625 245.879882812 114.899414062 229.98046875 c 1,67,68
 116.171875 221.5 116.171875 221.5 114.264648438 210.900390625 c 128,-1,69
 112.357421875 200.299804688 112.357421875 200.299804688 108.54296875 193.940429688 c 2,70,-1
 106 187.580078125 l 1,71,-1
 103.458007812 181.220703125 l 1,72,-1
 106 145.180664062 l 1,73,-1
 102.185546875 110.200195312 l 1,74,-1
 98.3720703125 82.640625 l 1,75,-1
 100.9140625 63.560546875 l 1,76,-1
 100.9140625 55.080078125 l 2,77,78
 100.9140625 52.9599609375 100.9140625 52.9599609375 99.6435546875 49.25 c 128,-1,79
 98.3720703125 45.5400390625 98.3720703125 45.5400390625 81.208984375 33.3505859375 c 128,-1,80
 64.0458984375 21.16015625 64.0458984375 21.16015625 32.2607421875 8.4404296875 c 1,81,82
 22.0888671875 12.6806640625 22.0888671875 12.6806640625 17.640625 17.98046875 c 128,-1,83
 13.189453125 23.2802734375 13.189453125 23.2802734375 13.189453125 25.400390625 c 2,84,-1
 13.189453125 28.580078125 l 1,85,-1
 18.275390625 61.4404296875 l 1,86,-1
 23.3603515625 86.8798828125 l 1,87,-1
 27.1748046875 114.440429688 l 1,88,-1
 33.5322265625 155.780273438 l 1,89,-1
 41.16015625 195 l 1,90,-1
 50.060546875 254.360351562 l 1,91,-1
 57.6875 310.540039062 l 1,92,-1
 69.1298828125 352.940429688 l 1,93,-1
 85.658203125 410.180664062 l 1,94,-1
 92.0146484375 448.33984375 l 1,95,-1
 92.0146484375 484.379882812 l 1,96,-1
 95.830078125 513 l 1,97,-1
 97.1005859375 535.260742188 l 1,98,-1
 99.6435546875 572.360351562 l 1,99,-1
 94.5576171875 592.5 l 2,100,101
 93.2861328125 595.680664062 93.2861328125 595.680664062 91.3798828125 599.919921875 c 128,-1,102
 89.47265625 604.16015625 89.47265625 604.16015625 80.5732421875 610.520507812 c 128,-1,103
 71.673828125 616.879882812 71.673828125 616.879882812 58.9599609375 614.760742188 c 0,104,105
 39.888671875 612.640625 39.888671875 612.640625 39.888671875 612.640625 c 2,106,107
 38.6171875 612.640625 38.6171875 612.640625 37.345703125 612.640625 c 128,-1,108
 36.07421875 612.640625 36.07421875 612.640625 34.1669921875 614.760742188 c 128,-1,109
 32.2607421875 616.879882812 32.2607421875 616.879882812 36.07421875 622.180664062 c 0,110,111
 38.6171875 628.540039062 38.6171875 628.540039062 38.6171875 628.540039062 c 1,0,-1
EndSplineSet
Validated: 33
EndChar

StartChar: I
Encoding: 73 73 11
Width: 214
GlyphClass: 1
Flags: W
LayerCount: 2
Fore
SplineSet
18.7333984375 552.719726562 m 1,0,-1
 15.4208984375 552.383789062 l 1,1,-1
 11.111328125 552.125 l 1,2,-1
 1.96875 552.63671875 l 1,3,4
 7.119140625 557.438476562 7.119140625 557.438476562 17.0712890625 561.056640625 c 0,5,6
 25.93359375 561.216796875 25.93359375 561.216796875 35.1669921875 565.204101562 c 128,-1,7
 44.4013671875 569.190429688 44.4013671875 569.190429688 49.19921875 573.095703125 c 2,8,-1
 54 577 l 1,9,-1
 97.578125 595.124023438 l 2,10,11
 123.887695312 604.512695312 123.887695312 604.512695312 168.1171875 587.873046875 c 0,12,13
 194.213867188 574.504882812 194.213867188 574.504882812 204.481445312 546.892578125 c 128,-1,14
 214.747070312 519.283203125 214.747070312 519.283203125 211.966796875 498.354492188 c 2,15,-1
 209.184570312 477.422851562 l 1,16,-1
 205.00390625 413.87109375 l 1,17,-1
 195.606445312 346.219726562 l 1,18,-1
 173.668945312 198.61328125 l 1,19,-1
 166.094726562 144.284179688 l 1,20,-1
 159.567382812 56.388671875 l 1,21,22
 148.80078125 38.912109375 148.80078125 38.912109375 118.306640625 13.8505859375 c 1,23,24
 74.080078125 -10.2890625 74.080078125 -10.2890625 74.95703125 12.0556640625 c 2,25,-1
 75.7412109375 34.60546875 l 1,26,-1
 76.2646484375 54.0849609375 l 1,27,-1
 86.97265625 106.360351562 l 1,28,-1
 97.416015625 152.486328125 l 1,29,-1
 125.620117188 327.767578125 l 1,30,-1
 125.098632812 430.786132812 l 1,31,-1
 122.74609375 504.078125 l 2,32,33
 121.384765625 519.001953125 121.384765625 519.001953125 93.240234375 550.971679688 c 0,34,35
 81.05078125 563.842773438 81.05078125 563.842773438 62.42578125 564.279296875 c 128,-1,36
 43.798828125 564.715820312 43.798828125 564.715820312 31.2646484375 558.717773438 c 2,37,-1
 18.7333984375 552.719726562 l 1,0,-1
EndSplineSet
Validated: 33
EndChar

StartChar: J
Encoding: 74 74 12
Width: 303
GlyphClass: 1
Flags: W
LayerCount: 2
Fore
SplineSet
210.076171875 548.370117188 m 0,0,1
 250.0546875 549.776367188 250.0546875 549.776367188 267.186523438 527.301757812 c 0,2,3
 275.182617188 524.4921875 275.182617188 524.4921875 282.03515625 518.874023438 c 128,-1,4
 288.887695312 513.256835938 288.887695312 513.256835938 291.172851562 509.041992188 c 2,5,-1
 293.45703125 506.232421875 l 2,6,7
 294.599609375 503.423828125 294.599609375 503.423828125 295.170898438 498.5078125 c 128,-1,8
 295.740234375 493.592773438 295.740234375 493.592773438 298.025390625 482.354492188 c 128,-1,9
 300.309570312 471.118164062 300.309570312 471.118164062 298.025390625 466.904296875 c 0,10,11
 298.025390625 458.477539062 298.025390625 458.477539062 296.883789062 450.048828125 c 128,-1,12
 295.740234375 441.623046875 295.740234375 441.623046875 295.740234375 437.408203125 c 2,13,-1
 294.599609375 433.194335938 l 1,14,-1
 285.4609375 353.1328125 l 1,15,-1
 262.618164062 230.93359375 l 1,16,-1
 254.622070312 194.4140625 l 1,17,-1
 242.05859375 155.084960938 l 1,18,-1
 232.920898438 107.330078125 l 1,19,-1
 224.92578125 69.40625 l 2,20,21
 214.645507812 28.6728515625 214.645507812 28.6728515625 189.518554688 -21.892578125 c 0,22,23
 174.668945312 -42.9609375 174.668945312 -42.9609375 165.53125 -54.1982421875 c 128,-1,24
 156.39453125 -65.4345703125 156.39453125 -65.4345703125 154.109375 -65.4345703125 c 2,25,-1
 152.967773438 -66.83984375 l 1,26,-1
 119.84375 -97.740234375 l 1,27,-1
 97 -116 l 1,28,-1
 73.013671875 -130.045898438 l 1,29,-1
 57.0234375 -135.665039062 l 1,30,-1
 30.7529296875 -139.877929688 l 1,31,32
 30.7529296875 -139.877929688 30.7529296875 -139.877929688 25.6142578125 -140.580078125 c 128,-1,33
 20.4736328125 -141.283203125 20.4736328125 -141.283203125 15.3330078125 -139.176757812 c 128,-1,34
 10.1943359375 -137.068359375 10.1943359375 -137.068359375 6.1962890625 -133.557617188 c 128,-1,35
 2.19921875 -130.045898438 2.19921875 -130.045898438 3.912109375 -120.915039062 c 128,-1,36
 5.6259765625 -111.787109375 5.6259765625 -111.787109375 15.904296875 -99.1455078125 c 1,37,38
 66.162109375 -69.6494140625 66.162109375 -69.6494140625 66.162109375 -69.6494140625 c 1,39,-1
 94.7158203125 -49.984375 l 2,40,41
 118.702148438 -31.724609375 118.702148438 -31.724609375 122.12890625 -21.892578125 c 0,42,43
 134.692382812 4.7939453125 134.692382812 4.7939453125 134.692382812 4.7939453125 c 1,44,-1
 150.682617188 68.0009765625 l 1,45,-1
 159.821289062 112.948242188 l 1,46,-1
 168.958007812 149.467773438 l 1,47,-1
 189.518554688 229.528320312 l 1,48,-1
 200.939453125 274.475585938 l 1,49,-1
 212.361328125 341.895507812 l 1,50,-1
 219.21484375 389.65234375 l 1,51,-1
 223.784179688 437.408203125 l 2,52,53
 223.784179688 438.813476562 223.784179688 438.813476562 224.353515625 442.32421875 c 128,-1,54
 224.92578125 445.8359375 224.92578125 445.8359375 224.353515625 453.560546875 c 128,-1,55
 223.784179688 461.286132812 223.784179688 461.286132812 222.640625 467.607421875 c 128,-1,56
 221.499023438 473.927734375 221.499023438 473.927734375 216.9296875 481.65234375 c 128,-1,57
 212.361328125 489.376953125 212.361328125 489.376953125 204.366210938 492.186523438 c 0,58,59
 184.948242188 502.01953125 184.948242188 502.01953125 184.948242188 502.01953125 c 1,60,-1
 179.23828125 503.423828125 l 2,61,62
 178.095703125 503.423828125 178.095703125 503.423828125 176.954101562 504.126953125 c 128,-1,63
 175.810546875 504.829101562 175.810546875 504.829101562 172.955078125 506.935546875 c 128,-1,64
 170.100585938 509.041992188 170.100585938 509.041992188 168.958007812 511.149414062 c 128,-1,65
 167.81640625 513.256835938 167.81640625 513.256835938 169.528320312 517.469726562 c 128,-1,66
 171.2421875 521.68359375 171.2421875 521.68359375 178.095703125 527.301757812 c 0,67,68
 184.948242188 528.70703125 184.948242188 528.70703125 184.948242188 528.70703125 c 1,69,-1
 192.944335938 537.133789062 l 1,70,-1
 199.796875 542.752929688 l 2,71,72
 199.796875 544.157226562 199.796875 544.157226562 200.939453125 544.858398438 c 128,-1,73
 202.081054688 545.561523438 202.081054688 545.561523438 204.9375 546.966796875 c 128,-1,74
 207.79296875 548.370117188 207.79296875 548.370117188 210.076171875 548.370117188 c 0,0,1
186.091796875 740.799804688 m 2,75,76
 200.939453125 743.609375 200.939453125 743.609375 221.499023438 715.517578125 c 0,77,78
 226.067382812 714.111328125 226.067382812 714.111328125 229.494140625 711.3046875 c 128,-1,79
 232.920898438 708.495117188 232.920898438 708.495117188 235.205078125 706.38671875 c 128,-1,80
 237.490234375 704.280273438 237.490234375 704.280273438 238.631835938 702.875976562 c 128,-1,81
 239.7734375 701.471679688 239.7734375 701.471679688 240.916015625 700.06640625 c 2,82,-1
 240.916015625 698.662109375 l 1,83,84
 247.768554688 693.04296875 247.768554688 693.04296875 236.346679688 670.5703125 c 0,85,86
 230.63671875 663.547851562 230.63671875 663.547851562 225.49609375 657.928710938 c 128,-1,87
 220.357421875 652.310546875 220.357421875 652.310546875 218.072265625 650.905273438 c 2,88,-1
 214.645507812 649.501953125 l 1,89,-1
 195.228515625 643.8828125 l 2,90,91
 181.522460938 639.669921875 181.522460938 639.669921875 176.954101562 649.501953125 c 0,92,93
 170.100585938 657.928710938 170.100585938 657.928710938 164.959960938 664.249023438 c 128,-1,94
 159.821289062 670.5703125 159.821289062 670.5703125 158.677734375 673.379882812 c 2,95,-1
 156.39453125 676.189453125 l 1,96,-1
 142.6875 693.04296875 l 2,97,98
 133.549804688 702.875976562 133.549804688 702.875976562 150.682617188 722.540039062 c 1,99,100
 180.379882812 737.990234375 180.379882812 737.990234375 180.379882812 737.990234375 c 1,101,-1
 186.091796875 740.799804688 l 2,75,76
EndSplineSet
Validated: 33
EndChar

StartChar: K
Encoding: 75 75 13
Width: 549
GlyphClass: 1
Flags: W
LayerCount: 2
Fore
SplineSet
1.5244140625 49.5888671875 m 1,0,1
 5.2392578125 107.725585938 5.2392578125 107.725585938 23.810546875 139.03125 c 1,2,3
 33.7177734375 178.161132812 33.7177734375 178.161132812 40.5263671875 202.19921875 c 128,-1,4
 47.3369140625 226.236328125 47.3369140625 226.236328125 49.8125 231.827148438 c 2,5,-1
 52.2900390625 236.298828125 l 2,6,7
 54.765625 247.478515625 54.765625 247.478515625 57.2412109375 262.572265625 c 128,-1,8
 59.71875 277.665039062 59.71875 277.665039062 65.291015625 315.119140625 c 128,-1,9
 70.861328125 352.573242188 70.861328125 352.573242188 64.669921875 358.163085938 c 1,10,11
 70.861328125 484.499023438 70.861328125 484.499023438 70.861328125 484.499023438 c 1,12,-1
 86.9580078125 551.581054688 l 1,13,-1
 94.3876953125 623.134765625 l 2,14,15
 95.625 625.370117188 95.625 625.370117188 96.244140625 629.841796875 c 128,-1,16
 96.8623046875 634.314453125 96.8623046875 634.314453125 95.625 643.258789062 c 128,-1,17
 94.3876953125 652.202148438 94.3876953125 652.202148438 90.052734375 656.674804688 c 128,-1,18
 85.720703125 661.147460938 85.720703125 661.147460938 73.3369140625 659.469726562 c 128,-1,19
 60.9560546875 657.79296875 60.9560546875 657.79296875 42.384765625 645.495117188 c 1,20,21
 27.5263671875 643.258789062 27.5263671875 643.258789062 27.5263671875 643.258789062 c 129,-1,22
 27.5263671875 643.258789062 27.5263671875 643.258789062 26.2880859375 645.495117188 c 0,23,24
 26.2880859375 647.73046875 26.2880859375 647.73046875 30.0009765625 649.967773438 c 0,25,26
 46.09765625 657.79296875 46.09765625 657.79296875 46.09765625 657.79296875 c 1,27,-1
 88.1943359375 680.154296875 l 1,28,-1
 119.151367188 694.686523438 l 1,29,-1
 140.198242188 705.868164062 l 2,30,31
 141.438476562 706.985351562 141.438476562 706.985351562 142.674804688 707.544921875 c 128,-1,32
 143.9140625 708.104492188 143.9140625 708.104492188 148.8671875 708.662109375 c 128,-1,33
 153.818359375 709.221679688 153.818359375 709.221679688 158.151367188 708.104492188 c 128,-1,34
 162.486328125 706.985351562 162.486328125 706.985351562 168.05859375 703.073242188 c 128,-1,35
 173.62890625 699.159179688 173.62890625 699.159179688 178.583984375 691.333007812 c 0,36,37
 181.05859375 685.743164062 181.05859375 685.743164062 182.916015625 679.59375 c 128,-1,38
 184.7734375 673.4453125 184.7734375 673.4453125 184.7734375 670.091796875 c 2,39,-1
 186.010742188 667.85546875 l 1,40,-1
 179.821289062 627.606445312 l 1,41,-1
 176.10546875 599.655273438 l 1,42,-1
 169.916015625 569.46875 l 1,43,-1
 160.008789062 521.39453125 l 1,44,-1
 156.295898438 490.088867188 l 1,45,-1
 153.818359375 468.846679688 l 1,46,-1
 155.056640625 450.958984375 l 1,47,-1
 155.056640625 444.250976562 l 2,48,49
 155.056640625 443.1328125 155.056640625 443.1328125 155.676757812 440.896484375 c 128,-1,50
 156.295898438 438.661132812 156.295898438 438.661132812 158.151367188 434.747070312 c 128,-1,51
 160.008789062 430.834960938 160.008789062 430.834960938 162.486328125 429.157226562 c 128,-1,52
 164.963867188 427.48046875 164.963867188 427.48046875 170.534179688 430.834960938 c 128,-1,53
 176.10546875 434.188476562 176.10546875 434.188476562 184.7734375 443.1328125 c 0,54,55
 199.631835938 453.194335938 199.631835938 453.194335938 199.631835938 453.194335938 c 1,56,-1
 245.443359375 483.381835938 l 1,57,-1
 285.064453125 505.7421875 l 1,58,-1
 312.303710938 523.629882812 l 1,59,-1
 359.35546875 553.81640625 l 1,60,-1
 377.927734375 563.87890625 l 2,61,62
 379.166015625 563.87890625 379.166015625 563.87890625 381.022460938 564.4375 c 128,-1,63
 382.880859375 564.99609375 382.880859375 564.99609375 386.59375 565.556640625 c 128,-1,64
 390.307617188 566.115234375 390.307617188 566.115234375 390.307617188 563.87890625 c 0,65,66
 418.787109375 535.928710938 418.787109375 535.928710938 418.787109375 535.928710938 c 1,67,-1
 436.12109375 516.921875 l 1,68,-1
 476.98046875 466.611328125 l 1,69,-1
 512.888671875 437.541992188 l 1,70,-1
 525.268554688 427.48046875 l 2,71,72
 540.127929688 412.946289062 540.127929688 412.946289062 520.318359375 399.530273438 c 0,73,74
 483.170898438 382.758789062 483.170898438 382.758789062 483.170898438 382.758789062 c 1,75,-1
 470.791015625 377.168945312 l 1,76,-1
 459.645507812 376.051757812 l 1,77,78
 453.455078125 389.467773438 453.455078125 389.467773438 421.262695312 392.821289062 c 1,79,80
 406.405273438 406.237304688 406.405273438 406.237304688 397.737304688 415.741210938 c 128,-1,81
 389.071289062 425.243164062 389.071289062 425.243164062 387.83203125 427.48046875 c 2,82,-1
 386.59375 429.715820312 l 2,83,84
 380.403320312 445.369140625 380.403320312 445.369140625 348.211914062 474.4375 c 0,85,86
 338.305664062 486.735351562 338.305664062 486.735351562 331.49609375 493.444335938 c 128,-1,87
 324.686523438 500.151367188 324.686523438 500.151367188 322.208984375 501.270507812 c 2,88,-1
 319.734375 502.387695312 l 2,89,90
 312.303710938 504.624023438 312.303710938 504.624023438 306.114257812 496.797851562 c 0,91,92
 290.017578125 487.853515625 290.017578125 487.853515625 290.017578125 487.853515625 c 1,93,-1
 254.111328125 465.494140625 l 1,94,-1
 213.25 436.424804688 l 1,95,-1
 177.344726562 411.828125 l 1,96,-1
 164.963867188 404.001953125 l 1,97,-1
 158.771484375 401.765625 l 2,98,99
 158.771484375 400.6484375 158.771484375 400.6484375 157.532226562 399.530273438 c 128,-1,100
 156.295898438 398.412109375 156.295898438 398.412109375 154.438476562 393.939453125 c 128,-1,101
 152.58203125 389.467773438 152.58203125 389.467773438 153.818359375 383.877929688 c 0,102,103
 151.342773438 355.926757812 151.342773438 355.926757812 151.342773438 355.926757812 c 1,104,-1
 151.342773438 342.510742188 l 1,105,-1
 146.388671875 310.087890625 l 1,106,-1
 140.198242188 282.137695312 l 1,107,-1
 135.247070312 262.012695312 l 1,108,-1
 132.76953125 248.59765625 l 2,109,110
 131.53125 245.2421875 131.53125 245.2421875 132.151367188 242.447265625 c 128,-1,111
 132.76953125 239.653320312 132.76953125 239.653320312 137.724609375 235.180664062 c 128,-1,112
 142.674804688 230.708007812 142.674804688 230.708007812 157.532226562 243.006835938 c 1,113,114
 189.724609375 256.422851562 189.724609375 256.422851562 189.724609375 256.422851562 c 2,115,116
 195.91796875 258.66015625 195.91796875 258.66015625 203.96484375 261.454101562 c 128,-1,117
 212.012695312 264.249023438 212.012695312 264.249023438 233.682617188 269.838867188 c 128,-1,118
 255.348632812 275.428710938 255.348632812 275.428710938 265.254882812 269.838867188 c 0,119,120
 278.873046875 262.012695312 278.873046875 262.012695312 278.873046875 262.012695312 c 1,121,-1
 298.684570312 244.125 l 1,122,123
 312.303710938 213.938476562 312.303710938 213.938476562 317.256835938 199.403320312 c 0,124,125
 339.544921875 131.205078125 339.544921875 131.205078125 339.544921875 131.205078125 c 2,126,127
 340.782226562 128.96875 340.782226562 128.96875 342.020507812 126.732421875 c 128,-1,128
 343.2578125 124.49609375 343.2578125 124.49609375 348.211914062 116.669921875 c 128,-1,129
 353.165039062 108.844726562 353.165039062 108.844726562 359.35546875 103.25390625 c 128,-1,130
 365.546875 97.6630859375 365.546875 97.6630859375 375.451171875 89.8369140625 c 128,-1,131
 385.357421875 82.01171875 385.357421875 82.01171875 398.35546875 79.216796875 c 128,-1,132
 411.359375 76.421875 411.359375 76.421875 428.692382812 74.185546875 c 128,-1,133
 446.026367188 71.9501953125 446.026367188 71.9501953125 465.836914062 77.5390625 c 0,134,135
 507.935546875 86.4833984375 507.935546875 86.4833984375 507.935546875 86.4833984375 c 2,136,137
 522.79296875 89.8369140625 522.79296875 89.8369140625 524.03125 89.8369140625 c 0,138,139
 533.935546875 92.07421875 533.935546875 92.07421875 533.935546875 92.07421875 c 1,140,-1
 542.603515625 92.07421875 l 1,141,142
 542.603515625 92.07421875 542.603515625 92.07421875 545.080078125 90.9560546875 c 0,143,144
 545.080078125 89.8369140625 545.080078125 89.8369140625 542.603515625 86.4833984375 c 0,145,146
 532.697265625 76.421875 532.697265625 76.421875 532.697265625 76.421875 c 1,147,-1
 504.220703125 54.0615234375 l 1,148,-1
 483.170898438 40.64453125 l 1,149,-1
 459.645507812 32.818359375 l 1,150,151
 422.500976562 14.9296875 422.500976562 14.9296875 364.306640625 12.6943359375 c 0,152,153
 346.97265625 13.8125 346.97265625 13.8125 334.591796875 15.4892578125 c 128,-1,154
 322.208984375 17.1669921875 322.208984375 17.1669921875 318.495117188 18.2841796875 c 2,155,-1
 314.780273438 19.40234375 l 1,156,-1
 290.017578125 39.5263671875 l 1,157,-1
 264.016601562 71.9501953125 l 1,158,159
 242.966796875 121.142578125 242.966796875 121.142578125 235.538085938 163.626953125 c 0,160,161
 229.34765625 179.279296875 229.34765625 179.279296875 221.918945312 188.783203125 c 128,-1,162
 214.490234375 198.28515625 214.490234375 198.28515625 210.775390625 200.521484375 c 2,163,-1
 205.822265625 202.7578125 l 2,164,165
 204.583007812 203.876953125 204.583007812 203.876953125 200.249023438 205.551757812 c 128,-1,166
 195.91796875 207.229492188 195.91796875 207.229492188 182.296875 210.583007812 c 128,-1,167
 168.676757812 213.938476562 168.676757812 213.938476562 156.295898438 209.465820312 c 0,168,169
 140.198242188 204.994140625 140.198242188 204.994140625 131.53125 201.639648438 c 128,-1,170
 122.864257812 198.28515625 122.864257812 198.28515625 121.627929688 196.05078125 c 2,171,-1
 120.389648438 194.931640625 l 1,172,-1
 108.005859375 171.453125 l 1,173,-1
 103.0546875 154.682617188 l 1,174,-1
 96.8623046875 128.96875 l 1,175,-1
 95.625 104.372070312 l 1,176,-1
 95.625 80.8935546875 l 1,177,-1
 94.3876953125 36.173828125 l 1,178,-1
 88.1943359375 22.755859375 l 1,179,-1
 69.6240234375 16.0478515625 l 1,180,-1
 51.0517578125 10.4580078125 l 2,181,182
 49.8125 9.3408203125 49.8125 9.3408203125 48.576171875 7.6630859375 c 128,-1,183
 47.3369140625 5.9853515625 47.3369140625 5.9853515625 43.00390625 3.7490234375 c 128,-1,184
 38.66796875 1.5146484375 38.66796875 1.5146484375 34.955078125 1.5146484375 c 128,-1,185
 31.2392578125 1.5146484375 31.2392578125 1.5146484375 26.2880859375 4.8681640625 c 128,-1,186
 21.3349609375 8.2216796875 21.3349609375 8.2216796875 17.62109375 16.0478515625 c 0,187,188
 10.193359375 21.638671875 10.193359375 21.638671875 10.193359375 21.638671875 c 1,189,-1
 4 44 l 1,190,-1
 1.5244140625 49.5888671875 l 1,0,1
EndSplineSet
Validated: 33
EndChar

StartChar: L
Encoding: 76 76 14
Width: 544
GlyphClass: 1
Flags: W
LayerCount: 2
Fore
SplineSet
80.90625 688.706054688 m 1,0,1
 148.08203125 694.490234375 148.08203125 694.490234375 162.5703125 679.451171875 c 0,2,3
 171.790039062 675.98046875 171.790039062 675.98046875 177.05859375 670.7734375 c 128,-1,4
 182.328125 665.569335938 182.328125 665.569335938 184.962890625 662.09765625 c 2,5,-1
 186.279296875 658.626953125 l 1,6,-1
 195.499023438 637.802734375 l 1,7,-1
 199.450195312 621.607421875 l 1,8,-1
 209.98828125 577.64453125 l 1,9,-1
 213.939453125 542.939453125 l 1,10,-1
 216.57421875 508.231445312 l 1,11,-1
 217.890625 461.95703125 l 1,12,-1
 219.20703125 382.131835938 l 1,13,-1
 217.890625 350.895507812 l 2,14,15
 216.57421875 348.581054688 216.57421875 348.581054688 215.256835938 344.533203125 c 128,-1,16
 213.939453125 340.484375 213.939453125 340.484375 211.963867188 328.336914062 c 128,-1,17
 209.98828125 316.189453125 209.98828125 316.189453125 212.622070312 304.620117188 c 0,18,19
 208.670898438 261.815429688 208.670898438 261.815429688 208.670898438 261.815429688 c 1,20,-1
 207.353515625 217.853515625 l 1,21,-1
 208.670898438 179.676757812 l 2,22,23
 207.353515625 163.479492188 207.353515625 163.479492188 213.939453125 138.029296875 c 0,24,25
 219.20703125 119.518554688 219.20703125 119.518554688 225.135742188 107.950195312 c 128,-1,26
 231.063476562 96.380859375 231.063476562 96.380859375 235.013671875 94.0673828125 c 2,27,-1
 237.647460938 90.59765625 l 2,28,29
 242.916992188 84.8125 242.916992188 84.8125 252.794921875 76.7138671875 c 128,-1,30
 262.673828125 68.6162109375 262.673828125 68.6162109375 290.993164062 58.2041015625 c 128,-1,31
 319.311523438 47.7919921875 319.311523438 47.7919921875 344.336914062 55.8896484375 c 0,32,33
 371.999023438 67.458984375 371.999023438 67.458984375 389.779296875 76.13671875 c 128,-1,34
 407.561523438 84.8125 407.561523438 84.8125 411.513671875 88.283203125 c 2,35,-1
 415.463867188 90.59765625 l 1,36,-1
 456.296875 116.048828125 l 1,37,-1
 503.713867188 142.65625 l 2,38,39
 505.030273438 143.814453125 505.030273438 143.814453125 508.323242188 145.547851562 c 128,-1,40
 511.6171875 147.284179688 511.6171875 147.284179688 518.861328125 150.17578125 c 128,-1,41
 526.104492188 153.068359375 526.104492188 153.068359375 530.056640625 149.59765625 c 0,42,43
 535.325195312 147.284179688 535.325195312 147.284179688 537.959960938 144.392578125 c 128,-1,44
 540.59375 141.5 540.59375 141.5 540.59375 140.342773438 c 2,45,-1
 541.911132812 138.029296875 l 2,46,47
 541.911132812 132.244140625 541.911132812 132.244140625 534.0078125 125.303710938 c 0,48,49
 522.154296875 113.734375 522.154296875 113.734375 522.154296875 113.734375 c 1,50,-1
 493.17578125 91.7529296875 l 1,51,-1
 473.418945312 77.87109375 l 1,52,-1
 390.4375 31.595703125 l 1,53,-1
 353.557617188 16.5556640625 l 2,54,55
 337.752929688 9.615234375 337.752929688 9.615234375 286.3828125 1.5166015625 c 1,56,57
 256.088867188 2.673828125 256.088867188 2.673828125 256.088867188 2.673828125 c 2,58,59
 248.185546875 2.673828125 248.185546875 2.673828125 235.672851562 4.408203125 c 128,-1,60
 223.16015625 6.14453125 223.16015625 6.14453125 192.865234375 20.02734375 c 128,-1,61
 162.5703125 33.9091796875 162.5703125 33.9091796875 141.49609375 59.3603515625 c 0,62,63
 132.276367188 76.7138671875 132.276367188 76.7138671875 132.276367188 76.7138671875 c 2,64,65
 129.640625 81.3408203125 129.640625 81.3408203125 127.665039062 90.0185546875 c 128,-1,66
 125.690429688 98.6943359375 125.690429688 98.6943359375 122.396484375 125.881835938 c 128,-1,67
 119.103515625 153.068359375 119.103515625 153.068359375 120.421875 179.676757812 c 0,68,69
 120.421875 250.247070312 120.421875 250.247070312 120.421875 250.247070312 c 1,70,-1
 121.73828125 296.522460938 l 2,71,72
 124.373046875 315.033203125 124.373046875 315.033203125 127.665039062 343.955078125 c 128,-1,73
 130.958007812 372.877929688 130.958007812 372.877929688 128.982421875 442.8671875 c 128,-1,74
 127.006835938 512.859375 127.006835938 512.859375 111.201171875 557.977539062 c 1,75,76
 111.201171875 578.801757812 111.201171875 578.801757812 111.201171875 578.801757812 c 1,77,78
 92.7607421875 618.135742188 92.7607421875 618.135742188 84.8583984375 621.607421875 c 0,79,80
 71.6865234375 623.920898438 71.6865234375 623.920898438 71.6865234375 623.920898438 c 1,81,-1
 58.5146484375 622.763671875 l 1,82,-1
 47.9775390625 621.607421875 l 1,83,-1
 40.07421875 621.607421875 l 2,84,85
 38.7568359375 621.607421875 38.7568359375 621.607421875 37.4404296875 622.185546875 c 128,-1,86
 36.123046875 622.763671875 36.123046875 622.763671875 32.1708984375 623.341796875 c 128,-1,87
 28.2197265625 623.920898438 28.2197265625 623.920898438 24.9287109375 625.078125 c 128,-1,88
 21.634765625 626.234375 21.634765625 626.234375 17.0244140625 627.96875 c 128,-1,89
 12.4140625 629.705078125 12.4140625 629.705078125 9.78125 631.439453125 c 128,-1,90
 7.1455078125 633.17578125 7.1455078125 633.17578125 5.169921875 635.489257812 c 128,-1,91
 3.1943359375 637.802734375 3.1943359375 637.802734375 3.8525390625 640.6953125 c 128,-1,92
 4.51171875 643.587890625 4.51171875 643.587890625 8.462890625 647.05859375 c 128,-1,93
 12.4140625 650.529296875 12.4140625 650.529296875 19 654 c 0,94,95
 47.9775390625 670.1953125 47.9775390625 670.1953125 47.9775390625 670.1953125 c 1,96,-1
 69.0517578125 682.920898438 l 1,97,-1
 80.90625 688.706054688 l 1,0,1
EndSplineSet
Validated: 33
EndChar

StartChar: M
Encoding: 77 77 15
Width: 583
GlyphClass: 1
Flags: W
LayerCount: 2
Fore
SplineSet
40.109375 619.415039062 m 2,0,1
 44.09765625 620.926757812 44.09765625 620.926757812 50.08203125 623.19140625 c 128,-1,2
 56.0654296875 625.458007812 56.0654296875 625.458007812 71.0244140625 620.926757812 c 128,-1,3
 85.9833984375 616.393554688 85.9833984375 616.393554688 96.953125 598.263671875 c 0,4,5
 104.931640625 587.688476562 104.931640625 587.688476562 108.921875 573.3359375 c 128,-1,6
 112.91015625 558.982421875 112.91015625 558.982421875 113.908203125 551.427734375 c 2,7,-1
 113.908203125 542.362304688 l 1,8,-1
 116.900390625 483.44140625 l 1,9,-1
 116.900390625 459.266601562 l 2,10,11
 116.900390625 457.756835938 116.900390625 457.756835938 116.900390625 453.979492188 c 128,-1,12
 116.900390625 450.204101562 116.900390625 450.204101562 116.900390625 443.405273438 c 128,-1,13
 116.900390625 436.60546875 116.900390625 436.60546875 118.893554688 433.584960938 c 128,-1,14
 120.888671875 430.563476562 120.888671875 430.563476562 124.877929688 434.338867188 c 128,-1,15
 128.868164062 438.116210938 128.868164062 438.116210938 135.848632812 450.204101562 c 0,16,17
 145.819335938 469.84375 145.819335938 469.84375 158.287109375 489.484375 c 128,-1,18
 170.75390625 509.126953125 170.75390625 509.126953125 177.735351562 516.680664062 c 2,19,-1
 185.711914062 525.744140625 l 1,20,-1
 227.599609375 568.047851562 l 2,21,22
 228.59765625 569.55859375 228.59765625 569.55859375 231.58984375 571.068359375 c 128,-1,23
 234.581054688 572.579101562 234.581054688 572.579101562 243.057617188 576.357421875 c 128,-1,24
 251.534179688 580.1328125 251.534179688 580.1328125 260.510742188 581.645507812 c 128,-1,25
 269.485351562 583.15625 269.485351562 583.15625 281.952148438 580.890625 c 128,-1,26
 294.41796875 578.622070312 294.41796875 578.622070312 305.388671875 571.068359375 c 0,27,28
 318.353515625 557.471679688 318.353515625 557.471679688 327.827148438 533.298828125 c 128,-1,29
 337.301757812 509.126953125 337.301757812 509.126953125 340.293945312 492.506835938 c 2,30,-1
 343.28515625 475.887695312 l 1,31,32
 343.28515625 475.887695312 343.28515625 475.887695312 347.275390625 460.778320312 c 0,33,34
 357.247070312 441.139648438 357.247070312 441.139648438 387.166015625 495.52734375 c 1,35,36
 436.034179688 543.875 436.034179688 543.875 436.034179688 543.875 c 2,37,38
 438.029296875 546.897460938 438.029296875 546.897460938 442.01953125 551.427734375 c 128,-1,39
 446.006835938 555.959960938 446.006835938 555.959960938 458.971679688 563.514648438 c 128,-1,40
 471.9375 571.068359375 471.9375 571.068359375 485.401367188 571.82421875 c 128,-1,41
 498.864257812 572.579101562 498.864257812 572.579101562 518.810546875 562.004882812 c 128,-1,42
 538.756835938 551.427734375 538.756835938 551.427734375 558.700195312 527.255859375 c 0,43,44
 568.67578125 509.126953125 568.67578125 509.126953125 573.66015625 483.44140625 c 128,-1,45
 578.646484375 457.756835938 578.646484375 457.756835938 578.646484375 439.62890625 c 2,46,-1
 579.645507812 423.009765625 l 1,47,-1
 577.651367188 347.467773438 l 1,48,-1
 574.658203125 305.166015625 l 1,49,-1
 566.680664062 255.307617188 l 1,50,-1
 546.734375 149.548828125 l 1,51,-1
 536.760742188 105.735351562 l 1,52,-1
 522.798828125 57.3876953125 l 2,53,54
 521.801757812 55.87890625 521.801757812 55.87890625 519.30859375 52.857421875 c 128,-1,55
 516.815429688 49.8349609375 516.815429688 49.8349609375 509.833984375 43.7919921875 c 128,-1,56
 502.853515625 37.75 502.853515625 37.75 496.868164062 34.7275390625 c 128,-1,57
 490.885742188 31.705078125 490.885742188 31.705078125 484.901367188 33.216796875 c 128,-1,58
 478.916992188 34.7275390625 478.916992188 34.7275390625 474.928710938 42.28125 c 0,59,60
 474.928710938 48.326171875 474.928710938 48.326171875 477.920898438 58.14453125 c 128,-1,61
 480.912109375 67.966796875 480.912109375 67.966796875 484.901367188 72.4970703125 c 2,62,-1
 487.892578125 78.541015625 l 2,63,64
 495.873046875 90.626953125 495.873046875 90.626953125 499.861328125 102.713867188 c 0,65,66
 506.841796875 149.548828125 506.841796875 149.548828125 506.841796875 149.548828125 c 1,67,-1
 513.82421875 185.809570312 l 1,68,-1
 524.79296875 238.688476562 l 1,69,-1
 530.77734375 324.805664062 l 1,70,-1
 530.77734375 364.0859375 l 2,71,72
 530.77734375 370.129882812 530.77734375 370.129882812 529.780273438 379.950195312 c 128,-1,73
 528.783203125 389.768554688 528.783203125 389.768554688 523.795898438 414.69921875 c 128,-1,74
 518.810546875 439.62890625 518.810546875 439.62890625 511.330078125 459.266601562 c 128,-1,75
 503.849609375 478.909179688 503.849609375 478.909179688 487.892578125 494.018554688 c 128,-1,76
 471.9375 509.126953125 471.9375 509.126953125 450.993164062 507.614257812 c 0,77,78
 439.026367188 506.103515625 439.026367188 506.103515625 427.05859375 498.549804688 c 128,-1,79
 415.090820312 490.997070312 415.090820312 490.997070312 409.107421875 483.44140625 c 2,80,-1
 403.124023438 477.3984375 l 1,81,-1
 383.177734375 442.649414062 l 1,82,-1
 370.211914062 418.4765625 l 1,83,84
 358.245117188 412.432617188 358.245117188 412.432617188 357.247070312 389.768554688 c 0,85,86
 357.247070312 376.171875 357.247070312 376.171875 357.247070312 369.375 c 128,-1,87
 357.247070312 362.575195312 357.247070312 362.575195312 358.245117188 359.553710938 c 2,88,-1
 359.241210938 356.533203125 l 1,89,-1
 359.241210938 321.783203125 l 1,90,-1
 347.275390625 135.952148438 l 1,91,-1
 340.293945312 70.98828125 l 1,92,-1
 336.3046875 36.236328125 l 2,93,94
 335.307617188 33.216796875 335.307617188 33.216796875 333.3125 30.1953125 c 128,-1,95
 331.319335938 27.173828125 331.319335938 27.173828125 325.334960938 18.8642578125 c 128,-1,96
 319.350585938 10.5537109375 319.350585938 10.5537109375 313.865234375 6.77734375 c 128,-1,97
 308.380859375 3 308.380859375 3 301.399414062 5.267578125 c 128,-1,98
 294.41796875 7.53125 294.41796875 7.53125 289.431640625 18.1083984375 c 0,99,100
 287.436523438 27.173828125 287.436523438 27.173828125 287.436523438 36.236328125 c 128,-1,101
 287.436523438 45.3037109375 287.436523438 45.3037109375 289.431640625 51.3466796875 c 2,102,-1
 290.427734375 58.900390625 l 2,103,104
 291.426757812 60.4111328125 291.426757812 60.4111328125 292.423828125 62.677734375 c 128,-1,105
 293.420898438 64.943359375 293.420898438 64.943359375 295.416015625 74.0078125 c 128,-1,106
 297.411132812 83.0732421875 297.411132812 83.0732421875 295.416015625 90.626953125 c 0,107,108
 302.397460938 157.104492188 302.397460938 157.104492188 302.397460938 157.104492188 c 1,109,-1
 305.388671875 200.916992188 l 1,110,-1
 306.38671875 247.752929688 l 1,111,-1
 309.377929688 291.565429688 l 2,112,113
 310.374023438 318.76171875 310.374023438 318.76171875 298.407226562 353.51171875 c 1,114,115
 298.407226562 367.106445312 298.407226562 367.106445312 294.41796875 389.014648438 c 128,-1,116
 290.427734375 410.920898438 290.427734375 410.920898438 287.436523438 427.541015625 c 2,117,-1
 283.448242188 442.649414062 l 2,118,119
 269.485351562 487.973632812 269.485351562 487.973632812 255.524414062 506.103515625 c 0,120,121
 249.540039062 512.1484375 249.540039062 512.1484375 241.063476562 514.412109375 c 128,-1,122
 232.584960938 516.680664062 232.584960938 516.680664062 226.6015625 515.169921875 c 2,123,-1
 221.616210938 513.658203125 l 2,124,125
 201.668945312 506.103515625 201.668945312 506.103515625 195.685546875 480.41796875 c 1,126,127
 171.750976562 441.139648438 171.750976562 441.139648438 171.750976562 441.139648438 c 1,128,-1
 144.825195312 382.215820312 l 1,129,-1
 138.83984375 371.640625 l 2,130,131
 137.842773438 371.640625 137.842773438 371.640625 135.848632812 371.640625 c 128,-1,132
 133.854492188 371.640625 133.854492188 371.640625 128.868164062 368.618164062 c 128,-1,133
 123.880859375 365.596679688 123.880859375 365.596679688 120.389648438 361.064453125 c 128,-1,134
 116.900390625 356.533203125 116.900390625 356.533203125 114.904296875 346.712890625 c 128,-1,135
 112.91015625 336.891601562 112.91015625 336.891601562 113.908203125 324.805664062 c 0,136,137
 104.931640625 277.969726562 104.931640625 277.969726562 104.931640625 277.969726562 c 1,138,-1
 103.935546875 226.602539062 l 1,139,-1
 103.935546875 172.211914062 l 1,140,-1
 103.935546875 119.333007812 l 1,141,-1
 103.935546875 108.758789062 l 1,142,-1
 110.916992188 52.857421875 l 2,143,144
 110.916992188 51.3466796875 110.916992188 51.3466796875 109.418945312 46.814453125 c 128,-1,145
 107.923828125 42.28125 107.923828125 42.28125 102.9375 31.705078125 c 128,-1,146
 97.951171875 21.12890625 97.951171875 21.12890625 92.9658203125 14.33203125 c 128,-1,147
 87.9775390625 7.53125 87.9775390625 7.53125 80 3 c 128,-1,148
 72.0205078125 -1.5322265625 72.0205078125 -1.5322265625 65.041015625 3 c 0,149,150
 60.0537109375 7.53125 60.0537109375 7.53125 57.0625 14.33203125 c 128,-1,151
 54.0703125 21.12890625 54.0703125 21.12890625 54.0703125 25.662109375 c 2,152,-1
 53.07421875 30.1953125 l 1,153,-1
 53.07421875 60.4111328125 l 1,154,-1
 55.0673828125 111.779296875 l 1,155,-1
 59.056640625 179.766601562 l 2,156,157
 59.056640625 184.299804688 59.056640625 184.299804688 60.0537109375 191.853515625 c 128,-1,158
 61.05078125 199.40625 61.05078125 199.40625 63.0458984375 220.55859375 c 128,-1,159
 65.041015625 241.709960938 65.041015625 241.709960938 66.037109375 259.83984375 c 128,-1,160
 67.03515625 277.969726562 67.03515625 277.969726562 66.5361328125 296.854492188 c 128,-1,161
 66.037109375 315.739257812 66.037109375 315.739257812 63.0458984375 324.805664062 c 0,162,163
 65.041015625 410.920898438 65.041015625 410.920898438 65.041015625 410.920898438 c 1,164,-1
 62.048828125 456.24609375 l 2,165,166
 62.048828125 463.801757812 62.048828125 463.801757812 60.552734375 475.131835938 c 128,-1,167
 59.056640625 486.463867188 59.056640625 486.463867188 51.576171875 509.880859375 c 128,-1,168
 44.09765625 533.298828125 44.09765625 533.298828125 32.1298828125 542.362304688 c 0,169,170
 25.1484375 549.916015625 25.1484375 549.916015625 19.1650390625 553.694335938 c 128,-1,171
 13.181640625 557.471679688 13.181640625 557.471679688 11.1865234375 557.471679688 c 2,172,-1
 9.193359375 557.471679688 l 1,173,-1
 5.2021484375 557.471679688 l 1,174,175
 0.216796875 577.112304688 0.216796875 577.112304688 24.1513671875 592.220703125 c 1,176,177
 26.1455078125 601.284179688 26.1455078125 601.284179688 30.6337890625 608.083984375 c 128,-1,178
 35.12109375 614.884765625 35.12109375 614.884765625 37.1162109375 616.393554688 c 2,179,-1
 40.109375 619.415039062 l 2,0,1
EndSplineSet
Validated: 33
EndChar

StartChar: N
Encoding: 78 78 16
Width: 584
GlyphClass: 1
Flags: W
LayerCount: 2
Fore
SplineSet
2.1728515625 536.744140625 m 1,0,1
 63.966796875 601.930664062 63.966796875 601.930664062 117.87109375 630.76171875 c 1,2,3
 134.962890625 633.26953125 134.962890625 633.26953125 146.795898438 631.389648438 c 128,-1,4
 158.62890625 629.509765625 158.62890625 629.509765625 165.204101562 624.494140625 c 2,5,-1
 171.77734375 620.734375 l 2,6,7
 173.091796875 620.734375 173.091796875 620.734375 175.063476562 620.734375 c 128,-1,8
 177.037109375 620.734375 177.037109375 620.734375 181.637695312 613.212890625 c 128,-1,9
 186.239257812 605.690429688 186.239257812 605.690429688 188.869140625 590.647460938 c 0,10,11
 194.126953125 574.3515625 194.126953125 574.3515625 194.126953125 560.5625 c 128,-1,12
 194.126953125 546.7734375 194.126953125 546.7734375 191.498046875 540.504882812 c 2,13,-1
 188.869140625 535.491210938 l 1,14,-1
 186.239257812 496.629882812 l 1,15,-1
 184.924804688 467.797851562 l 1,16,-1
 184.924804688 456.515625 l 1,17,18
 184.924804688 456.515625 184.924804688 456.515625 188.869140625 442.725585938 c 1,19,20
 200.701171875 428.9375 200.701171875 428.9375 229.625976562 465.290039062 c 1,21,22
 304.567382812 517.94140625 304.567382812 517.94140625 304.567382812 517.94140625 c 1,23,-1
 362.416992188 551.787109375 l 2,24,25
 363.731445312 553.041015625 363.731445312 553.041015625 365.703125 555.548828125 c 128,-1,26
 367.674804688 558.055664062 367.674804688 558.055664062 377.536132812 563.697265625 c 128,-1,27
 387.396484375 569.336914062 387.396484375 569.336914062 399.885742188 571.845703125 c 128,-1,28
 412.376953125 574.3515625 412.376953125 574.3515625 432.754882812 575.604492188 c 128,-1,29
 453.133789062 576.859375 453.133789062 576.859375 478.114257812 570.590820312 c 0,30,31
 512.296875 561.815429688 512.296875 561.815429688 534.6484375 539.87890625 c 128,-1,32
 557 517.94140625 557 517.94140625 562.2578125 500.390625 c 2,33,-1
 567.517578125 481.5859375 l 1,34,-1
 580.665039062 433.950195312 l 1,35,36
 575.405273438 347.455078125 575.405273438 347.455078125 557 276 c 0,37,38
 547.795898438 244.662109375 547.795898438 244.662109375 528.075195312 198.279296875 c 128,-1,39
 508.353515625 151.896484375 508.353515625 151.896484375 492.576171875 121.811523438 c 2,40,-1
 478.114257812 91.7255859375 l 2,41,42
 475.484375 90.47265625 475.484375 90.47265625 472.85546875 87.96484375 c 128,-1,43
 470.2265625 85.458984375 470.2265625 85.458984375 466.28125 74.8017578125 c 128,-1,44
 462.337890625 64.146484375 462.337890625 64.146484375 463.651367188 50.357421875 c 1,45,46
 453.133789062 37.822265625 453.133789062 37.822265625 439.328125 25.912109375 c 128,-1,47
 425.524414062 14.00390625 425.524414062 14.00390625 416.321289062 8.990234375 c 2,48,-1
 407.118164062 2.72265625 l 2,49,50
 403.172851562 2.72265625 403.172851562 2.72265625 398.571289062 2.0947265625 c 128,-1,51
 393.970703125 1.4677734375 393.970703125 1.4677734375 386.73828125 6.482421875 c 128,-1,52
 379.506835938 11.4951171875 379.506835938 11.4951171875 382.137695312 22.779296875 c 0,53,54
 396.599609375 42.8359375 396.599609375 42.8359375 396.599609375 42.8359375 c 1,55,-1
 408.432617188 56.6259765625 l 1,56,-1
 424.209960938 87.96484375 l 1,57,-1
 459.708007812 168.192382812 l 1,58,-1
 475.484375 219.58984375 l 2,59,60
 476.799804688 225.858398438 476.799804688 225.858398438 478.771484375 235.259765625 c 128,-1,61
 480.743164062 244.662109375 480.743164062 244.662109375 484.688476562 271.612304688 c 128,-1,62
 488.6328125 298.565429688 488.6328125 298.565429688 491.26171875 322.383789062 c 128,-1,63
 493.891601562 346.201171875 493.891601562 346.201171875 493.891601562 371.272460938 c 128,-1,64
 493.891601562 396.344726562 493.891601562 396.344726562 488.6328125 411.38671875 c 0,65,66
 482.05859375 437.711914062 482.05859375 437.711914062 463.651367188 459.650390625 c 128,-1,67
 445.245117188 481.5859375 445.245117188 481.5859375 430.783203125 490.361328125 c 2,68,-1
 415.005859375 499.13671875 l 2,69,70
 413.69140625 500.390625 413.69140625 500.390625 411.0625 501.64453125 c 128,-1,71
 408.432617188 502.897460938 408.432617188 502.897460938 398.571289062 506.03125 c 128,-1,72
 388.7109375 509.166015625 388.7109375 509.166015625 378.850585938 510.419921875 c 128,-1,73
 368.990234375 511.672851562 368.990234375 511.672851562 354.52734375 510.419921875 c 128,-1,74
 340.065429688 509.166015625 340.065429688 509.166015625 326.91796875 504.15234375 c 0,75,76
 304.567382812 495.376953125 304.567382812 495.376953125 271.697265625 474.065429688 c 128,-1,77
 238.829101562 452.754882812 238.829101562 452.754882812 217.79296875 436.458984375 c 2,78,-1
 195.442382812 420.163085938 l 1,79,-1
 192.8125 413.89453125 l 2,80,81
 190.18359375 403.866210938 190.18359375 403.866210938 186.896484375 387.568359375 c 128,-1,82
 183.610351562 371.272460938 183.610351562 371.272460938 177.037109375 324.263671875 c 128,-1,83
 170.459960938 277.254882812 170.459960938 277.254882812 178.3515625 250.928710938 c 1,84,85
 179.665039062 116.796875 179.665039062 116.796875 179.665039062 116.796875 c 1,86,-1
 183.610351562 82.9501953125 l 1,87,-1
 182.293945312 72.921875 l 1,88,89
 182.293945312 72.921875 182.293945312 72.921875 148.110351562 37.822265625 c 1,90,91
 87.6318359375 -12.3212890625 87.6318359375 -12.3212890625 86.31640625 47.8505859375 c 1,92,93
 92.890625 97.9931640625 92.890625 97.9931640625 92.890625 97.9931640625 c 1,94,-1
 92.890625 298.565429688 l 1,95,-1
 95.5205078125 381.301757812 l 1,96,-1
 106.038085938 472.8125 l 1,97,-1
 107.352539062 491.616210938 l 2,98,99
 107.352539062 494.123046875 107.352539062 494.123046875 107.352539062 497.255859375 c 128,-1,100
 107.352539062 500.390625 107.352539062 500.390625 106.696289062 509.79296875 c 128,-1,101
 106.038085938 519.194335938 106.038085938 519.194335938 104.067382812 526.715820312 c 128,-1,102
 102.09375 534.237304688 102.09375 534.237304688 98.8076171875 544.265625 c 128,-1,103
 95.5205078125 554.294921875 95.5205078125 554.294921875 88.947265625 558.055664062 c 128,-1,104
 82.373046875 561.815429688 82.373046875 561.815429688 73.1689453125 564.950195312 c 128,-1,105
 63.966796875 568.083984375 63.966796875 568.083984375 50.8193359375 560.5625 c 0,106,107
 15.3203125 537.998046875 15.3203125 537.998046875 15.3203125 537.998046875 c 1,108,-1
 8.7470703125 532.984375 l 1,109,110
 8.7470703125 532.984375 8.7470703125 532.984375 2.1728515625 536.744140625 c 1,0,1
EndSplineSet
Validated: 33
EndChar

StartChar: O
Encoding: 79 79 17
Width: 550
GlyphClass: 1
Flags: W
LayerCount: 2
Fore
SplineSet
283.990234375 586.341796875 m 2,0,1
 289.71484375 586.341796875 289.71484375 586.341796875 298.301757812 585.701171875 c 128,-1,2
 306.887695312 585.060546875 306.887695312 585.060546875 332.076171875 581.857421875 c 128,-1,3
 357.263671875 578.654296875 357.263671875 578.654296875 378.444335938 572.888671875 c 128,-1,4
 399.625 567.123046875 399.625 567.123046875 423.668945312 553.669921875 c 128,-1,5
 447.7109375 540.216796875 447.7109375 540.216796875 460.3046875 520.99609375 c 0,6,7
 479.768554688 492.80859375 479.768554688 492.80859375 494.079101562 467.82421875 c 128,-1,8
 508.390625 442.838867188 508.390625 442.838867188 512.970703125 431.307617188 c 2,9,-1
 516.405273438 421.057617188 l 2,10,11
 518.694335938 415.931640625 518.694335938 415.931640625 521.556640625 408.244140625 c 128,-1,12
 524.418945312 400.556640625 524.418945312 400.556640625 531.288085938 376.211914062 c 128,-1,13
 538.158203125 351.8671875 538.158203125 351.8671875 541.592773438 332.008789062 c 128,-1,14
 545.02734375 312.1484375 545.02734375 312.1484375 547.317382812 283.319335938 c 128,-1,15
 549.606445312 254.490234375 549.606445312 254.490234375 542.737304688 237.833984375 c 0,16,17
 541.592773438 225.020507812 541.592773438 225.020507812 538.158203125 214.770507812 c 128,-1,18
 534.72265625 204.520507812 534.72265625 204.520507812 533.578125 200.67578125 c 2,19,-1
 531.288085938 196.833007812 l 1,20,-1
 501.521484375 145.58203125 l 1,21,-1
 462.594726562 103.298828125 l 1,22,-1
 414.508789062 64.8603515625 l 1,23,-1
 395.045898438 46.923828125 l 2,24,25
 387.03125 35.3916015625 387.03125 35.3916015625 330.930664062 16.1728515625 c 1,26,27
 312.61328125 17.4541015625 312.61328125 17.4541015625 297.15625 15.53125 c 128,-1,28
 281.700195312 13.6103515625 281.700195312 13.6103515625 275.9765625 9.765625 c 2,29,-1
 269.106445312 7.2021484375 l 1,30,-1
 242.7734375 3.359375 l 2,31,32
 239.338867188 3.359375 239.338867188 3.359375 233.615234375 2.71875 c 128,-1,33
 227.889648438 2.0791015625 227.889648438 2.0791015625 209 4 c 128,-1,34
 190.108398438 5.9228515625 190.108398438 5.9228515625 171.790039062 10.4072265625 c 128,-1,35
 153.471679688 14.890625 153.471679688 14.890625 127.138671875 26.4228515625 c 128,-1,36
 100.806640625 37.955078125 100.806640625 37.955078125 76.7626953125 55.8916015625 c 1,37,38
 49.28515625 89.205078125 49.28515625 89.205078125 33.2578125 119.315429688 c 128,-1,39
 17.228515625 149.42578125 17.228515625 149.42578125 13.7939453125 163.51953125 c 2,40,-1
 11.50390625 176.33203125 l 2,41,42
 -2.234375 251.928710938 -2.234375 251.928710938 22.953125 358.274414062 c 0,43,44
 36.6923828125 396.712890625 36.6923828125 396.712890625 51.576171875 425.541015625 c 128,-1,45
 66.458984375 454.370117188 66.458984375 454.370117188 73.328125 464.62109375 c 2,46,-1
 81.3427734375 473.58984375 l 1,47,48
 119.125 501.77734375 119.125 501.77734375 131.71875 532.52734375 c 1,49,50
 154.6171875 549.184570312 154.6171875 549.184570312 172.362304688 558.153320312 c 128,-1,51
 190.108398438 567.123046875 190.108398438 567.123046875 195.833007812 568.404296875 c 2,52,-1
 201.557617188 569.685546875 l 1,53,-1
 243.918945312 579.935546875 l 1,54,-1
 283.990234375 586.341796875 l 2,0,1
245.063476562 537.653320312 m 1,55,-1
 227.889648438 537.653320312 l 1,56,-1
 202.702148438 531.247070312 l 2,57,58
 188.962890625 526.122070312 188.962890625 526.122070312 171.217773438 507.54296875 c 128,-1,59
 153.471679688 488.963867188 153.471679688 488.963867188 143.16796875 472.307617188 c 2,60,-1
 131.71875 456.932617188 l 2,61,62
 106.530273438 422.337890625 106.530273438 422.337890625 91.646484375 359.555664062 c 0,63,64
 77.908203125 319.834960938 77.908203125 319.834960938 75.0458984375 280.755859375 c 128,-1,65
 72.18359375 241.677734375 72.18359375 241.677734375 76.7626953125 222.458007812 c 2,66,-1
 80.1982421875 203.239257812 l 1,67,68
 91.646484375 166.083007812 91.646484375 166.083007812 113.399414062 140.45703125 c 1,69,70
 131.71875 104.581054688 131.71875 104.581054688 172.362304688 82.158203125 c 128,-1,71
 213.005859375 59.736328125 213.005859375 59.736328125 245.063476562 55.8916015625 c 2,72,-1
 275.9765625 50.7666015625 l 1,73,-1
 333.220703125 57.1728515625 l 1,74,75
 360.698242188 68.705078125 360.698242188 68.705078125 383.596679688 77.673828125 c 1,76,77
 404.205078125 93.0478515625 404.205078125 93.0478515625 416.2265625 105.221679688 c 128,-1,78
 428.247070312 117.393554688 428.247070312 117.393554688 430.538085938 123.80078125 c 2,79,-1
 432.827148438 128.924804688 l 1,80,81
 440.841796875 132.76953125 440.841796875 132.76953125 456.870117188 187.864257812 c 1,82,83
 467.173828125 204.520507812 467.173828125 204.520507812 467.74609375 232.708007812 c 128,-1,84
 468.319335938 260.897460938 468.319335938 260.897460938 462.594726562 290.366210938 c 128,-1,85
 456.870117188 319.834960938 456.870117188 319.834960938 450.000976562 347.3828125 c 128,-1,86
 443.130859375 374.930664062 443.130859375 374.930664062 437.407226562 391.586914062 c 2,87,-1
 431.681640625 408.244140625 l 1,88,89
 401.915039062 471.026367188 401.915039062 471.026367188 364.1328125 500.49609375 c 1,90,91
 352.68359375 517.153320312 352.68359375 517.153320312 322.916992188 526.76171875 c 128,-1,92
 293.149414062 536.37109375 293.149414062 536.37109375 269.106445312 537.653320312 c 2,93,-1
 245.063476562 537.653320312 l 1,55,-1
EndSplineSet
Validated: 33
EndChar

StartChar: P
Encoding: 80 80 18
Width: 573
GlyphClass: 1
Flags: W
LayerCount: 2
Fore
SplineSet
5.41015625 552.751953125 m 5,0,-1
 42.181640625 571.629882812 l 5,1,-1
 58.7890625 574.9609375 l 5,2,3
 81.3251953125 571.629882812 81.3251953125 571.629882812 102.676757812 580.512695312 c 4,4,5
 114.538085938 581.624023438 114.538085938 581.624023438 121.655273438 579.958007812 c 132,-1,6
 128.772460938 578.291992188 128.772460938 578.291992188 129.958984375 577.182617188 c 6,7,-1
 131.14453125 574.9609375 l 5,8,-1
 150.124023438 561.635742188 l 6,9,10
 152.495117188 559.415039062 152.495117188 559.415039062 156.0546875 554.416992188 c 132,-1,11
 159.614257812 549.420898438 159.614257812 549.420898438 164.951171875 536.650390625 c 132,-1,12
 170.288085938 523.880859375 170.288085938 523.880859375 170.288085938 514.99609375 c 4,13,14
 171.474609375 483.903320312 171.474609375 483.903320312 171.474609375 483.903320312 c 5,15,-1
 172.661132812 443.926757812 l 5,16,-1
 172.661132812 405.061523438 l 5,17,-1
 172.661132812 398.3984375 l 5,18,-1
 180.96484375 403.950195312 l 5,19,-1
 185.708984375 407.282226562 l 5,20,-1
 226.0390625 435.04296875 l 5,21,-1
 259.251953125 458.36328125 l 5,22,-1
 275.857421875 469.467773438 l 5,23,-1
 315.001953125 488.345703125 l 5,24,-1
 341.09765625 497.228515625 l 6,25,26
 348.213867188 499.450195312 348.213867188 499.450195312 359.484375 502.2265625 c 132,-1,27
 370.751953125 505.001953125 370.751953125 505.001953125 401 510 c 132,-1,28
 431.247070312 514.99609375 431.247070312 514.99609375 445.482421875 509.444335938 c 4,29,30
 463.274414062 505.001953125 463.274414062 505.001953125 475.729492188 500.005859375 c 132,-1,31
 488.18359375 495.0078125 488.18359375 495.0078125 491.743164062 491.676757812 c 6,32,-1
 495.301757812 489.456054688 l 5,33,34
 532.072265625 460.584960938 532.072265625 460.584960938 541.561523438 425.048828125 c 4,35,36
 547.493164062 416.165039062 547.493164062 416.165039062 552.23828125 407.836914062 c 132,-1,37
 556.982421875 399.508789062 556.982421875 399.508789062 558.16796875 395.067382812 c 6,38,-1
 559.354492188 390.625 l 6,39,40
 560.541015625 386.18359375 560.541015625 386.18359375 562.319335938 378.41015625 c 132,-1,41
 564.099609375 370.63671875 564.099609375 370.63671875 566.470703125 348.983398438 c 132,-1,42
 568.844726562 327.330078125 568.844726562 327.330078125 561.7265625 317.334960938 c 5,43,44
 560.541015625 305.120117188 560.541015625 305.120117188 556.982421875 294.016601562 c 132,-1,45
 553.423828125 282.911132812 553.423828125 282.911132812 552.23828125 278.46875 c 6,46,-1
 549.864257812 272.916992188 l 5,47,-1
 526.141601562 212.952148438 l 5,48,49
 526.141601562 212.952148438 526.141601562 212.952148438 466.83203125 154.09765625 c 4,50,51
 451.413085938 136.331054688 451.413085938 136.331054688 452.598632812 131.888671875 c 4,52,53
 427.688476562 114.12109375 427.688476562 114.12109375 411.676757812 103.572265625 c 132,-1,54
 395.663085938 93.0224609375 395.663085938 93.0224609375 392.103515625 91.912109375 c 6,55,-1
 388.544921875 90.802734375 l 6,56,57
 386.172851562 88.5810546875 386.172851562 88.5810546875 383.20703125 86.359375 c 132,-1,58
 380.241210938 84.1396484375 380.241210938 84.1396484375 366.600585938 79.697265625 c 132,-1,59
 352.959960938 75.255859375 352.959960938 75.255859375 336.946289062 74.14453125 c 132,-1,60
 320.932617188 73.0341796875 320.932617188 73.0341796875 293.057617188 78.03125 c 132,-1,61
 265.18359375 83.029296875 265.18359375 83.029296875 233.15625 96.3544921875 c 5,62,-1
 220.108398438 104.127929688 l 5,63,64
 208.24609375 130.779296875 208.24609375 130.779296875 191.638671875 139.661132812 c 5,65,66
 190.453125 172.9765625 190.453125 172.9765625 190.453125 172.9765625 c 6,67,68
 190.453125 174.0859375 190.453125 174.0859375 190.453125 177.41796875 c 132,-1,69
 190.453125 180.749023438 190.453125 180.749023438 194.012695312 189.6328125 c 132,-1,70
 197.571289062 198.516601562 197.571289062 198.516601562 203.501953125 206.845703125 c 132,-1,71
 209.43359375 215.172851562 209.43359375 215.172851562 223.666015625 224.056640625 c 132,-1,72
 237.901367188 232.940429688 237.901367188 232.940429688 256.879882812 238.493164062 c 4,73,74
 274.671875 242.934570312 274.671875 242.934570312 288.3125 243.490234375 c 132,-1,75
 301.953125 244.044921875 301.953125 244.044921875 305.512695312 242.934570312 c 6,76,-1
 310.256835938 240.712890625 l 5,77,-1
 318.559570312 235.161132812 l 6,78,79
 326.864257812 227.387695312 326.864257812 227.387695312 310.256835938 220.7265625 c 4,80,81
 301.953125 214.0625 301.953125 214.0625 297.801757812 206.845703125 c 132,-1,82
 293.650390625 199.626953125 293.650390625 199.626953125 293.650390625 195.184570312 c 6,83,-1
 293.650390625 191.853515625 l 6,84,85
 296.0234375 189.6328125 296.0234375 189.6328125 298.396484375 185.190429688 c 132,-1,86
 300.767578125 180.749023438 300.767578125 180.749023438 310.850585938 169.64453125 c 132,-1,87
 320.932617188 158.540039062 320.932617188 158.540039062 331.608398438 150.767578125 c 132,-1,88
 342.284179688 142.994140625 342.284179688 142.994140625 358.889648438 137.442382812 c 132,-1,89
 375.497070312 131.888671875 375.497070312 131.888671875 392.103515625 134.109375 c 5,90,91
 420.572265625 147.434570312 420.572265625 147.434570312 437.772460938 166.313476562 c 132,-1,92
 454.970703125 185.190429688 454.970703125 185.190429688 457.342773438 197.405273438 c 6,93,-1
 459.715820312 209.62109375 l 5,94,-1
 481.06640625 287.353515625 l 6,95,96
 486.997070312 326.21875 486.997070312 326.21875 471.577148438 343.985351562 c 5,97,98
 465.646484375 362.86328125 465.646484375 362.86328125 452.598632812 385.626953125 c 132,-1,99
 439.55078125 408.392578125 439.55078125 408.392578125 430.061523438 420.608398438 c 6,100,-1
 420.572265625 433.93359375 l 6,101,102
 418.19921875 437.263671875 418.19921875 437.263671875 414.047851562 441.706054688 c 132,-1,103
 409.895507812 446.1484375 409.895507812 446.1484375 393.2890625 453.921875 c 132,-1,104
 376.68359375 461.694335938 376.68359375 461.694335938 355.924804688 463.360351562 c 132,-1,105
 335.166992188 465.025390625 335.166992188 465.025390625 297.801757812 455.03125 c 132,-1,106
 260.438476562 445.037109375 260.438476562 445.037109375 217.735351562 419.497070312 c 4,107,108
 165.543945312 387.294921875 165.543945312 387.294921875 169.102539062 382.8515625 c 6,109,-1
 164.358398438 137.442382812 l 5,110,-1
 159.614257812 -82.4296875 l 5,111,-1
 154.869140625 -141.283203125 l 6,112,113
 153.681640625 -143.50390625 153.681640625 -143.50390625 152.495117188 -147.390625 c 132,-1,114
 151.309570312 -151.27734375 151.309570312 -151.27734375 144.786132812 -160.16015625 c 132,-1,115
 138.262695312 -169.044921875 138.262695312 -169.044921875 129.958984375 -175.708007812 c 132,-1,116
 121.655273438 -182.370117188 121.655273438 -182.370117188 105.642578125 -186.811523438 c 132,-1,117
 89.62890625 -191.25390625 89.62890625 -191.25390625 69.4638671875 -189.033203125 c 5,118,119
 65.904296875 -169.044921875 65.904296875 -169.044921875 65.3115234375 -153.498046875 c 132,-1,120
 64.71875 -137.952148438 64.71875 -137.952148438 65.904296875 -133.509765625 c 6,121,-1
 68.27734375 -127.958007812 l 5,122,-1
 76.5810546875 -77.9873046875 l 5,123,-1
 80.140625 20.8427734375 l 5,124,-1
 84.8837890625 407.282226562 l 5,125,-1
 77.7666015625 470.578125 l 6,126,127
 73.021484375 511.665039062 73.021484375 511.665039062 39.80859375 531.653320312 c 4,128,129
 37.4375 532.763671875 37.4375 532.763671875 34.4716796875 533.319335938 c 132,-1,130
 31.505859375 533.874023438 31.505859375 533.874023438 29.1337890625 532.763671875 c 6,131,-1
 26.7607421875 532.763671875 l 5,132,-1
 19.64453125 531.653320312 l 6,133,134
 17.271484375 530.541992188 17.271484375 530.541992188 14.306640625 531.09765625 c 132,-1,135
 11.341796875 531.653320312 11.341796875 531.653320312 6.595703125 535.540039062 c 132,-1,136
 1.8525390625 539.426757812 1.8525390625 539.426757812 3.037109375 546.088867188 c 4,137,138
 5.41015625 552.751953125 5.41015625 552.751953125 5.41015625 552.751953125 c 5,0,-1
EndSplineSet
Validated: 33
EndChar

StartChar: Q
Encoding: 81 81 19
Width: 511
GlyphClass: 1
Flags: W
LayerCount: 2
Fore
SplineSet
508.219726562 608.842773438 m 1,0,1
 490.55859375 597.61328125 490.55859375 597.61328125 475.420898438 589.752929688 c 1,2,3
 466.58984375 576.278320312 466.58984375 576.278320312 460.9140625 563.926757812 c 128,-1,4
 455.236328125 551.57421875 455.236328125 551.57421875 452.713867188 544.836914062 c 2,5,-1
 451.452148438 539.221679688 l 1,6,-1
 448.930664062 516.763671875 l 1,7,-1
 446.407226562 -155.864257812 l 2,8,9
 441.361328125 -160.356445312 441.361328125 -160.356445312 433.162109375 -167.655273438 c 128,-1,10
 424.962890625 -174.954101562 424.962890625 -174.954101562 402.88671875 -185.059570312 c 128,-1,11
 380.809570312 -195.166992188 380.809570312 -195.166992188 364.411132812 -189.552734375 c 1,12,13
 356.841796875 -154.7421875 356.841796875 -154.7421875 356.841796875 -154.7421875 c 1,14,-1
 361.889648438 455.002929688 l 1,15,-1
 360.626953125 475.215820312 l 1,16,17
 360.626953125 475.215820312 360.626953125 475.215820312 359.365234375 480.830078125 c 1,18,19
 351.796875 484.198242188 351.796875 484.198242188 325.306640625 472.969726562 c 0,20,21
 318.998046875 469.600585938 318.998046875 469.600585938 312.060546875 468.478515625 c 128,-1,22
 305.12109375 467.35546875 305.12109375 467.35546875 302.599609375 467.35546875 c 2,23,-1
 298.815429688 468.478515625 l 1,24,-1
 277.370117188 476.338867188 l 1,25,-1
 242.047851562 484.198242188 l 2,26,27
 240.787109375 485.322265625 240.787109375 485.322265625 237.00390625 486.444335938 c 128,-1,28
 233.217773438 487.567382812 233.217773438 487.567382812 223.755859375 489.252929688 c 128,-1,29
 214.296875 490.936523438 214.296875 490.936523438 209.25 487.567382812 c 0,30,31
 160.052734375 469.600585938 160.052734375 469.600585938 160.052734375 469.600585938 c 2,32,33
 141.131835938 465.109375 141.131835938 465.109375 131.0390625 430.298828125 c 0,34,35
 122.208984375 413.455078125 122.208984375 413.455078125 112.748046875 390.435546875 c 128,-1,36
 103.288085938 367.416015625 103.288085938 367.416015625 98.2412109375 351.694335938 c 2,37,-1
 91.93359375 335.974609375 l 2,38,39
 89.41015625 326.990234375 89.41015625 326.990234375 85.625 311.270507812 c 128,-1,40
 81.8427734375 295.548828125 81.8427734375 295.548828125 83.103515625 259.615234375 c 128,-1,41
 84.365234375 223.681640625 84.365234375 223.681640625 100.762695312 203.46875 c 0,42,43
 142.393554688 130.48046875 142.393554688 130.48046875 143.653320312 136.094726562 c 1,44,45
 143.653320312 134.971679688 143.653320312 134.971679688 145.546875 132.725585938 c 128,-1,46
 147.438476562 130.48046875 147.438476562 130.48046875 153.115234375 127.111328125 c 128,-1,47
 158.791992188 123.743164062 158.791992188 123.743164062 163.836914062 122.05859375 c 128,-1,48
 168.883789062 120.374023438 168.883789062 120.374023438 175.190429688 123.180664062 c 128,-1,49
 181.499023438 125.98828125 181.499023438 125.98828125 187.8046875 133.84765625 c 0,50,51
 197.897460938 147.323242188 197.897460938 147.323242188 205.466796875 158.553710938 c 128,-1,52
 213.03515625 169.782226562 213.03515625 169.782226562 215.557617188 174.2734375 c 2,53,-1
 218.080078125 179.888671875 l 1,54,-1
 218.080078125 183.256835938 l 1,55,-1
 257.186523438 201.223632812 l 1,56,-1
 262.232421875 202.346679688 l 1,57,-1
 269.80078125 197.854492188 l 1,58,-1
 279.893554688 198.978515625 l 1,59,-1
 292.508789062 204.591796875 l 2,60,61
 293.768554688 205.71484375 293.768554688 205.71484375 295.662109375 205.71484375 c 128,-1,62
 297.552734375 205.71484375 297.552734375 205.71484375 300.076171875 204.03125 c 128,-1,63
 302.599609375 202.346679688 302.599609375 202.346679688 302.599609375 196.732421875 c 0,64,65
 282.415039062 158.553710938 282.415039062 158.553710938 282.415039062 158.553710938 c 1,66,67
 235.7421875 109.14453125 235.7421875 109.14453125 178.974609375 84.439453125 c 1,68,69
 153.74609375 81.0712890625 153.74609375 81.0712890625 132.931640625 79.94921875 c 128,-1,70
 112.1171875 78.8251953125 112.1171875 78.8251953125 104.547851562 78.8251953125 c 2,71,-1
 96.9794921875 78.8251953125 l 1,72,73
 78.0576171875 72.087890625 78.0576171875 72.087890625 51.5673828125 106.8984375 c 0,74,75
 32.6455078125 137.216796875 32.6455078125 137.216796875 21.291015625 163.60546875 c 128,-1,76
 9.9384765625 189.994140625 9.9384765625 189.994140625 7.4150390625 201.223632812 c 2,77,-1
 4.8916015625 211.330078125 l 2,78,79
 3.6318359375 215.821289062 3.6318359375 215.821289062 3 223.120117188 c 128,-1,80
 2.369140625 230.418945312 2.369140625 230.418945312 3 254 c 128,-1,81
 3.6318359375 277.58203125 3.6318359375 277.58203125 7.4150390625 302.286132812 c 128,-1,82
 11.2001953125 326.990234375 11.2001953125 326.990234375 24.4462890625 362.923828125 c 128,-1,83
 37.689453125 398.857421875 37.689453125 398.857421875 57.8740234375 433.66796875 c 1,84,85
 104.547851562 466.232421875 104.547851562 466.232421875 148.69921875 488.12890625 c 128,-1,86
 192.852539062 510.026367188 192.852539062 510.026367188 214.296875 515.640625 c 2,87,-1
 234.479492188 520.1328125 l 1,88,-1
 286.200195312 533.607421875 l 1,89,90
 339.182617188 527.9921875 339.182617188 527.9921875 353.057617188 512.271484375 c 0,91,92
 356.841796875 511.149414062 356.841796875 511.149414062 359.365234375 511.709960938 c 128,-1,93
 361.889648438 512.271484375 361.889648438 512.271484375 364.411132812 513.39453125 c 2,94,-1
 366.934570312 514.517578125 l 1,95,-1
 373.2421875 534.73046875 l 2,96,97
 374.502929688 536.975585938 374.502929688 536.975585938 375.134765625 540.344726562 c 128,-1,98
 375.764648438 543.713867188 375.764648438 543.713867188 382.072265625 552.697265625 c 128,-1,99
 388.37890625 561.680664062 388.37890625 561.680664062 396.579101562 570.1015625 c 128,-1,100
 404.778320312 578.524414062 404.778320312 578.524414062 421.177734375 587.5078125 c 128,-1,101
 437.576171875 596.491210938 437.576171875 596.491210938 459.020507812 603.228515625 c 0,102,103
 485.512695312 615.580078125 485.512695312 615.580078125 485.512695312 615.580078125 c 1,104,-1
 504.434570312 615.580078125 l 1,105,106
 504.434570312 615.580078125 504.434570312 615.580078125 508.219726562 608.842773438 c 1,0,1
EndSplineSet
Validated: 33
EndChar

StartChar: R
Encoding: 82 82 20
Width: 551
GlyphClass: 1
Flags: W
LayerCount: 2
Fore
SplineSet
3.505859375 530.317382812 m 1,0,1
 22.3955078125 538.967773438 22.3955078125 538.967773438 29.951171875 552.563476562 c 1,2,3
 56.3994140625 571.103515625 56.3994140625 571.103515625 77.80859375 581.608398438 c 128,-1,4
 99.21875 592.115234375 99.21875 592.115234375 106.775390625 594.5859375 c 2,5,-1
 114.331054688 595.823242188 l 2,6,7
 116.850585938 595.823242188 116.850585938 595.823242188 120.627929688 595.823242188 c 128,-1,8
 124.40625 595.823242188 124.40625 595.823242188 134.481445312 593.967773438 c 128,-1,9
 144.557617188 592.115234375 144.557617188 592.115234375 152.7421875 588.40625 c 128,-1,10
 160.9296875 584.698242188 160.9296875 584.698242188 169.745117188 576.665039062 c 128,-1,11
 178.559570312 568.631835938 178.559570312 568.631835938 181.079101562 558.743164062 c 0,12,13
 191.153320312 541.440429688 191.153320312 541.440429688 196.821289062 524.754882812 c 128,-1,14
 202.489257812 508.068359375 202.489257812 508.068359375 203.747070312 499.41796875 c 2,15,-1
 205.0078125 490.765625 l 1,16,-1
 217.6015625 372.11328125 l 1,17,-1
 216.341796875 305.37109375 l 1,18,19
 216.341796875 305.37109375 216.341796875 305.37109375 220.120117188 288.067382812 c 1,20,21
 228.934570312 278.180664062 228.934570312 278.180664062 247.826171875 305.37109375 c 0,22,23
 289.38671875 370.876953125 289.38671875 370.876953125 289.38671875 370.876953125 c 1,24,-1
 411.546875 513.013671875 l 1,25,-1
 470.73828125 558.743164062 l 2,26,27
 470.73828125 559.979492188 470.73828125 559.979492188 471.998046875 561.215820312 c 128,-1,28
 473.2578125 562.451171875 473.2578125 562.451171875 475.77734375 563.686523438 c 128,-1,29
 478.294921875 564.923828125 478.294921875 564.923828125 480.813476562 564.923828125 c 128,-1,30
 483.333007812 564.923828125 483.333007812 564.923828125 486.481445312 561.215820312 c 128,-1,31
 489.629882812 557.5078125 489.629882812 557.5078125 490.889648438 550.091796875 c 0,32,33
 490.889648438 537.732421875 490.889648438 537.732421875 490.258789062 526.608398438 c 128,-1,34
 489.629882812 515.485351562 489.629882812 515.485351562 488.370117188 510.541015625 c 2,35,-1
 487.110351562 505.59765625 l 1,36,-1
 478.294921875 463.57421875 l 1,37,-1
 475.77734375 456.159179688 l 1,38,39
 465.702148438 289.3046875 465.702148438 289.3046875 487.110351562 196.607421875 c 0,40,41
 492.1484375 168.180664062 492.1484375 168.180664062 498.4453125 147.169921875 c 128,-1,42
 504.7421875 126.158203125 504.7421875 126.158203125 509.779296875 119.978515625 c 2,43,-1
 513.55859375 113.797851562 l 1,44,-1
 546.301757812 71.775390625 l 1,45,46
 546.301757812 71.775390625 546.301757812 71.775390625 547.561523438 69.921875 c 128,-1,47
 548.821289062 68.0673828125 548.821289062 68.0673828125 549.450195312 62.5048828125 c 128,-1,48
 550.080078125 56.943359375 550.080078125 56.943359375 547.561523438 50.763671875 c 128,-1,49
 545.04296875 44.583984375 545.04296875 44.583984375 535.59765625 35.9326171875 c 128,-1,50
 526.15234375 27.28125 526.15234375 27.28125 511.0390625 18.62890625 c 2,51,-1
 492.1484375 9.9775390625 l 2,52,53
 487.110351562 11.212890625 487.110351562 11.212890625 480.184570312 12.44921875 c 128,-1,54
 473.2578125 13.685546875 473.2578125 13.685546875 458.14453125 26.0439453125 c 128,-1,55
 443.03125 38.4033203125 443.03125 38.4033203125 435.475585938 58.1806640625 c 0,56,57
 426.659179688 79.1923828125 426.659179688 79.1923828125 422.252929688 95.876953125 c 128,-1,58
 417.844726562 112.561523438 417.844726562 112.561523438 417.844726562 117.505859375 c 2,59,-1
 416.584960938 123.686523438 l 1,60,-1
 407.76953125 168.180664062 l 1,61,-1
 401.47265625 257.169921875 l 1,62,-1
 400.213867188 363.462890625 l 1,63,-1
 397.694335938 390.653320312 l 2,64,65
 398.953125 394.360351562 398.953125 394.360351562 399.583007812 399.3046875 c 128,-1,66
 400.213867188 404.249023438 400.213867188 404.249023438 400.213867188 414.754882812 c 128,-1,67
 400.213867188 425.259765625 400.213867188 425.259765625 397.694335938 429.5859375 c 128,-1,68
 395.174804688 433.911132812 395.174804688 433.911132812 385.729492188 428.967773438 c 128,-1,69
 376.28515625 424.0234375 376.28515625 424.0234375 359.913085938 405.484375 c 2,70,-1
 312.055664062 339.978515625 l 1,71,-1
 208.786132812 211.438476562 l 1,72,73
 210.044921875 12.44921875 210.044921875 12.44921875 196.19140625 -32.044921875 c 0,74,75
 194.932617188 -44.404296875 194.932617188 -44.404296875 191.153320312 -61.7080078125 c 128,-1,76
 187.375 -79.01171875 187.375 -79.01171875 182.338867188 -95.697265625 c 128,-1,77
 177.30078125 -112.3828125 177.30078125 -112.3828125 172.893554688 -127.213867188 c 128,-1,78
 168.485351562 -142.045898438 168.485351562 -142.045898438 165.965820312 -150.697265625 c 2,79,-1
 162.1875 -159.349609375 l 1,80,-1
 153.37109375 -179.125 l 2,81,82
 149.59375 -180.360351562 149.59375 -180.360351562 144.557617188 -183.450195312 c 128,-1,83
 139.518554688 -186.540039062 139.518554688 -186.540039062 127.5546875 -190.8671875 c 128,-1,84
 115.58984375 -195.19140625 115.58984375 -195.19140625 109.293945312 -193.95703125 c 0,85,86
 91.662109375 -189.01171875 91.662109375 -189.01171875 91.662109375 -189.01171875 c 2,87,88
 82.8466796875 -181.596679688 82.8466796875 -181.596679688 96.69921875 -174.1796875 c 0,89,90
 102.997070312 -165.529296875 102.997070312 -165.529296875 106.145507812 -158.73046875 c 128,-1,91
 109.293945312 -151.93359375 109.293945312 -151.93359375 109.293945312 -148.225585938 c 2,92,-1
 109.293945312 -145.75390625 l 1,93,-1
 113.072265625 -125.978515625 l 1,94,-1
 135.741210938 9.9775390625 l 1,95,-1
 137 52 l 1,96,-1
 142.038085938 137.28125 l 1,97,-1
 145.815429688 280.653320312 l 1,98,-1
 140.778320312 416.608398438 l 1,99,-1
 134.481445312 453.686523438 l 2,100,101
 134.481445312 456.159179688 134.481445312 456.159179688 134.481445312 459.866210938 c 128,-1,102
 134.481445312 463.57421875 134.481445312 463.57421875 131.962890625 474.698242188 c 128,-1,103
 129.443359375 485.822265625 129.443359375 485.822265625 123.77734375 495.708984375 c 128,-1,104
 118.109375 505.59765625 118.109375 505.59765625 104.255859375 516.720703125 c 128,-1,105
 90.40234375 527.845703125 90.40234375 527.845703125 71.51171875 535.259765625 c 0,106,107
 60.177734375 535.259765625 60.177734375 535.259765625 51.3623046875 534.024414062 c 128,-1,108
 42.5458984375 532.788085938 42.5458984375 532.788085938 40.0263671875 531.551757812 c 2,109,-1
 36.2490234375 529.080078125 l 1,110,-1
 19.8779296875 520.428710938 l 2,111,112
 17.3583984375 519.192382812 17.3583984375 519.192382812 14.2099609375 519.192382812 c 128,-1,113
 11.0615234375 519.192382812 11.0615234375 519.192382812 6.654296875 521.665039062 c 128,-1,114
 2.2451171875 524.137695312 2.2451171875 524.137695312 3.505859375 530.317382812 c 1,0,1
EndSplineSet
Validated: 33
EndChar

StartChar: S
Encoding: 83 83 21
Width: 585
GlyphClass: 1
Flags: W
LayerCount: 2
Fore
SplineSet
3.744140625 556.797851562 m 1,0,-1
 8.1630859375 559.712890625 l 1,1,-1
 24 567 l 1,2,3
 35.94921875 578.015625 35.94921875 578.015625 52.61328125 586.98046875 c 128,-1,4
 69.2783203125 595.9453125 69.2783203125 595.9453125 79.96875 599.404296875 c 2,5,-1
 90.6591796875 602.862304688 l 1,6,-1
 139.767578125 605.1484375 l 2,7,8
 143.100585938 605.176757812 143.100585938 605.176757812 146.638671875 605.194335938 c 0,9,10
 161.282226562 602.092773438 161.282226562 602.092773438 172.43359375 597.078125 c 128,-1,11
 183.586914062 592.063476562 183.586914062 592.063476562 189.043945312 587.122070312 c 128,-1,12
 194.500976562 582.1796875 194.500976562 582.1796875 197.866210938 577.682617188 c 128,-1,13
 201.232421875 573.18359375 201.232421875 573.18359375 201.924804688 570.383789062 c 2,14,-1
 202.618164062 567.584960938 l 1,15,-1
 217.348632812 527.642578125 l 2,16,17
 221.989257812 512.541015625 221.989257812 512.541015625 230.18359375 505.063476562 c 128,-1,18
 238.376953125 497.5859375 238.376953125 497.5859375 246.755859375 497.702148438 c 128,-1,19
 255.134765625 497.817382812 255.134765625 497.817382812 262.8515625 500.08984375 c 128,-1,20
 270.567382812 502.36328125 270.567382812 502.36328125 275.446289062 505.673828125 c 2,21,-1
 280.326171875 508.982421875 l 1,22,-1
 341.4609375 547.176757812 l 2,23,24
 356.703125 556.005859375 356.703125 556.005859375 429.11328125 598.489257812 c 0,25,26
 450.555664062 613.650390625 450.555664062 613.650390625 466.66796875 621.594726562 c 128,-1,27
 482.780273438 629.538085938 482.780273438 629.538085938 488.170898438 629.903320312 c 2,28,-1
 493.5625 630.266601562 l 1,29,-1
 506.452148438 636.389648438 l 1,30,-1
 512.713867188 631.43359375 l 2,31,32
 563.206054688 590.598632812 563.206054688 590.598632812 581.952148438 580.99609375 c 1,33,34
 579.497070312 565.8359375 579.497070312 565.8359375 564.856445312 555.266601562 c 128,-1,35
 550.217773438 544.698242188 550.217773438 544.698242188 536.805664062 541.708984375 c 2,36,-1
 523.393554688 538.721679688 l 1,37,-1
 517.1328125 541.344726562 l 2,38,39
 483.559570312 559.16015625 483.559570312 559.16015625 453.051757812 574.581054688 c 0,40,41
 437.461914062 579.505859375 437.461914062 579.505859375 426.413085938 577.951171875 c 128,-1,42
 415.364257812 576.397460938 415.364257812 576.397460938 409.348632812 571.991210938 c 2,43,-1
 403.333007812 567.584960938 l 2,44,45
 350.971679688 531.681640625 350.971679688 531.681640625 317.890625 510.149414062 c 1,46,47
 286.439453125 495.373046875 286.439453125 495.373046875 264.817382812 481.05078125 c 128,-1,48
 243.196289062 466.725585938 243.196289062 466.725585938 234.801757812 456.838867188 c 128,-1,49
 226.41015625 446.948242188 226.41015625 446.948242188 222.509765625 439.169921875 c 128,-1,50
 218.609375 431.392578125 218.609375 431.392578125 219.452148438 427.622070312 c 2,51,-1
 220.295898438 423.852539062 l 1,52,-1
 219.927734375 336.387695312 l 2,53,54
 220.666015625 311.814453125 220.666015625 311.814453125 221.76953125 269.040039062 c 0,55,56
 225.786132812 252.198242188 225.786132812 252.198242188 224.359375 239.783203125 c 128,-1,57
 222.931640625 227.3671875 222.931640625 227.3671875 219.138671875 220.265625 c 2,58,-1
 215.345703125 213.166992188 l 1,59,-1
 215.084960938 184.098632812 l 1,60,-1
 215.139648438 130.846679688 l 2,61,62
 214.95703125 101.752929688 214.95703125 101.752929688 215.32421875 95.568359375 c 0,63,64
 216.715820312 93.302734375 216.715820312 93.302734375 217.037109375 90.16796875 c 128,-1,65
 217.359375 87.033203125 217.359375 87.033203125 216.986328125 85.0322265625 c 2,66,-1
 216.612304688 83.033203125 l 2,67,68
 215.13671875 78.9296875 215.13671875 78.9296875 213.297851562 68.1630859375 c 0,69,70
 208.387695312 60.51953125 208.387695312 60.51953125 206.177734375 44.193359375 c 128,-1,71
 203.96875 27.8662109375 203.96875 27.8662109375 204.213867188 15.361328125 c 2,72,-1
 204.459960938 2.857421875 l 1,73,-1
 203.72265625 -106.328125 l 1,74,-1
 188.991210938 -120.758789062 l 1,75,-1
 162.474609375 -129.942382812 l 2,76,77
 160.326171875 -130.481445312 160.326171875 -130.481445312 156.627929688 -131.263671875 c 128,-1,78
 152.9296875 -132.045898438 152.9296875 -132.045898438 142.91015625 -133.237304688 c 128,-1,79
 132.888671875 -134.4296875 132.888671875 -134.4296875 124.541015625 -134.170898438 c 0,80,81
 117.33984375 -133.91015625 117.33984375 -133.91015625 111.354492188 -131.250976562 c 128,-1,82
 105.370117188 -128.590820312 105.370117188 -128.590820312 102.987304688 -126.05859375 c 2,83,-1
 100.602539062 -123.529296875 l 2,84,85
 101.366210938 -121.017578125 101.366210938 -121.017578125 115.334960938 -104.139648438 c 1,86,-1
 121.962890625 -21.9248046875 l 1,87,-1
 124.172851562 15.39453125 l 1,88,-1
 126.3828125 76.03515625 l 1,89,-1
 133.01171875 246.298828125 l 1,90,-1
 130.802734375 502.861328125 l 2,91,92
 130.834960938 505.640625 130.834960938 505.640625 129.829101562 510.197265625 c 128,-1,93
 128.821289062 514.75390625 128.821289062 514.75390625 119.254882812 525.651367188 c 128,-1,94
 109.688476562 536.55078125 109.688476562 536.55078125 92.5009765625 543.677734375 c 1,95,96
 75.8046875 543.548828125 75.8046875 543.548828125 53.615234375 546.828125 c 128,-1,97
 31.4267578125 550.107421875 31.4267578125 550.107421875 17.5859375 553.452148438 c 2,98,-1
 3.744140625 556.797851562 l 1,0,-1
EndSplineSet
Validated: 33
EndChar

StartChar: T
Encoding: 84 84 22
Width: 531
GlyphClass: 1
Flags: W
LayerCount: 2
Fore
SplineSet
22.880859375 563.587890625 m 2,0,-1
 527.72265625 596.796875 l 1,1,2
 534.154296875 587.854492188 534.154296875 587.854492188 512.448242188 520.159179688 c 1,3,4
 210.186523438 486.952148438 210.186523438 486.952148438 210.186523438 486.952148438 c 1,5,6
 185.266601562 463.9609375 185.266601562 463.9609375 169.188476562 439.69140625 c 1,7,8
 152.307617188 403.9296875 152.307617188 403.9296875 140.248046875 377.745117188 c 128,-1,9
 128.189453125 351.5625 128.189453125 351.5625 124.974609375 343.895507812 c 2,10,-1
 121.758789062 334.956054688 l 2,11,12
 120.151367188 329.848632812 120.151367188 329.848632812 117.338867188 321.545898438 c 128,-1,13
 114.524414062 313.244140625 114.524414062 313.244140625 108.895507812 288.336914062 c 128,-1,14
 103.26953125 263.430664062 103.26953125 263.430664062 100.858398438 240.439453125 c 128,-1,15
 98.4462890625 217.44921875 98.4462890625 217.44921875 101.258789062 188.7109375 c 128,-1,16
 104.073242188 159.971679688 104.073242188 159.971679688 114.524414062 138.258789062 c 0,17,18
 119.348632812 128.040039062 119.348632812 128.040039062 126.180664062 121.015625 c 128,-1,19
 133.013671875 113.98828125 133.013671875 113.98828125 137.836914062 111.436523438 c 2,20,-1
 142.66015625 108.880859375 l 2,21,22
 149.895507812 106.326171875 149.895507812 106.326171875 161.55078125 103.771484375 c 128,-1,23
 173.20703125 101.219726562 173.20703125 101.219726562 204.559570312 105.688476562 c 128,-1,24
 235.91015625 110.158203125 235.91015625 110.158203125 261.634765625 130.59375 c 0,25,26
 275.301757812 143.3671875 275.301757812 143.3671875 285.752929688 157.416992188 c 128,-1,27
 296.204101562 171.466796875 296.204101562 171.466796875 299.418945312 177.854492188 c 2,28,-1
 302.633789062 185.517578125 l 1,29,-1
 333.181640625 235.330078125 l 1,30,-1
 339.612304688 245.549804688 l 2,31,32
 340.416992188 246.82421875 340.416992188 246.82421875 341.219726562 248.1015625 c 128,-1,33
 342.025390625 249.379882812 342.025390625 249.379882812 344.436523438 253.2109375 c 128,-1,34
 346.848632812 257.043945312 346.848632812 257.043945312 348.856445312 258.958984375 c 128,-1,35
 350.8671875 260.875 350.8671875 260.875 353.680664062 262.791015625 c 128,-1,36
 356.495117188 264.708984375 356.495117188 264.708984375 357.701171875 261.513671875 c 128,-1,37
 358.90625 258.3203125 358.90625 258.3203125 359.7109375 252.572265625 c 128,-1,38
 360.513671875 246.82421875 360.513671875 246.82421875 358.90625 234.053710938 c 0,39,40
 355.69140625 213.616210938 355.69140625 213.616210938 351.669921875 198.291015625 c 128,-1,41
 347.650390625 182.961914062 347.650390625 182.961914062 346.043945312 177.854492188 c 2,42,-1
 343.6328125 174.021484375 l 1,43,-1
 313.888671875 119.098632812 l 1,44,-1
 275.301757812 53.9580078125 l 2,45,46
 272.889648438 50.126953125 272.889648438 50.126953125 266.458984375 42.4638671875 c 128,-1,47
 260.028320312 34.80078125 260.028320312 34.80078125 233.09765625 20.7509765625 c 128,-1,48
 206.166992188 6.7001953125 206.166992188 6.7001953125 169.993164062 2.869140625 c 0,49,50
 160.344726562 2.869140625 160.344726562 2.869140625 151.501953125 3.5048828125 c 128,-1,51
 142.66015625 4.146484375 142.66015625 4.146484375 136.631835938 5.421875 c 128,-1,52
 130.6015625 6.7001953125 130.6015625 6.7001953125 125.778320312 7.9765625 c 128,-1,53
 120.955078125 9.2548828125 120.955078125 9.2548828125 118.543945312 10.533203125 c 2,54,-1
 116.1328125 11.80859375 l 2,55,56
 92.8193359375 22.0283203125 92.8193359375 22.0283203125 84.779296875 38.6318359375 c 1,57,58
 82.369140625 55.236328125 82.369140625 55.236328125 78.7509765625 69.9248046875 c 128,-1,59
 75.1337890625 84.61328125 75.1337890625 84.61328125 72.7216796875 91 c 2,60,-1
 71.1142578125 98.6630859375 l 2,61,62
 69.5068359375 99.94140625 69.5068359375 99.94140625 68.2998046875 105.688476562 c 128,-1,63
 67.0947265625 111.436523438 67.0947265625 111.436523438 64.68359375 129.955078125 c 128,-1,64
 62.271484375 148.4765625 62.271484375 148.4765625 65.486328125 171.466796875 c 0,65,66
 67.0947265625 193.1796875 67.0947265625 193.1796875 69.1044921875 211.061523438 c 128,-1,67
 71.1142578125 228.943359375 71.1142578125 228.943359375 71.9169921875 235.330078125 c 2,68,-1
 73.5263671875 240.439453125 l 1,69,-1
 86.3876953125 318.352539062 l 1,70,71
 100.858398438 368.166015625 100.858398438 368.166015625 131.405273438 437.137695312 c 0,72,73
 135.424804688 452.46484375 135.424804688 452.46484375 135.424804688 452.46484375 c 2,74,75
 136.228515625 453.743164062 136.228515625 453.743164062 136.631835938 455.01953125 c 128,-1,76
 137.033203125 456.297851562 137.033203125 456.297851562 137.435546875 460.766601562 c 128,-1,77
 137.836914062 465.236328125 137.836914062 465.236328125 137.033203125 468.430664062 c 128,-1,78
 136.228515625 471.622070312 136.228515625 471.622070312 132.612304688 473.540039062 c 128,-1,79
 128.993164062 475.456054688 128.993164062 475.456054688 122.5625 474.178710938 c 0,80,81
 10.822265625 466.515625 10.822265625 466.515625 10.822265625 466.515625 c 129,-1,82
 10.822265625 466.515625 10.822265625 466.515625 6 467.79296875 c 0,83,84
 1.9794921875 475.456054688 1.9794921875 475.456054688 6 501 c 0,85,86
 16.451171875 553.369140625 16.451171875 553.369140625 16.451171875 553.369140625 c 2,87,88
 17.25390625 562.30859375 17.25390625 562.30859375 22.880859375 563.587890625 c 2,0,-1
EndSplineSet
Validated: 33
EndChar

StartChar: U
Encoding: 85 85 23
Width: 547
GlyphClass: 1
Flags: W
LayerCount: 2
Fore
SplineSet
6.9833984375 497.4375 m 2,0,1
 4.7587890625 498.389648438 4.7587890625 498.389648438 1.421875 499.33984375 c 0,2,3
 3.646484375 506 3.646484375 506 3.646484375 506 c 1,4,-1
 12.5458984375 516.46484375 l 2,5,6
 25.89453125 537.39453125 25.89453125 537.39453125 49.2529296875 553.567382812 c 0,7,8
 72.6123046875 566.88671875 72.6123046875 566.88671875 92.080078125 572.119140625 c 128,-1,9
 111.545898438 577.3515625 111.545898438 577.3515625 121.556640625 576.3984375 c 128,-1,10
 131.568359375 575.448242188 131.568359375 575.448242188 138.241210938 572.119140625 c 128,-1,11
 144.916992188 568.788085938 144.916992188 568.788085938 147.141601562 565.935546875 c 2,12,-1
 149.3671875 562.12890625 l 2,13,14
 150.478515625 559.275390625 150.478515625 559.275390625 151.03515625 554.994140625 c 128,-1,15
 151.591796875 550.712890625 151.591796875 550.712890625 152.146484375 537.870117188 c 128,-1,16
 152.703125 525.02734375 152.703125 525.02734375 150.478515625 517.415039062 c 0,17,18
 148.252929688 507.90234375 148.252929688 507.90234375 148.809570312 496.961914062 c 128,-1,19
 149.3671875 486.020507812 149.3671875 486.020507812 149.3671875 477.459960938 c 2,20,-1
 150.478515625 468.896484375 l 1,21,-1
 159.377929688 183.491210938 l 2,22,23
 156.0390625 162.561523438 156.0390625 162.561523438 163.828125 131.16796875 c 0,24,25
 167.1640625 117.848632812 167.1640625 117.848632812 177.17578125 106.908203125 c 128,-1,26
 187.1875 95.966796875 187.1875 95.966796875 196.084960938 92.162109375 c 2,27,-1
 203.872070312 88.3564453125 l 2,28,29
 207.209960938 87.4052734375 207.209960938 87.4052734375 212.771484375 85.9775390625 c 128,-1,30
 218.333007812 84.5517578125 218.333007812 84.5517578125 238.35546875 82.6484375 c 128,-1,31
 258.377929688 80.74609375 258.377929688 80.74609375 281.73828125 81.6962890625 c 1,32,33
 300.6484375 86.4541015625 300.6484375 86.4541015625 318.446289062 97.39453125 c 128,-1,34
 336.244140625 108.3359375 336.244140625 108.3359375 345.142578125 116.896484375 c 2,35,-1
 352.928710938 125.459960938 l 1,36,-1
 352.928710938 195.858398438 l 1,37,-1
 354.04296875 354.734375 l 1,38,-1
 355.153320312 485.069335938 l 1,39,40
 347.3671875 506 347.3671875 506 324.0078125 519.318359375 c 1,41,42
 311.770507812 518.3671875 311.770507812 518.3671875 308.434570312 521.696289062 c 128,-1,43
 305.09765625 525.02734375 305.09765625 525.02734375 307.321289062 528.831054688 c 2,44,-1
 309.545898438 532.637695312 l 2,45,46
 315.108398438 537.39453125 315.108398438 537.39453125 354.04296875 574.497070312 c 1,47,48
 371.838867188 584.01171875 371.838867188 584.01171875 384.630859375 583.05859375 c 128,-1,49
 397.423828125 582.107421875 397.423828125 582.107421875 405.2109375 576.3984375 c 2,50,-1
 411.884765625 571.642578125 l 1,51,52
 421.895507812 558.323242188 421.895507812 558.323242188 426.34375 529.784179688 c 0,53,54
 430.793945312 512.66015625 430.793945312 512.66015625 430.23828125 491.729492188 c 128,-1,55
 429.682617188 470.799804688 429.682617188 470.799804688 426.34375 453.67578125 c 2,56,-1
 423.008789062 435.599609375 l 1,57,-1
 421.895507812 364.248046875 l 1,58,-1
 423.008789062 275.7734375 l 2,59,60
 419.671875 225.3515625 419.671875 225.3515625 441.918945312 169.221679688 c 1,61,62
 445.255859375 148.291015625 445.255859375 148.291015625 452.486328125 133.0703125 c 128,-1,63
 459.716796875 117.848632812 459.716796875 117.848632812 466.946289062 110.713867188 c 128,-1,64
 474.176757812 103.579101562 474.176757812 103.579101562 481.407226562 98.8212890625 c 128,-1,65
 488.637695312 94.064453125 488.637695312 94.064453125 493.086914062 93.1123046875 c 2,66,-1
 497.537109375 92.162109375 l 2,67,68
 506.435546875 93.1123046875 506.435546875 93.1123046875 534.245117188 95.966796875 c 0,69,70
 546.481445312 99.7724609375 546.481445312 99.7724609375 545.3671875 95.966796875 c 256,71,72
 544.256835938 92.162109375 544.256835938 92.162109375 544.256835938 92.162109375 c 1,73,74
 524.232421875 68.37890625 524.232421875 68.37890625 487.525390625 30.3251953125 c 1,75,76
 454.154296875 10.3447265625 454.154296875 10.3447265625 430.793945312 10.822265625 c 128,-1,77
 407.435546875 11.296875 407.435546875 11.296875 395.19921875 22.7138671875 c 2,78,-1
 381.850585938 33.1787109375 l 1,79,80
 379.625976562 40.7890625 379.625976562 40.7890625 372.951171875 56.01171875 c 0,81,82
 365.165039062 71.2333984375 365.165039062 71.2333984375 354.04296875 71.7080078125 c 128,-1,83
 342.916992188 72.18359375 342.916992188 72.18359375 335.130859375 65.525390625 c 2,84,-1
 328.458007812 57.9130859375 l 2,85,86
 325.120117188 54.1083984375 325.120117188 54.1083984375 309.545898438 42.69140625 c 0,87,88
 292.862304688 31.275390625 292.862304688 31.275390625 269.501953125 21.2861328125 c 128,-1,89
 246.141601562 11.296875 246.141601562 11.296875 230.568359375 6.5419921875 c 2,90,-1
 214.997070312 1.7841796875 l 2,91,92
 204.984375 -0.1181640625 204.984375 -0.1181640625 141.580078125 12.2490234375 c 0,93,94
 118.221679688 16.0537109375 118.221679688 16.0537109375 103.759765625 29.849609375 c 128,-1,95
 89.298828125 43.642578125 89.298828125 43.642578125 85.962890625 55.0595703125 c 2,96,-1
 82.6240234375 67.4267578125 l 1,97,98
 77.0625 424.18359375 77.0625 424.18359375 74.837890625 449.869140625 c 1,99,100
 81.51171875 460.334960938 81.51171875 460.334960938 83.1806640625 468.896484375 c 128,-1,101
 84.8486328125 477.459960938 84.8486328125 477.459960938 82.6240234375 479.362304688 c 2,102,-1
 80.400390625 482.216796875 l 1,103,104
 74.837890625 498.389648438 74.837890625 498.389648438 49.2529296875 505.046875 c 0,105,106
 31.4560546875 507.90234375 31.4560546875 507.90234375 22 506 c 128,-1,107
 12.5458984375 504.096679688 12.5458984375 504.096679688 10.3212890625 501.243164062 c 2,108,-1
 6.9833984375 497.4375 l 2,0,1
EndSplineSet
Validated: 33
EndChar

StartChar: V
Encoding: 86 86 24
Width: 487
GlyphClass: 1
Flags: W
LayerCount: 2
Fore
SplineSet
1.810546875 528.3828125 m 1,0,-1
 6.705078125 531.124023438 l 2,1,2
 8.333984375 531.797851562 8.333984375 531.797851562 18.23046875 536.45703125 c 2,3,-1
 51.083984375 571.75 l 1,4,5
 66.3291015625 571.705078125 66.3291015625 571.705078125 108.696289062 549.751953125 c 1,6,7
 115.434570312 537.182617188 115.434570312 537.182617188 119.4140625 526.813476562 c 128,-1,8
 123.392578125 516.443359375 123.392578125 516.443359375 124.002929688 512.358398438 c 2,9,-1
 124.616210938 508.271484375 l 1,10,-1
 129.919921875 457.364257812 l 1,11,-1
 132.1953125 382.575195312 l 1,12,-1
 135.229492188 235.510742188 l 2,13,14
 134.530273438 209.653320312 134.530273438 209.653320312 165.55078125 164.491210938 c 0,15,16
 180.03515625 136.837890625 180.03515625 136.837890625 191.596679688 119.08203125 c 128,-1,17
 203.15625 101.327148438 203.15625 101.327148438 207.473632812 97.3994140625 c 2,18,-1
 211.788085938 93.4716796875 l 2,19,20
 235.403320312 75.2294921875 235.403320312 75.2294921875 293.659179688 66.4462890625 c 0,21,22
 309.791015625 64.3349609375 309.791015625 64.3349609375 323.375976562 67.3134765625 c 128,-1,23
 336.961914062 70.291015625 336.961914062 70.291015625 344.829101562 76.048828125 c 128,-1,24
 352.696289062 81.8076171875 352.696289062 81.8076171875 358.258789062 87.8671875 c 128,-1,25
 363.8203125 93.9267578125 363.8203125 93.9267578125 365.881835938 98.412109375 c 2,26,-1
 367.947265625 102.8984375 l 2,27,28
 381.607421875 143.211914062 381.607421875 143.211914062 389.171875 189.001953125 c 0,29,30
 396.584960938 208.833984375 396.584960938 208.833984375 401.512695312 226.903320312 c 128,-1,31
 406.439453125 244.971679688 406.439453125 244.971679688 407.66015625 253.125 c 2,32,-1
 408.881835938 261.27734375 l 1,33,-1
 411.155273438 314.0703125 l 2,34,35
 417.979492188 467.513671875 417.979492188 467.513671875 418.737304688 513.928710938 c 0,36,37
 421.549804688 524.482421875 421.549804688 524.482421875 419.657226562 532.87109375 c 128,-1,38
 417.765625 541.255859375 417.765625 541.255859375 412.6484375 547.49609375 c 128,-1,39
 407.529296875 553.734375 407.529296875 553.734375 402.14453125 557.868164062 c 128,-1,40
 396.759765625 562.001953125 396.759765625 562.001953125 392.587890625 564.047851562 c 2,41,-1
 388.4140625 566.094726562 l 1,42,-1
 352.028320312 581.176757812 l 1,43,-1
 357.3359375 586.205078125 l 2,44,45
 391.526367188 613.899414062 391.526367188 613.899414062 431.623046875 635.225585938 c 1,46,47
 486.4609375 613.30859375 486.4609375 613.30859375 483.171875 606.946289062 c 2,48,-1
 479.37890625 473.70703125 l 1,49,-1
 475.591796875 331.040039062 l 1,50,-1
 464.978515625 274.475585938 l 1,51,-1
 451.33203125 238.65234375 l 1,52,-1
 449.815429688 224.825195312 l 2,53,54
 448.307617188 217.2265625 448.307617188 217.2265625 451.33203125 188.374023438 c 0,55,56
 448.975585938 181.110351562 448.975585938 181.110351562 448.975585938 173.255859375 c 128,-1,57
 448.975585938 165.397460938 448.975585938 165.397460938 450.153320312 161.172851562 c 2,58,-1
 451.33203125 156.94921875 l 2,59,60
 452.690429688 155.5390625 452.690429688 155.5390625 454.309570312 153.319335938 c 128,-1,61
 455.92578125 151.096679688 455.92578125 151.096679688 458.969726562 144.659179688 c 128,-1,62
 462.01171875 138.220703125 462.01171875 138.220703125 458.9140625 134.32421875 c 0,63,64
 458.9140625 116.166015625 458.9140625 116.166015625 436.361328125 92.1279296875 c 128,-1,65
 413.807617188 68.087890625 413.807617188 68.087890625 391.256835938 53.1259765625 c 2,66,-1
 368.705078125 38.1640625 l 1,67,-1
 258.7890625 7.37109375 l 2,68,69
 255.129882812 6.45703125 255.129882812 6.45703125 248.7109375 5.5078125 c 128,-1,70
 242.291015625 4.55859375 242.291015625 4.55859375 221.616210938 3.365234375 c 128,-1,71
 200.942382812 2.171875 200.942382812 2.171875 182.225585938 6.1123046875 c 0,72,73
 163.123046875 6.1123046875 163.123046875 6.1123046875 144.073242188 19.576171875 c 128,-1,74
 125.021484375 33.041015625 125.021484375 33.041015625 111.4765625 52.2578125 c 128,-1,75
 97.9326171875 71.474609375 97.9326171875 71.474609375 87.1171875 90.6923828125 c 128,-1,76
 76.30078125 109.907226562 76.30078125 109.907226562 70.8935546875 123.372070312 c 2,77,-1
 65.48828125 136.836914062 l 1,78,79
 63.2138671875 353.788085938 63.2138671875 353.788085938 62.455078125 416.514648438 c 0,80,81
 66.162109375 450.032226562 66.162109375 450.032226562 51 478 c 128,-1,82
 35.8408203125 505.967773438 35.8408203125 505.967773438 18.8251953125 517.17578125 c 2,83,-1
 1.810546875 528.3828125 l 1,0,-1
EndSplineSet
Validated: 33
EndChar

StartChar: W
Encoding: 87 87 25
Width: 586
GlyphClass: 1
Flags: W
LayerCount: 2
Fore
SplineSet
109.291015625 623.666992188 m 0,0,1
 110.134765625 623.666992188 110.134765625 623.666992188 111.821289062 622.60546875 c 128,-1,2
 113.508789062 621.545898438 113.508789062 621.545898438 118.147460938 617.303710938 c 128,-1,3
 122.787109375 613.0625 122.787109375 613.0625 126.162109375 607.228515625 c 128,-1,4
 129.536132812 601.395507812 129.536132812 601.395507812 131.645507812 590.260742188 c 128,-1,5
 133.75390625 579.125976562 133.75390625 579.125976562 132.91015625 566.400390625 c 0,6,7
 129.536132812 523.979492188 129.536132812 523.979492188 127.849609375 526.100585938 c 1,8,-1
 119.4140625 483.680664062 l 1,9,-1
 92.4189453125 194.165039062 l 1,10,-1
 87.357421875 136.897460938 l 1,11,-1
 86.513671875 132.655273438 l 1,12,13
 122.787109375 87.0537109375 122.787109375 87.0537109375 139.66015625 79.6298828125 c 0,14,15
 168.33984375 65.84375 168.33984375 65.84375 168.33984375 65.84375 c 1,16,17
 186.055664062 63.72265625 186.055664062 63.72265625 195.334960938 71.1455078125 c 0,18,19
 252.697265625 104.022460938 252.697265625 104.022460938 252.697265625 104.022460938 c 1,20,-1
 258.602539062 108.263671875 l 1,21,-1
 268.725585938 141.139648438 l 1,22,-1
 277.161132812 189.922851562 l 1,23,-1
 280.53515625 222.797851562 l 1,24,-1
 288.127929688 512.314453125 l 2,25,26
 288.127929688 514.435546875 288.127929688 514.435546875 288.549804688 517.6171875 c 128,-1,27
 288.970703125 520.797851562 288.970703125 520.797851562 287.706054688 528.751953125 c 128,-1,28
 286.440429688 536.705078125 286.440429688 536.705078125 283.48828125 543.598632812 c 128,-1,29
 280.53515625 550.4921875 280.53515625 550.4921875 272.521484375 556.32421875 c 128,-1,30
 264.5078125 562.157226562 264.5078125 562.157226562 253.541015625 563.217773438 c 0,31,32
 243.41796875 565.33984375 243.41796875 565.33984375 243.41796875 565.33984375 c 129,-1,33
 243.41796875 565.33984375 243.41796875 565.33984375 239.201171875 569.581054688 c 0,34,35
 236.669921875 574.883789062 236.669921875 574.883789062 248.48046875 583.368164062 c 0,36,37
 251.010742188 584.427734375 251.010742188 584.427734375 253.541015625 585.48828125 c 0,38,39
 274.630859375 596.09375 274.630859375 596.09375 274.630859375 596.09375 c 1,40,-1
 299.09375 617.303710938 l 1,41,-1
 301.625 620.485351562 l 1,42,-1
 320.18359375 620.485351562 l 2,43,44
 321.02734375 619.424804688 321.02734375 619.424804688 325.666992188 619.954101562 c 128,-1,45
 330.306640625 620.485351562 330.306640625 620.485351562 337.4765625 618.364257812 c 128,-1,46
 344.647460938 616.243164062 344.647460938 616.243164062 350.973632812 613.0625 c 128,-1,47
 357.30078125 609.879882812 357.30078125 609.879882812 361.518554688 600.3359375 c 128,-1,48
 365.736328125 590.791015625 365.736328125 590.791015625 364.892578125 578.065429688 c 0,49,50
 365.736328125 521.858398438 365.736328125 521.858398438 365.736328125 521.858398438 c 1,51,-1
 363.206054688 340.512695312 l 1,52,-1
 358.143554688 250.370117188 l 1,53,-1
 346.333984375 196.28515625 l 2,54,55
 343.803710938 183.559570312 343.803710938 183.559570312 342.116210938 170.833007812 c 128,-1,56
 340.428710938 158.107421875 340.428710938 158.107421875 340.428710938 150.68359375 c 2,57,-1
 340.428710938 144.3203125 l 1,58,59
 337.0546875 132.655273438 337.0546875 132.655273438 345.490234375 109.32421875 c 1,60,61
 364.892578125 83.8720703125 364.892578125 83.8720703125 364.892578125 83.8720703125 c 2,62,63
 366.579101562 81.7509765625 366.579101562 81.7509765625 369.110351562 79.099609375 c 128,-1,64
 371.641601562 76.4482421875 371.641601562 76.4482421875 379.655273438 71.6767578125 c 128,-1,65
 387.668945312 66.904296875 387.668945312 66.904296875 396.526367188 65.84375 c 128,-1,66
 405.384765625 64.783203125 405.384765625 64.783203125 418.880859375 70.0859375 c 128,-1,67
 432.37890625 75.3876953125 432.37890625 75.3876953125 445.875 89.1748046875 c 1,68,69
 458.528320312 110.384765625 458.528320312 110.384765625 469.07421875 126.291992188 c 128,-1,70
 479.618164062 142.200195312 479.618164062 142.200195312 483.836914062 147.501953125 c 2,71,-1
 488.053710938 153.865234375 l 1,72,-1
 500.70703125 175.075195312 l 1,73,-1
 502.393554688 194.165039062 l 1,74,-1
 506.612304688 502.76953125 l 2,75,76
 507.456054688 504.890625 507.456054688 504.890625 507.034179688 508.072265625 c 128,-1,77
 506.612304688 511.252929688 506.612304688 511.252929688 505.346679688 519.737304688 c 128,-1,78
 504.081054688 528.221679688 504.081054688 528.221679688 501.12890625 535.114257812 c 128,-1,79
 498.176757812 542.0078125 498.176757812 542.0078125 491.427734375 547.310546875 c 128,-1,80
 484.6796875 552.61328125 484.6796875 552.61328125 474.557617188 552.61328125 c 0,81,82
 436.595703125 550.4921875 436.595703125 550.4921875 436.595703125 550.4921875 c 2,83,84
 434.065429688 550.4921875 434.065429688 550.4921875 431.11328125 549.961914062 c 128,-1,85
 428.161132812 549.431640625 428.161132812 549.431640625 421.833984375 549.961914062 c 128,-1,86
 415.505859375 550.4921875 415.505859375 550.4921875 413.397460938 552.61328125 c 128,-1,87
 411.2890625 554.734375 411.2890625 554.734375 415.084960938 560.56640625 c 128,-1,88
 418.880859375 566.400390625 418.880859375 566.400390625 431.53515625 574.883789062 c 0,89,90
 460.215820312 588.669921875 460.215820312 588.669921875 460.215820312 588.669921875 c 1,91,-1
 475.400390625 604.578125 l 1,92,-1
 479.618164062 606.698242188 l 1,93,-1
 555.540039062 607.759765625 l 1,94,95
 576.62890625 600.3359375 576.62890625 600.3359375 578.315429688 586.549804688 c 0,96,97
 581.689453125 534.584960938 581.689453125 534.584960938 581.689453125 534.584960938 c 1,98,-1
 576.62890625 319.302734375 l 1,99,-1
 573.254882812 249.310546875 l 1,100,-1
 569.036132812 202.6484375 l 2,101,102
 567.349609375 201.587890625 567.349609375 201.587890625 566.083984375 198.40625 c 128,-1,103
 564.819335938 195.224609375 564.819335938 195.224609375 563.131835938 185.149414062 c 128,-1,104
 561.444335938 175.075195312 561.444335938 175.075195312 562.2890625 162.349609375 c 0,105,106
 553.009765625 94.4775390625 553.009765625 94.4775390625 553.009765625 94.4775390625 c 1,107,-1
 538.666992188 78.5703125 l 2,108,109
 530.232421875 70.0859375 530.232421875 70.0859375 476.244140625 57.3603515625 c 1,110,111
 402.852539062 24.484375 402.852539062 24.484375 402.852539062 24.484375 c 1,112,-1
 369.953125 10.697265625 l 2,113,114
 365.736328125 8.5771484375 365.736328125 8.5771484375 358.143554688 5.92578125 c 128,-1,115
 350.552734375 3.2744140625 350.552734375 3.2744140625 333.258789062 4.3349609375 c 128,-1,116
 315.965820312 5.3955078125 315.965820312 5.3955078125 305 16 c 0,117,118
 301.625 22.36328125 301.625 22.36328125 297.828125 27.1357421875 c 128,-1,119
 294.033203125 31.9072265625 294.033203125 31.9072265625 292.344726562 32.9677734375 c 2,120,-1
 290.658203125 34.0283203125 l 1,121,-1
 280.53515625 39.3310546875 l 1,122,-1
 272.100585938 50.9970703125 l 2,123,124
 271.256835938 52.0576171875 271.256835938 52.0576171875 270.834960938 53.6484375 c 128,-1,125
 270.413085938 55.23828125 270.413085938 55.23828125 267.881835938 57.8896484375 c 128,-1,126
 265.3515625 60.541015625 265.3515625 60.541015625 263.2421875 61.6025390625 c 128,-1,127
 261.133789062 62.662109375 261.133789062 62.662109375 257.336914062 61.0712890625 c 128,-1,128
 253.541015625 59.48046875 253.541015625 59.48046875 250.166992188 54.177734375 c 0,129,130
 229.078125 42.5126953125 229.078125 42.5126953125 229.078125 42.5126953125 c 1,131,-1
 189.4296875 23.4228515625 l 2,132,133
 185.212890625 20.2421875 185.212890625 20.2421875 176.776367188 16 c 128,-1,134
 168.33984375 11.7578125 168.33984375 11.7578125 144.299804688 6.455078125 c 128,-1,135
 120.256835938 1.1533203125 120.256835938 1.1533203125 98.3251953125 5.3955078125 c 128,-1,136
 76.3916015625 9.6376953125 76.3916015625 9.6376953125 59.5205078125 21.8330078125 c 128,-1,137
 42.6484375 34.0283203125 42.6484375 34.0283203125 36.744140625 44.6337890625 c 2,138,-1
 30.8388671875 54.177734375 l 1,139,-1
 13.9677734375 71.1455078125 l 1,140,-1
 6.375 79.6298828125 l 1,141,-1
 7.21875 107.203125 l 1,142,-1
 31.6826171875 304.456054688 l 1,143,-1
 40.9619140625 409.4453125 l 1,144,-1
 54.458984375 494.28515625 l 2,145,146
 54.458984375 496.407226562 54.458984375 496.407226562 55.302734375 500.119140625 c 128,-1,147
 56.146484375 503.830078125 56.146484375 503.830078125 56.990234375 513.375 c 128,-1,148
 57.833984375 522.919921875 57.833984375 522.919921875 56.146484375 531.403320312 c 128,-1,149
 54.458984375 539.887695312 54.458984375 539.887695312 48.5537109375 548.901367188 c 128,-1,150
 42.6484375 557.915039062 42.6484375 557.915039062 31.6826171875 563.217773438 c 0,151,152
 22.4033203125 566.400390625 22.4033203125 566.400390625 16.4990234375 567.991210938 c 128,-1,153
 10.5927734375 569.581054688 10.5927734375 569.581054688 9.7490234375 568.520507812 c 2,154,-1
 8.9052734375 568.520507812 l 2,155,156
 7.21875 568.520507812 7.21875 568.520507812 5.109375 570.111328125 c 128,-1,157
 3.0009765625 571.702148438 3.0009765625 571.702148438 3.4228515625 577.534179688 c 128,-1,158
 3.8447265625 583.368164062 3.8447265625 583.368164062 12.2802734375 590.791015625 c 0,159,160
 20.7158203125 593.97265625 20.7158203125 593.97265625 27.04296875 596.09375 c 128,-1,161
 33.369140625 598.21484375 33.369140625 598.21484375 35.0576171875 600.3359375 c 2,162,-1
 36.744140625 601.395507812 l 1,163,-1
 61.2080078125 615.182617188 l 1,164,-1
 78.078125 619.424804688 l 2,165,166
 83.9833984375 623.666992188 83.9833984375 623.666992188 109.291015625 623.666992188 c 0,0,1
EndSplineSet
Validated: 33
EndChar

StartChar: X
Encoding: 88 88 26
Width: 575
GlyphClass: 1
Flags: W
LayerCount: 2
Fore
SplineSet
335.7421875 346.400390625 m 1,0,-1
 463.403320312 588.799804688 l 1,1,-1
 473.5859375 604.959960938 l 1,2,3
 506.479492188 630.209960938 506.479492188 630.209960938 538.591796875 638.290039062 c 1,4,5
 544.073242188 633.240234375 544.073242188 633.240234375 552.688476562 620.615234375 c 128,-1,6
 561.303710938 607.990234375 561.303710938 607.990234375 567.569335938 598.900390625 c 2,7,-1
 573.834960938 588.799804688 l 2,8,9
 573.052734375 583.75 573.052734375 583.75 570.702148438 576.174804688 c 128,-1,10
 568.352539062 568.600585938 568.352539062 568.600585938 558.170898438 550.419921875 c 128,-1,11
 547.989257812 532.240234375 547.989257812 532.240234375 534.674804688 521.129882812 c 1,12,13
 527.626953125 524.16015625 527.626953125 524.16015625 517.836914062 532.745117188 c 128,-1,14
 508.046875 541.330078125 508.046875 541.330078125 502.563476562 548.400390625 c 2,15,-1
 497.08203125 554.459960938 l 1,16,17
 479.8515625 556.48046875 479.8515625 556.48046875 462.62109375 538.299804688 c 1,18,19
 458.705078125 522.140625 458.705078125 522.140625 448.915039062 499.919921875 c 128,-1,20
 439.125 477.700195312 439.125 477.700195312 430.509765625 463.560546875 c 2,21,-1
 422.676757812 449.419921875 l 1,22,-1
 324.77734375 266.610351562 l 2,23,24
 322.427734375 264.58984375 322.427734375 264.58984375 326.34375 247.419921875 c 0,25,26
 345.140625 157.530273438 345.140625 157.530273438 379.6015625 115.110351562 c 0,27,28
 386.650390625 107.030273438 386.650390625 107.030273438 394.090820312 98.4453125 c 128,-1,29
 401.53125 89.8603515625 401.53125 89.8603515625 402.706054688 87.83984375 c 128,-1,30
 403.880859375 85.8203125 403.880859375 85.8203125 410.146484375 83.7998046875 c 128,-1,31
 416.412109375 81.7802734375 416.412109375 81.7802734375 420.719726562 82.7900390625 c 128,-1,32
 425.02734375 83.7998046875 425.02734375 83.7998046875 439.125 85.8203125 c 2,33,-1
 459.487304688 91.8798828125 l 2,34,35
 460.271484375 91.8798828125 460.271484375 91.8798828125 461.836914062 91.375 c 128,-1,36
 463.403320312 90.8701171875 463.403320312 90.8701171875 466.537109375 89.35546875 c 128,-1,37
 469.669921875 87.83984375 469.669921875 87.83984375 471.236328125 85.3154296875 c 128,-1,38
 472.801757812 82.7900390625 472.801757812 82.7900390625 471.626953125 76.73046875 c 128,-1,39
 470.452148438 70.669921875 470.452148438 70.669921875 464.970703125 61.580078125 c 0,40,41
 452.439453125 44.41015625 452.439453125 44.41015625 444.607421875 33.8056640625 c 128,-1,42
 436.775390625 23.2001953125 436.775390625 23.2001953125 435.208984375 22.1904296875 c 2,43,-1
 432.859375 20.169921875 l 1,44,-1
 425.810546875 18.150390625 l 1,45,-1
 413.279296875 9.060546875 l 1,46,-1
 404.6640625 6.0302734375 l 1,47,-1
 389 3 l 1,48,-1
 377.251953125 1.990234375 l 1,49,-1
 370.203125 0.98046875 l 2,50,51
 365.50390625 4.009765625 365.50390625 4.009765625 357.671875 9.5654296875 c 128,-1,52
 349.83984375 15.1201171875 349.83984375 15.1201171875 332.609375 32.794921875 c 128,-1,53
 315.37890625 50.4697265625 315.37890625 50.4697265625 305.98046875 69.66015625 c 0,54,55
 294.232421875 89.8603515625 294.232421875 89.8603515625 286.791992188 107.030273438 c 128,-1,56
 279.352539062 124.200195312 279.352539062 124.200195312 277.78515625 130.259765625 c 2,57,-1
 276.21875 137.330078125 l 1,58,59
 276.21875 137.330078125 276.21875 137.330078125 273.869140625 142.379882812 c 0,60,61
 270.737304688 144.400390625 270.737304688 144.400390625 266.037109375 131.270507812 c 2,62,-1
 146.991210938 -104.059570312 l 1,63,-1
 139.159179688 -121.229492188 l 1,64,65
 140.725585938 -141.4296875 140.725585938 -141.4296875 113.313476562 -167.689453125 c 0,66,67
 110.963867188 -172.740234375 110.963867188 -172.740234375 106.65625 -178.294921875 c 128,-1,68
 102.348632812 -183.849609375 102.348632812 -183.849609375 98.4326171875 -185.870117188 c 2,69,-1
 95.2998046875 -188.899414062 l 1,70,-1
 53.0078125 -189.91015625 l 1,71,-1
 49.8740234375 -190.919921875 l 1,72,-1
 38.126953125 -184.859375 l 1,73,-1
 4.4482421875 -111.129882812 l 2,74,75
 -2.599609375 -96.990234375 -2.599609375 -96.990234375 24.8125 -51.5400390625 c 1,76,-1
 41.2587890625 -31.33984375 l 1,77,-1
 42.8251953125 -29.3193359375 l 1,78,-1
 47.5244140625 -29.3193359375 l 1,79,-1
 71.0205078125 -80.830078125 l 1,80,-1
 83.552734375 -103.049804688 l 1,81,82
 107.047851562 -119.209960938 107.047851562 -119.209960938 117.229492188 -101.030273438 c 2,83,-1
 186.151367188 28.25 l 1,84,-1
 261.337890625 200.959960938 l 1,85,-1
 251.939453125 283.780273438 l 2,86,87
 251.939453125 286.810546875 251.939453125 286.810546875 251.157226562 292.365234375 c 128,-1,88
 250.373046875 297.919921875 250.373046875 297.919921875 245.673828125 314.080078125 c 128,-1,89
 240.975585938 330.240234375 240.975585938 330.240234375 234.708984375 344.884765625 c 128,-1,90
 228.443359375 359.530273438 228.443359375 359.530273438 216.3046875 377.709960938 c 128,-1,91
 204.165039062 395.890625 204.165039062 395.890625 188.500976562 409.020507812 c 0,92,93
 168.13671875 422.150390625 168.13671875 422.150390625 153.6484375 429.219726562 c 128,-1,94
 139.159179688 436.290039062 139.159179688 436.290039062 134.459960938 437.299804688 c 2,95,-1
 129.760742188 438.310546875 l 2,96,97
 128.194335938 438.310546875 128.194335938 438.310546875 126.627929688 438.310546875 c 128,-1,98
 125.061523438 438.310546875 125.061523438 438.310546875 121.537109375 439.825195312 c 128,-1,99
 118.012695312 441.33984375 118.012695312 441.33984375 116.446289062 444.875 c 128,-1,100
 114.879882812 448.41015625 114.879882812 448.41015625 116.446289062 455.985351562 c 128,-1,101
 118.012695312 463.560546875 118.012695312 463.560546875 123.495117188 473.66015625 c 2,102,-1
 149.340820312 500.930664062 l 1,103,-1
 188.500976562 502.950195312 l 2,104,105
 193.200195312 501.940429688 193.200195312 501.940429688 201.815429688 498.91015625 c 128,-1,106
 210.430664062 495.879882812 210.430664062 495.879882812 231.967773438 480.73046875 c 128,-1,107
 253.506835938 465.580078125 253.506835938 465.580078125 270.737304688 442.350585938 c 0,108,109
 283.267578125 420.129882812 283.267578125 420.129882812 291.4921875 402.455078125 c 128,-1,110
 299.71484375 384.780273438 299.71484375 384.780273438 302.064453125 378.719726562 c 2,111,-1
 303.630859375 371.650390625 l 2,112,113
 309.11328125 352.459960938 309.11328125 352.459960938 315.37890625 315.08984375 c 1,114,-1
 315.37890625 312.060546875 l 1,115,-1
 335.7421875 346.400390625 l 1,0,-1
EndSplineSet
Validated: 33
EndChar

StartChar: Y
Encoding: 89 89 27
Width: 544
GlyphClass: 1
Flags: W
LayerCount: 2
Fore
SplineSet
56.759765625 534 m 4,0,1
 96.2802734375 553.049804688 96.2802734375 553.049804688 183.639648438 553.049804688 c 5,2,3
 195.080078125 543.525390625 195.080078125 543.525390625 203.919921875 538.233398438 c 132,-1,4
 212.759765625 532.94140625 212.759765625 532.94140625 214.83984375 532.94140625 c 6,5,-1
 217.959960938 531.883789062 l 5,6,7
 236.6796875 509.658203125 236.6796875 509.658203125 238.759765625 491.666992188 c 6,8,-1
 252.280273438 447.217773438 l 6,9,10
 252.280273438 442.984375 252.280273438 442.984375 253.3203125 433.98828125 c 132,-1,11
 254.360351562 424.993164062 254.360351562 424.993164062 255.400390625 389.5390625 c 132,-1,12
 256.440429688 354.084960938 256.440429688 354.084960938 256.440429688 311.751953125 c 6,13,-1
 254.360351562 219.677734375 l 6,14,15
 254.360351562 217.561523438 254.360351562 217.561523438 254.879882812 212.798828125 c 132,-1,16
 255.400390625 208.036132812 255.400390625 208.036132812 259.040039062 195.865234375 c 132,-1,17
 262.6796875 183.6953125 262.6796875 183.6953125 267.879882812 173.112304688 c 132,-1,18
 273.080078125 162.52734375 273.080078125 162.52734375 284 151.944335938 c 132,-1,19
 294.919921875 141.361328125 294.919921875 141.361328125 309.479492188 137.127929688 c 4,20,21
 369.799804688 133.953125 369.799804688 133.953125 365.639648438 138.186523438 c 5,22,23
 369.799804688 139.244140625 369.799804688 139.244140625 377.599609375 141.361328125 c 132,-1,24
 385.400390625 143.477539062 385.400390625 143.477539062 406.719726562 160.940429688 c 132,-1,25
 428.040039062 178.403320312 428.040039062 178.403320312 445.719726562 205.919921875 c 4,26,27
 453 217.561523438 453 217.561523438 457.6796875 228.14453125 c 132,-1,28
 462.360351562 238.727539062 462.360351562 238.727539062 463.400390625 244.01953125 c 6,29,-1
 463.400390625 250.369140625 l 5,30,-1
 461.3203125 330.801757812 l 5,31,32
 468.599609375 355.142578125 468.599609375 355.142578125 455.080078125 419.701171875 c 5,33,34
 445.719726562 435.576171875 445.719726562 435.576171875 434.280273438 449.333984375 c 132,-1,35
 422.83984375 463.092773438 422.83984375 463.092773438 415.559570312 469.442382812 c 6,36,-1
 408.280273438 475.791992188 l 6,37,38
 397.879882812 486.375976562 397.879882812 486.375976562 367.719726562 490.609375 c 4,39,40
 363.559570312 492.725585938 363.559570312 492.725585938 363.040039062 495.900390625 c 132,-1,41
 362.51953125 499.075195312 362.51953125 499.075195312 363.559570312 501.192382812 c 6,42,-1
 364.599609375 503.30859375 l 5,43,-1
 373.959960938 517.067382812 l 5,44,45
 385.400390625 521.299804688 385.400390625 521.299804688 401 551.991210938 c 4,46,47
 403.080078125 556.224609375 403.080078125 556.224609375 407.240234375 559.9296875 c 132,-1,48
 411.400390625 563.6328125 411.400390625 563.6328125 413.479492188 564.69140625 c 6,49,-1
 416.599609375 565.75 l 5,50,-1
 428.040039062 566.807617188 l 6,51,52
 430.120117188 566.807617188 430.120117188 566.807617188 432.200195312 566.279296875 c 132,-1,53
 434.280273438 565.75 434.280273438 565.75 441.559570312 564.69140625 c 132,-1,54
 448.83984375 563.6328125 448.83984375 563.6328125 455.080078125 565.75 c 4,55,56
 459.240234375 565.75 459.240234375 565.75 465.479492188 564.69140625 c 132,-1,57
 471.719726562 563.6328125 471.719726562 563.6328125 474.83984375 561.516601562 c 6,58,-1
 479 559.399414062 l 5,59,-1
 505 534 l 5,60,-1
 518.51953125 518.125 l 6,61,62
 519.559570312 516.008789062 519.559570312 516.008789062 520.599609375 512.3046875 c 132,-1,63
 521.639648438 508.600585938 521.639648438 508.600585938 525.799804688 496.958984375 c 132,-1,64
 529.959960938 485.317382812 529.959960938 485.317382812 532.040039062 473.67578125 c 132,-1,65
 534.120117188 462.034179688 534.120117188 462.034179688 535.6796875 442.984375 c 132,-1,66
 537.240234375 423.934570312 537.240234375 423.934570312 534.120117188 404.884765625 c 4,67,68
 533.080078125 384.776367188 533.080078125 384.776367188 533.599609375 370.489257812 c 132,-1,69
 534.120117188 356.201171875 534.120117188 356.201171875 535.16015625 348.79296875 c 6,70,-1
 537.240234375 341.384765625 l 5,71,72
 545.559570312 335.03515625 545.559570312 335.03515625 517.479492188 239.786132812 c 4,73,74
 509.16015625 213.328125 509.16015625 213.328125 502.919921875 187.928710938 c 132,-1,75
 496.6796875 162.52734375 496.6796875 162.52734375 494.599609375 149.828125 c 6,76,-1
 491.479492188 137.127929688 l 6,77,78
 490.440429688 136.069335938 490.440429688 136.069335938 489.400390625 133.424804688 c 132,-1,79
 488.360351562 130.778320312 488.360351562 130.778320312 487.3203125 118.607421875 c 132,-1,80
 486.280273438 106.436523438 486.280273438 106.436523438 486.280273438 90.5615234375 c 5,81,82
 479 65.162109375 479 65.162109375 464.959960938 32.3544921875 c 132,-1,83
 450.919921875 -0.4541015625 450.919921875 -0.4541015625 441.559570312 -20.5615234375 c 6,84,-1
 432.200195312 -41.728515625 l 6,85,86
 430.120117188 -47.01953125 430.120117188 -47.01953125 424.400390625 -56.5458984375 c 132,-1,87
 418.6796875 -66.0703125 418.6796875 -66.0703125 392.16015625 -95.703125 c 132,-1,88
 365.639648438 -125.336914062 365.639648438 -125.336914062 328.200195312 -154.969726562 c 4,89,90
 307.400390625 -166.611328125 307.400390625 -166.611328125 285.040039062 -175.607421875 c 132,-1,91
 262.6796875 -184.602539062 262.6796875 -184.602539062 250.200195312 -186.71875 c 6,92,-1
 238.759765625 -188.8359375 l 5,93,-1
 225.240234375 -188.8359375 l 5,94,95
 203.400390625 -175.077148438 203.400390625 -175.077148438 157.639648438 -189.893554688 c 5,96,-1
 107.719726562 -190.952148438 l 6,97,98
 106.6796875 -190.952148438 106.6796875 -190.952148438 101.479492188 -191.482421875 c 132,-1,99
 96.2802734375 -192.010742188 96.2802734375 -192.010742188 88.4794921875 -189.893554688 c 132,-1,100
 80.6796875 -187.77734375 80.6796875 -187.77734375 73.400390625 -184.602539062 c 132,-1,101
 66.1201171875 -181.427734375 66.1201171875 -181.427734375 61.4404296875 -172.9609375 c 132,-1,102
 56.759765625 -164.494140625 56.759765625 -164.494140625 58.83984375 -152.852539062 c 4,103,104
 63 -142.26953125 63 -142.26953125 68.7197265625 -131.686523438 c 132,-1,105
 74.4404296875 -121.103515625 74.4404296875 -121.103515625 79.6396484375 -116.870117188 c 6,106,-1
 83.7998046875 -111.578125 l 6,107,108
 84.83984375 -109.461914062 84.83984375 -109.461914062 88.4794921875 -106.815429688 c 132,-1,109
 92.1201171875 -104.169921875 92.1201171875 -104.169921875 106.16015625 -100.465820312 c 132,-1,110
 120.200195312 -96.76171875 120.200195312 -96.76171875 139.959960938 -105.228515625 c 5,111,-1
 206.51953125 -100.995117188 l 5,112,-1
 289.719726562 -95.703125 l 5,113,-1
 318.83984375 -92.5283203125 l 6,114,115
 320.919921875 -92.5283203125 320.919921875 -92.5283203125 325.080078125 -91.4697265625 c 132,-1,116
 329.240234375 -90.412109375 329.240234375 -90.412109375 340.6796875 -85.1201171875 c 132,-1,117
 352.120117188 -79.8291015625 352.120117188 -79.8291015625 361.479492188 -71.890625 c 132,-1,118
 370.83984375 -63.9541015625 370.83984375 -63.9541015625 380.719726562 -48.078125 c 132,-1,119
 390.599609375 -32.203125 390.599609375 -32.203125 395.799804688 -13.1533203125 c 6,120,-1
 414.51953125 61.9873046875 l 6,121,122
 415.559570312 64.103515625 415.559570312 64.103515625 416.080078125 68.3369140625 c 132,-1,123
 416.599609375 72.5703125 416.599609375 72.5703125 416.599609375 81.56640625 c 132,-1,124
 416.599609375 90.5615234375 416.599609375 90.5615234375 414 94.794921875 c 132,-1,125
 411.400390625 99.0283203125 411.400390625 99.0283203125 402.040039062 95.853515625 c 132,-1,126
 392.6796875 92.6787109375 392.6796875 92.6787109375 379.16015625 78.919921875 c 5,127,-1
 334.440429688 51.404296875 l 6,128,129
 329.240234375 48.2294921875 329.240234375 48.2294921875 319.879882812 45.0537109375 c 132,-1,130
 310.51953125 41.87890625 310.51953125 41.87890625 282.440429688 41.349609375 c 132,-1,131
 254.360351562 40.8212890625 254.360351562 40.8212890625 225.240234375 52.4619140625 c 5,132,133
 213.799804688 68.3369140625 213.799804688 68.3369140625 207.040039062 81.037109375 c 132,-1,134
 200.280273438 93.7373046875 200.280273438 93.7373046875 199.240234375 99.0283203125 c 6,135,-1
 198.200195312 104.3203125 l 5,136,137
 184.6796875 145.594726562 184.6796875 145.594726562 183.639648438 198.51171875 c 6,138,-1
 180.51953125 267.302734375 l 5,139,140
 183.639648438 315.985351562 183.639648438 315.985351562 172.200195312 389.008789062 c 4,141,142
 165.959960938 413.3515625 165.959960938 413.3515625 160.240234375 428.696289062 c 132,-1,143
 154.51953125 444.04296875 154.51953125 444.04296875 152.440429688 447.217773438 c 6,144,-1
 149.3203125 450.392578125 l 6,145,146
 146.200195312 454.625976562 146.200195312 454.625976562 139.959960938 459.387695312 c 132,-1,147
 133.719726562 464.151367188 133.719726562 464.151367188 111.360351562 471.029296875 c 132,-1,148
 89 477.909179688 89 477.909179688 63 472.6171875 c 6,149,-1
 23.4794921875 458.859375 l 5,150,151
 23.4794921875 458.859375 23.4794921875 458.859375 9.9599609375 453.567382812 c 4,152,153
 -1.48046875 453.567382812 -1.48046875 453.567382812 17.240234375 485.317382812 c 4,154,155
 22.4404296875 489.55078125 22.4404296875 489.55078125 26.080078125 493.784179688 c 132,-1,156
 29.7197265625 498.017578125 29.7197265625 498.017578125 31.7998046875 501.192382812 c 132,-1,157
 33.8798828125 504.3671875 33.8798828125 504.3671875 35.4404296875 507.541992188 c 132,-1,158
 37 510.716796875 37 510.716796875 37 511.775390625 c 6,159,-1
 38.0400390625 513.891601562 l 6,160,161
 40.1201171875 526.591796875 40.1201171875 526.591796875 56.759765625 534 c 4,0,1
EndSplineSet
Validated: 33
EndChar

StartChar: Z
Encoding: 90 90 28
Width: 567
GlyphClass: 1
Flags: W
LayerCount: 2
Fore
SplineSet
79.9580078125 461.48828125 m 2,0,1
 84.0078125 467.520507812 84.0078125 467.520507812 90.7607421875 476.569335938 c 128,-1,2
 97.513671875 485.619140625 97.513671875 485.619140625 119.120117188 509.750976562 c 128,-1,3
 140.725585938 533.8828125 140.725585938 533.8828125 162.670898438 551.4765625 c 128,-1,4
 184.615234375 569.075195312 184.615234375 569.075195312 215.336914062 583.651367188 c 128,-1,5
 246.059570312 598.23046875 246.059570312 598.23046875 274.418945312 598.23046875 c 0,6,7
 301.426757812 595.21484375 301.426757812 595.21484375 323.034179688 584.659179688 c 128,-1,8
 344.639648438 574.100585938 344.639648438 574.100585938 353.41796875 565.051757812 c 2,9,-1
 361.520507812 556.001953125 l 2,10,11
 364.896484375 552.985351562 364.896484375 552.985351562 370.635742188 548.4609375 c 128,-1,12
 376.375976562 543.936523438 376.375976562 543.936523438 393.9296875 533.37890625 c 128,-1,13
 411.486328125 522.821289062 411.486328125 522.821289062 429.041992188 516.7890625 c 128,-1,14
 446.596679688 510.755859375 446.596679688 510.755859375 470.905273438 510.25390625 c 128,-1,15
 495.211914062 509.750976562 495.211914062 509.750976562 516.819335938 520.810546875 c 2,16,-1
 547.204101562 539.9140625 l 2,17,18
 553.955078125 544.94140625 553.955078125 544.94140625 560.708984375 531.870117188 c 2,19,-1
 563.408203125 524.83203125 l 2,20,21
 567.458007812 516.7890625 567.458007812 516.7890625 560.708984375 508.744140625 c 2,22,-1
 534.374023438 478.58203125 l 2,23,24
 520.1953125 460.482421875 520.1953125 460.482421875 517.494140625 451.434570312 c 0,25,26
 512.092773438 443.389648438 512.092773438 443.389648438 507.366210938 437.35546875 c 128,-1,27
 502.639648438 431.323242188 502.639648438 431.323242188 499.939453125 429.313476562 c 2,28,-1
 497.9140625 427.30078125 l 1,29,-1
 157.606445312 155.82421875 l 2,30,31
 156.255859375 153.814453125 156.255859375 153.814453125 154.90625 150.796875 c 128,-1,32
 153.555664062 147.78125 153.555664062 147.78125 153.217773438 143.255859375 c 128,-1,33
 152.879882812 138.731445312 152.879882812 138.731445312 162.333007812 144.765625 c 0,34,35
 169.0859375 149.79296875 169.0859375 149.79296875 179.889648438 155.322265625 c 128,-1,36
 190.692382812 160.852539062 190.692382812 160.852539062 198.120117188 163.870117188 c 2,37,-1
 204.872070312 166.885742188 l 2,38,39
 206.221679688 167.891601562 206.221679688 167.891601562 208.5859375 168.896484375 c 128,-1,40
 210.948242188 169.901367188 210.948242188 169.901367188 217.36328125 171.913085938 c 128,-1,41
 223.77734375 173.922851562 223.77734375 173.922851562 227.154296875 171.913085938 c 2,42,-1
 254.162109375 166.885742188 l 2,43,44
 258.212890625 165.87890625 258.212890625 165.87890625 264.2890625 164.874023438 c 128,-1,45
 270.368164062 163.870117188 270.368164062 163.870117188 285.221679688 154.317382812 c 128,-1,46
 300.077148438 144.765625 300.077148438 144.765625 310.204101562 128.677734375 c 256,47,48
 320.333007812 112.590820312 320.333007812 112.590820312 331.474609375 100.524414062 c 128,-1,49
 342.615234375 88.458984375 342.615234375 88.458984375 348.016601562 84.4365234375 c 2,50,-1
 354.092773438 79.4091796875 l 2,51,52
 354.768554688 78.404296875 354.768554688 78.404296875 357.130859375 76.896484375 c 128,-1,53
 359.495117188 75.3857421875 359.495117188 75.3857421875 366.584960938 71.8681640625 c 128,-1,54
 373.673828125 68.349609375 373.673828125 68.349609375 381.776367188 66.3388671875 c 128,-1,55
 389.880859375 64.3271484375 389.880859375 64.3271484375 402.708984375 64.830078125 c 128,-1,56
 415.536132812 65.3330078125 415.536132812 65.3330078125 429.041992188 70.3603515625 c 0,57,58
 442.545898438 78.404296875 442.545898438 78.404296875 451.323242188 84.4365234375 c 128,-1,59
 460.1015625 90.4697265625 460.1015625 90.4697265625 462.126953125 92.48046875 c 2,60,-1
 464.151367188 95.4970703125 l 1,61,-1
 470.905273438 101.530273438 l 1,62,63
 489.135742188 110.578125 489.135742188 110.578125 491.161132812 94.4921875 c 1,64,65
 487.784179688 88.458984375 487.784179688 88.458984375 483.734375 83.431640625 c 128,-1,66
 479.682617188 78.404296875 479.682617188 78.404296875 476.982421875 76.3935546875 c 2,67,-1
 474.956054688 74.3828125 l 2,68,69
 462.126953125 66.3388671875 462.126953125 66.3388671875 454.024414062 52.26171875 c 1,70,71
 441.196289062 44.216796875 441.196289062 44.216796875 425.327148438 34.6669921875 c 128,-1,72
 409.4609375 25.1142578125 409.4609375 25.1142578125 400.0078125 21.0927734375 c 2,73,-1
 391.23046875 16.0654296875 l 2,74,75
 384.477539062 14.0546875 384.477539062 14.0546875 383.802734375 8.021484375 c 1,76,77
 379.076171875 5.00390625 379.076171875 5.00390625 373 4 c 128,-1,78
 366.921875 2.994140625 366.921875 2.994140625 363.545898438 2.994140625 c 2,79,-1
 360.169921875 2.994140625 l 1,80,-1
 339.915039062 2.994140625 l 2,81,82
 313.581054688 -0.021484375 313.581054688 -0.021484375 302.1015625 12.04296875 c 0,83,84
 292.6484375 18.0771484375 292.6484375 18.0771484375 280.159179688 31.1484375 c 128,-1,85
 267.666992188 44.216796875 267.666992188 44.216796875 259.5625 55.279296875 c 2,86,-1
 250.787109375 65.3330078125 l 2,87,88
 250.109375 67.3447265625 250.109375 67.3447265625 247.747070312 71.3662109375 c 128,-1,89
 245.3828125 75.3857421875 245.3828125 75.3857421875 235.930664062 84.4365234375 c 128,-1,90
 226.478515625 93.486328125 226.478515625 93.486328125 214.999023438 98.01171875 c 128,-1,91
 203.521484375 102.53515625 203.521484375 102.53515625 182.588867188 102.033203125 c 128,-1,92
 161.658203125 101.530273438 161.658203125 101.530273438 138.025390625 91.4755859375 c 2,93,-1
 69.154296875 55.279296875 l 1,94,-1
 38.76953125 32.15234375 l 1,95,-1
 25.265625 22.0986328125 l 1,96,-1
 15.8115234375 15.0595703125 l 1,97,-1
 13.111328125 14.0546875 l 2,98,99
 11.7607421875 16.0654296875 11.7607421875 16.0654296875 9.3984375 18.580078125 c 128,-1,100
 7.0341796875 21.0927734375 7.0341796875 21.0927734375 4.333984375 28.130859375 c 128,-1,101
 1.6328125 35.1689453125 1.6328125 35.1689453125 2.9833984375 40.1962890625 c 0,102,103
 5.6845703125 45.2236328125 5.6845703125 45.2236328125 14.123046875 54.775390625 c 128,-1,104
 22.5634765625 64.3271484375 22.5634765625 64.3271484375 29.31640625 71.3662109375 c 2,105,-1
 36.7431640625 78.404296875 l 1,106,-1
 199.470703125 217.159179688 l 1,107,-1
 259.5625 264.416015625 l 1,108,-1
 397.983398438 372.000976562 l 1,109,-1
 485.083984375 444.39453125 l 1,110,111
 485.083984375 444.39453125 485.083984375 444.39453125 493.188476562 457.465820312 c 0,112,113
 498.58984375 468.526367188 498.58984375 468.526367188 487.109375 465.509765625 c 0,114,115
 481.708984375 463.5 481.708984375 463.5 472.255859375 457.465820312 c 1,116,-1
 410.810546875 450.426757812 l 2,117,118
 403.383789062 450.426757812 403.383789062 450.426757812 391.904296875 451.936523438 c 128,-1,119
 380.426757812 453.444335938 380.426757812 453.444335938 354.4296875 462.997070312 c 128,-1,120
 328.435546875 472.547851562 328.435546875 472.547851562 313.581054688 488.63671875 c 0,121,122
 292.6484375 506.734375 292.6484375 506.734375 276.443359375 518.296875 c 128,-1,123
 260.239257812 529.859375 260.239257812 529.859375 254.162109375 532.875976562 c 2,124,-1
 248.759765625 534.88671875 l 2,125,126
 244.708007812 533.8828125 244.708007812 533.8828125 230.192382812 535.389648438 c 128,-1,127
 215.673828125 536.8984375 215.673828125 536.8984375 190.354492188 531.369140625 c 128,-1,128
 165.033203125 525.838867188 165.033203125 525.838867188 150.854492188 514.779296875 c 0,129,130
 142.751953125 510.755859375 142.751953125 510.755859375 134.310546875 503.716796875 c 128,-1,131
 125.872070312 496.678710938 125.872070312 496.678710938 121.821289062 492.65625 c 2,132,-1
 117.09375 487.62890625 l 1,133,-1
 107.640625 473.553710938 l 1,134,-1
 87.384765625 460.482421875 l 1,135,-1
 81.982421875 453.444335938 l 1,136,137
 81.982421875 453.444335938 81.982421875 453.444335938 77.931640625 453.444335938 c 0,138,139
 76.5810546875 455.454101562 76.5810546875 455.454101562 77.931640625 458.471679688 c 2,140,-1
 79.9580078125 461.48828125 l 2,0,1
EndSplineSet
Validated: 33
EndChar

StartChar: a
Encoding: 97 97 29
Width: 392
GlyphClass: 1
Flags: W
LayerCount: 2
Fore
SplineSet
3.2802734375 33.0537109375 m 1,0,-1
 57.9541015625 107.883789062 l 2,1,2
 58.8701171875 107.79296875 58.8701171875 107.79296875 60.4892578125 108.435546875 c 128,-1,3
 62.1083984375 109.079101562 62.1083984375 109.079101562 66.771484375 115.98828125 c 128,-1,4
 71.4365234375 122.897460938 71.4365234375 122.897460938 75.7001953125 135.615234375 c 2,5,-1
 124.138671875 238.178710938 l 1,6,-1
 154.352539062 304.20703125 l 2,7,8
 158.274414062 311.903320312 158.274414062 311.903320312 163.978515625 323.934570312 c 128,-1,9
 169.684570312 335.966796875 169.684570312 335.966796875 178.458007812 360.776367188 c 128,-1,10
 187.231445312 385.591796875 187.231445312 385.591796875 185.52734375 395.764648438 c 1,11,-1
 199.915039062 456.510742188 l 2,12,13
 200.244140625 457.465820312 200.244140625 457.465820312 200.879882812 458.974609375 c 128,-1,14
 201.518554688 460.482421875 201.518554688 460.482421875 203.327148438 464.381835938 c 128,-1,15
 205.139648438 468.279296875 205.139648438 468.279296875 207.298828125 470.6953125 c 128,-1,16
 209.4609375 473.112304688 209.4609375 473.112304688 212.087890625 474.909179688 c 128,-1,17
 214.715820312 476.706054688 214.715820312 476.706054688 217.788085938 475.049804688 c 128,-1,18
 220.857421875 473.395507812 220.857421875 473.395507812 223.740234375 468.17578125 c 0,19,20
 225.400390625 466.447265625 225.400390625 466.447265625 226.248046875 462.440429688 c 128,-1,21
 227.092773438 458.431640625 227.092773438 458.431640625 227.11328125 455.2890625 c 2,22,-1
 227.133789062 452.147460938 l 1,23,-1
 226.114257812 428.803710938 l 2,24,25
 225.706054688 425.194335938 225.706054688 425.194335938 225.299804688 419.3125 c 128,-1,26
 224.893554688 413.435546875 224.893554688 413.435546875 224.46875 395.786132812 c 128,-1,27
 224.045898438 378.137695312 224.045898438 378.137695312 226.052734375 365.610351562 c 2,28,-1
 238.04296875 292.102539062 l 1,29,30
 237.345703125 271.563476562 237.345703125 271.563476562 248.833007812 236.858398438 c 2,31,-1
 267.296875 188.21875 l 2,32,33
 291.78125 131.83984375 291.78125 131.83984375 303.506835938 114.044921875 c 0,34,35
 308.728515625 106.123046875 308.728515625 106.123046875 316.58203125 96.109375 c 128,-1,36
 324.435546875 86.095703125 324.435546875 86.095703125 329.677734375 80.0439453125 c 2,37,-1
 334.919921875 73.990234375 l 2,38,39
 358.705078125 49.3330078125 358.705078125 49.3330078125 382.399414062 46.2578125 c 0,40,41
 386.662109375 43.2275390625 386.662109375 43.2275390625 387.98046875 35.302734375 c 128,-1,42
 389.299804688 27.3818359375 389.299804688 27.3818359375 388.486328125 20.9716796875 c 2,43,-1
 387.674804688 14.5625 l 2,44,45
 387.301757812 13.7421875 387.301757812 13.7421875 386.493164062 12.537109375 c 128,-1,46
 385.684570312 11.3349609375 385.684570312 11.3349609375 382.594726562 8.0703125 c 128,-1,47
 379.504882812 4.80859375 379.504882812 4.80859375 375.453125 3.583984375 c 128,-1,48
 371.395507812 2.357421875 371.395507812 2.357421875 364.53125 1.4921875 c 128,-1,49
 357.666992188 0.6298828125 357.666992188 0.6298828125 349.307617188 4.220703125 c 0,50,51
 336.411132812 8.720703125 336.411132812 8.720703125 324.482421875 17.580078125 c 128,-1,52
 312.552734375 26.4384765625 312.552734375 26.4384765625 307.068359375 33.0458984375 c 2,53,-1
 301.587890625 39.6552734375 l 1,54,-1
 267.77734375 88.736328125 l 1,55,56
 267.77734375 88.736328125 267.77734375 88.736328125 263.877929688 90.7705078125 c 0,57,58
 256.9140625 90.7998046875 256.9140625 90.7998046875 245.71484375 75.529296875 c 0,59,60
 237.403320312 66.3359375 237.403320312 66.3359375 225.47265625 55.9375 c 128,-1,61
 213.543945312 45.5380859375 213.543945312 45.5380859375 205.768554688 39.734375 c 2,62,-1
 197.99609375 33.93359375 l 2,63,64
 196.916992188 33.228515625 196.916992188 33.228515625 194.9921875 32.05078125 c 128,-1,65
 193.068359375 30.8720703125 193.068359375 30.8720703125 187.080078125 27.6787109375 c 128,-1,66
 181.090820312 24.484375 181.090820312 24.484375 175.12109375 21.830078125 c 128,-1,67
 169.151367188 19.1767578125 169.151367188 19.1767578125 160.790039062 16.4482421875 c 128,-1,68
 152.428710938 13.720703125 152.428710938 13.720703125 144.8984375 12.48828125 c 128,-1,69
 137.364257812 11.2548828125 137.364257812 11.2548828125 129.11328125 11.888671875 c 128,-1,70
 120.864257812 12.5205078125 120.864257812 12.5205078125 114.306640625 15.6650390625 c 0,71,72
 108.66015625 22.021484375 108.66015625 22.021484375 102.483398438 34.8427734375 c 128,-1,73
 96.30859375 47.6640625 96.30859375 47.6640625 92.9609375 57.306640625 c 2,74,-1
 89.607421875 66.947265625 l 1,75,76
 89.607421875 66.947265625 89.607421875 66.947265625 87.5146484375 72.9140625 c 1,77,78
 82.3564453125 77.1015625 82.3564453125 77.1015625 68.111328125 55.4130859375 c 0,79,80
 66.8994140625 53.5673828125 66.8994140625 53.5673828125 65.6279296875 51.5400390625 c 0,81,82
 55.078125 34.716796875 55.078125 34.716796875 45.84375 23.2177734375 c 128,-1,83
 36.6123046875 11.7158203125 36.6123046875 11.7158203125 32.6572265625 8.6259765625 c 2,84,-1
 28.69921875 5.5419921875 l 2,85,86
 27.326171875 4.77734375 27.326171875 4.77734375 25.0673828125 3.9677734375 c 128,-1,87
 22.8056640625 3.158203125 22.8056640625 3.158203125 15.9462890625 2.052734375 c 128,-1,88
 9.0859375 0.9462890625 9.0859375 0.9462890625 4 4 c 0,89,90
 2.65625 4.802734375 2.65625 4.802734375 2.064453125 7.8369140625 c 128,-1,91
 1.4736328125 10.876953125 1.4736328125 10.876953125 1.5869140625 14.640625 c 128,-1,92
 1.6982421875 18.404296875 1.6982421875 18.404296875 2.00390625 22.0517578125 c 128,-1,93
 2.3076171875 25.701171875 2.3076171875 25.701171875 2.6748046875 28.1650390625 c 2,94,-1
 3.041015625 30.6328125 l 1,95,-1
 3.2802734375 33.0537109375 l 1,0,-1
200.6328125 285.717773438 m 1,96,-1
 200.212890625 286.434570312 l 2,97,98
 199.8515625 287.153320312 199.8515625 287.153320312 198.65625 290.395507812 c 0,99,100
 196.918945312 293.748046875 196.918945312 293.748046875 194.653320312 292.879882812 c 128,-1,101
 192.388671875 292.01171875 192.388671875 292.01171875 190.424804688 289.25 c 2,102,-1
 188.463867188 286.487304688 l 1,103,-1
 184.806640625 279.116210938 l 1,104,-1
 179.291992188 267.231445312 l 1,105,-1
 167.78125 242.801757812 l 2,106,107
 128.8046875 157.93359375 128.8046875 157.93359375 124.138671875 147.169921875 c 0,108,109
 122.059570312 142.377929688 122.059570312 142.377929688 121.100585938 138.27734375 c 128,-1,110
 120.141601562 134.177734375 120.141601562 134.177734375 120.22265625 132.475585938 c 2,111,-1
 120.30078125 130.772460938 l 1,112,113
 127.959960938 94.005859375 127.959960938 94.005859375 139.46875 73.8125 c 0,114,115
 144.500976562 62.9189453125 144.500976562 62.9189453125 152.010742188 58.6875 c 128,-1,116
 159.520507812 54.455078125 159.520507812 54.455078125 166.645507812 56.1962890625 c 128,-1,117
 173.766601562 57.9384765625 173.766601562 57.9384765625 180.171875 61.236328125 c 128,-1,118
 186.577148438 64.5361328125 186.577148438 64.5361328125 190.490234375 68.0849609375 c 2,119,-1
 194.405273438 71.634765625 l 1,120,-1
 226.28515625 108.673828125 l 1,121,-1
 245.614257812 129.838867188 l 1,122,-1
 240.52734375 147.26953125 l 2,123,124
 230.680664062 177.802734375 230.680664062 177.802734375 224.587890625 192.401367188 c 0,125,126
 221.423828125 197.66015625 221.423828125 197.66015625 215.435546875 220.98828125 c 128,-1,127
 209.446289062 244.318359375 209.446289062 244.318359375 205.0390625 265.01953125 c 2,128,-1
 200.6328125 285.717773438 l 1,96,-1
EndSplineSet
Validated: 33
EndChar

StartChar: b
Encoding: 98 98 30
Width: 417
GlyphClass: 1
Flags: W
LayerCount: 2
Fore
SplineSet
20.6708984375 573.591796875 m 1,0,1
 23.0126953125 573.591796875 23.0126953125 573.591796875 26.525390625 572.015625 c 128,-1,2
 30.0390625 570.440429688 30.0390625 570.440429688 39.404296875 565.7109375 c 128,-1,3
 48.7705078125 560.982421875 48.7705078125 560.982421875 56.5751953125 555.465820312 c 128,-1,4
 64.3818359375 549.94921875 64.3818359375 549.94921875 72.9677734375 540.885742188 c 128,-1,5
 81.5517578125 531.822265625 81.5517578125 531.822265625 86.236328125 521.577148438 c 1,6,7
 101.84765625 505.02734375 101.84765625 505.02734375 111.604492188 480.990234375 c 128,-1,8
 121.360351562 456.951171875 121.360351562 456.951171875 124.09375 434.884765625 c 128,-1,9
 126.82421875 412.818359375 126.82421875 412.818359375 127.21484375 393.5078125 c 128,-1,10
 127.60546875 374.19921875 127.60546875 374.19921875 126.043945312 362.37890625 c 2,11,-1
 125.263671875 350.557617188 l 1,12,-1
 120.580078125 282.779296875 l 2,13,14
 119.018554688 278.051757812 119.018554688 278.051757812 116.287109375 270.95703125 c 128,-1,15
 113.555664062 263.865234375 113.555664062 263.865234375 109.65234375 250.466796875 c 128,-1,16
 105.750976562 237.069335938 105.750976562 237.069335938 107.310546875 232.340820312 c 0,17,18
 97.9453125 183.478515625 97.9453125 183.478515625 99.896484375 151.55859375 c 128,-1,19
 101.84765625 119.641601562 101.84765625 119.641601562 108.872070312 103.879882812 c 2,20,-1
 116.677734375 88.115234375 l 2,21,22
 143.99609375 30.5849609375 143.99609375 30.5849609375 161.168945312 17.974609375 c 0,23,24
 166.6328125 11.669921875 166.6328125 11.669921875 178.340820312 8.1240234375 c 128,-1,25
 190.048828125 4.576171875 190.048828125 4.576171875 199.416015625 3.7890625 c 2,26,-1
 208 3 l 1,27,-1
 241.563476562 5.365234375 l 2,28,29
 249.369140625 5.365234375 249.369140625 5.365234375 257.955078125 10.880859375 c 0,30,31
 300.88671875 41.6181640625 300.88671875 41.6181640625 300.88671875 41.6181640625 c 1,32,33
 347.71875 80.234375 347.71875 80.234375 351.62109375 96.78515625 c 1,34,35
 369.57421875 110.18359375 369.57421875 110.18359375 379.720703125 125.158203125 c 128,-1,36
 389.8671875 140.130859375 389.8671875 140.130859375 391.428710938 148.80078125 c 2,37,-1
 392.990234375 156.681640625 l 1,38,-1
 392.990234375 179.537109375 l 2,39,40
 392.990234375 192.935546875 392.990234375 192.935546875 401.575195312 203.96875 c 0,41,42
 410.162109375 218.154296875 410.162109375 218.154296875 412.893554688 236.67578125 c 128,-1,43
 415.625 255.1953125 415.625 255.1953125 414.063476562 266.229492188 c 2,44,-1
 412.50390625 277.263671875 l 2,45,46
 414.844726562 281.205078125 414.844726562 281.205078125 395.33203125 296.176757812 c 0,47,48
 376.598632812 310.36328125 376.598632812 310.36328125 344.595703125 328.096679688 c 128,-1,49
 312.594726562 345.829101562 312.594726562 345.829101562 290.739257812 351.345703125 c 0,50,51
 263.418945312 355.286132812 263.418945312 355.286132812 245.077148438 352.1328125 c 128,-1,52
 226.733398438 348.98046875 226.733398438 348.98046875 217.369140625 342.676757812 c 2,53,-1
 208 336.37109375 l 1,54,-1
 199.416015625 325.336914062 l 1,55,-1
 191.609375 319.033203125 l 2,56,57
 187.70703125 315.880859375 187.70703125 315.880859375 180.682617188 308.392578125 c 128,-1,58
 173.657226562 300.905273438 173.657226562 300.905273438 168.973632812 295.387695312 c 2,59,-1
 164.291992188 289.0859375 l 2,60,61
 161.94921875 283.568359375 161.94921875 283.568359375 158.828125 289.0859375 c 0,62,63
 157.264648438 292.236328125 157.264648438 292.236328125 157.264648438 295.783203125 c 128,-1,64
 157.264648438 299.330078125 157.264648438 299.330078125 158.045898438 301.694335938 c 2,65,-1
 158.828125 304.057617188 l 1,66,-1
 167.413085938 332.430664062 l 2,67,68
 168.193359375 334.006835938 168.193359375 334.006835938 168.973632812 337.159179688 c 128,-1,69
 169.75390625 340.3125 169.75390625 340.3125 171.706054688 348.586914062 c 128,-1,70
 173.657226562 356.861328125 173.657226562 356.861328125 172.876953125 363.166992188 c 128,-1,71
 172.096679688 369.471679688 172.096679688 369.471679688 172.876953125 377.74609375 c 128,-1,72
 173.657226562 386.021484375 173.657226562 386.021484375 174.4375 390.750976562 c 2,73,-1
 175.21875 395.479492188 l 1,74,-1
 175.21875 471.137695312 l 1,75,-1
 174.4375 497.145507812 l 2,76,77
 173.657226562 497.934570312 173.657226562 497.934570312 173.266601562 499.115234375 c 128,-1,78
 172.876953125 500.297851562 172.876953125 500.297851562 171.706054688 508.573242188 c 128,-1,79
 170.536132812 516.84765625 170.536132812 516.84765625 171.315429688 531.03515625 c 1,80,81
 158.828125 557.041992188 158.828125 557.041992188 145.948242188 576.349609375 c 128,-1,82
 133.069335938 595.66015625 133.069335938 595.66015625 126.043945312 602.752929688 c 2,83,-1
 119.018554688 609.05859375 l 1,84,-1
 92.48046875 627.971679688 l 1,85,86
 71.40625 629.547851562 71.40625 629.547851562 47.9912109375 634.276367188 c 1,87,88
 29.2568359375 629.547851562 29.2568359375 629.547851562 18.7197265625 623.2421875 c 128,-1,89
 8.1826171875 616.939453125 8.1826171875 616.939453125 6.6220703125 612.209960938 c 2,90,-1
 5.060546875 608.26953125 l 2,91,92
 1.158203125 605.904296875 1.158203125 605.904296875 5.8408203125 593.294921875 c 1,93,94
 20.6708984375 572.803710938 20.6708984375 572.803710938 20.6708984375 573.591796875 c 1,0,1
191.609375 279.626953125 m 2,95,96
 192.390625 279.626953125 192.390625 279.626953125 193.561523438 280.809570312 c 128,-1,97
 194.731445312 281.9921875 194.731445312 281.9921875 199.805664062 283.568359375 c 128,-1,98
 204.877929688 285.14453125 204.877929688 285.14453125 211.124023438 285.93359375 c 128,-1,99
 217.369140625 286.720703125 217.369140625 286.720703125 228.685546875 285.14453125 c 128,-1,100
 240.00390625 283.568359375 240.00390625 283.568359375 252.4921875 279.626953125 c 0,101,102
 300.104492188 259.924804688 300.104492188 259.924804688 327.422851562 245.34375 c 128,-1,103
 354.743164062 230.763671875 354.743164062 230.763671875 358.645507812 226.03515625 c 2,104,-1
 361.768554688 221.306640625 l 2,105,106
 362.548828125 220.518554688 362.548828125 220.518554688 363.329101562 218.547851562 c 128,-1,107
 364.109375 216.578125 364.109375 216.578125 365.671875 211.455078125 c 128,-1,108
 367.231445312 206.33203125 367.231445312 206.33203125 368.01171875 201.604492188 c 128,-1,109
 368.791992188 196.875976562 368.791992188 196.875976562 368.401367188 190.965820312 c 128,-1,110
 368.01171875 185.053710938 368.01171875 185.053710938 365.671875 180.326171875 c 0,111,112
 339.131835938 114.125 339.131835938 114.125 339.131835938 114.125 c 2,113,114
 336.009765625 107.819335938 336.009765625 107.819335938 293.081054688 81.0234375 c 1,115,116
 220.489257812 72.353515625 220.489257812 72.353515625 214.245117188 81.0234375 c 0,117,118
 211.904296875 82.599609375 211.904296875 82.599609375 206.830078125 86.541015625 c 128,-1,119
 201.756835938 90.4814453125 201.756835938 90.4814453125 190.439453125 104.272460938 c 128,-1,120
 179.120117188 118.064453125 179.120117188 118.064453125 172.876953125 134.614257812 c 0,121,122
 150.240234375 192.935546875 150.240234375 192.935546875 150.240234375 192.935546875 c 1,123,124
 147.119140625 211.848632812 147.119140625 211.848632812 150.240234375 227.612304688 c 0,125,126
 151.80078125 234.705078125 151.80078125 234.705078125 156.875976562 243.374023438 c 128,-1,127
 161.94921875 252.04296875 161.94921875 252.04296875 166.6328125 257.559570312 c 2,128,-1
 170.536132812 262.2890625 l 1,129,-1
 191.609375 279.626953125 l 2,95,96
EndSplineSet
Validated: 41
EndChar

